M48
;DRILL file {KiCad (5.0.0)} date 10/26/18 12:57:51
;FORMAT={-:-/ absolute / inch / decimal}
FMAT,2
INCH,TZ
T1C0.0157
T2C0.0394
%
G90
G05
M72
T1
X5.1567Y-3.7406
X5.2663Y-3.0439
X5.3642Y-3.9272
X5.375Y-3.0116
X5.5217Y-3.7598
X5.5457Y-3.1319
X5.5953Y-3.5917
X5.6201Y-3.0709
X5.6783Y-3.3476
X5.7472Y-4.0528
X5.7539Y-3.2406
X5.8465Y-3.4449
X5.8543Y-3.5236
X5.8543Y-3.6201
X5.8728Y-3.8925
X5.952Y-3.2634
X6.0827Y-2.8051
X6.2677Y-3.8846
X6.2744Y-3.7343
X6.2823Y-3.4823
X6.2894Y-3.4252
X6.3091Y-4.1437
X6.4961Y-3.3169
X6.5209Y-3.5346
X6.5551Y-3.435
X6.7287Y-3.7087
X6.7815Y-2.7854
X6.8996Y-3.8583
X7.1358Y-3.1299
X7.1358Y-3.7008
X7.3228Y-3.6417
X7.3524Y-2.9035
X7.3543Y-2.7839
X7.4508Y-3.7992
T2
X6.7382Y-3.3839
X6.7382Y-3.4839
X5.2587Y-4.0091
X5.2587Y-4.1091
X5.2587Y-4.2091
X5.2587Y-4.3091
X6.2146Y-4.3024
X6.3146Y-4.3024
X5.7343Y-4.3024
X5.8343Y-4.3024
X5.9343Y-4.3024
X6.0343Y-4.3024
X5.4409Y-4.3016
X5.5409Y-4.3016
X5.5512Y-2.8528
X5.5512Y-2.9528
X5.6512Y-2.8528
X5.6512Y-2.9528
X5.7512Y-2.8528
X5.7512Y-2.9528
X5.8512Y-2.8528
X5.8512Y-2.9528
X5.9512Y-2.8528
X5.9512Y-2.9528
X6.578Y-4.298
X6.678Y-4.298
X6.778Y-4.298
X6.878Y-4.298
X6.978Y-4.298
X7.078Y-4.298
X7.178Y-4.298
X7.278Y-4.298
T0
M30
