G04 #@! TF.GenerationSoftware,KiCad,Pcbnew,(5.0.0)*
G04 #@! TF.CreationDate,2018-10-31T15:25:37+01:00*
G04 #@! TF.ProjectId,Digital,4469676974616C2E6B696361645F7063,rev?*
G04 #@! TF.SameCoordinates,Original*
G04 #@! TF.FileFunction,Copper,L2,Inr,Signal*
G04 #@! TF.FilePolarity,Positive*
%FSLAX46Y46*%
G04 Gerber Fmt 4.6, Leading zero omitted, Abs format (unit mm)*
G04 Created by KiCad (PCBNEW (5.0.0)) date 10/31/18 15:25:37*
%MOMM*%
%LPD*%
G01*
G04 APERTURE LIST*
G04 #@! TA.AperFunction,ViaPad*
%ADD10O,1.700000X1.700000*%
G04 #@! TD*
G04 #@! TA.AperFunction,ViaPad*
%ADD11R,1.700000X1.700000*%
G04 #@! TD*
G04 #@! TA.AperFunction,ViaPad*
%ADD12C,0.800000*%
G04 #@! TD*
G04 #@! TA.AperFunction,Conductor*
%ADD13C,0.254000*%
G04 #@! TD*
G04 APERTURE END LIST*
D10*
G04 #@! TO.N,Net-(DAC1-Pad2)*
G04 #@! TO.C,DAC1*
X140740000Y-109260000D03*
D11*
G04 #@! TO.N,Net-(DAC1-Pad1)*
X138200000Y-109260000D03*
G04 #@! TD*
G04 #@! TO.N,+3V3*
G04 #@! TO.C,DigitalPWR1*
X171150000Y-85950000D03*
D10*
G04 #@! TO.N,GNDPWR*
X171150000Y-88490000D03*
G04 #@! TD*
G04 #@! TO.N,Net-(I2C1-Pad2)*
G04 #@! TO.C,I2C1*
X160390000Y-109280000D03*
D11*
G04 #@! TO.N,Net-(I2C1-Pad1)*
X157850000Y-109280000D03*
G04 #@! TD*
G04 #@! TO.N,Net-(ADC1-Pad1)*
G04 #@! TO.C,ADC1*
X133570000Y-101830000D03*
D10*
G04 #@! TO.N,Net-(ADC1-Pad2)*
X133570000Y-104370000D03*
G04 #@! TO.N,Net-(ADC1-Pad3)*
X133570000Y-106910000D03*
G04 #@! TO.N,Net-(ADC1-Pad4)*
X133570000Y-109450000D03*
G04 #@! TD*
G04 #@! TO.N,Net-(ADC2-Pad4)*
G04 #@! TO.C,ADC2*
X153270000Y-109280000D03*
G04 #@! TO.N,Net-(ADC2-Pad3)*
X150730000Y-109280000D03*
G04 #@! TO.N,Net-(ADC2-Pad2)*
X148190000Y-109280000D03*
D11*
G04 #@! TO.N,Net-(ADC2-Pad1)*
X145650000Y-109280000D03*
G04 #@! TD*
D10*
G04 #@! TO.N,Net-(GPIO1-Pad8)*
G04 #@! TO.C,GPIO1*
X167080000Y-109170000D03*
G04 #@! TO.N,Net-(GPIO1-Pad7)*
X169620000Y-109170000D03*
G04 #@! TO.N,Net-(GPIO1-Pad6)*
X172160000Y-109170000D03*
G04 #@! TO.N,Net-(GPIO1-Pad5)*
X174700000Y-109170000D03*
G04 #@! TO.N,Net-(GPIO1-Pad4)*
X177240000Y-109170000D03*
G04 #@! TO.N,Net-(GPIO1-Pad3)*
X179780000Y-109170000D03*
G04 #@! TO.N,Net-(GPIO1-Pad2)*
X182320000Y-109170000D03*
D11*
G04 #@! TO.N,Net-(GPIO1-Pad1)*
X184860000Y-109170000D03*
G04 #@! TD*
D10*
G04 #@! TO.N,GND*
G04 #@! TO.C,J1*
X151160000Y-72460000D03*
G04 #@! TO.N,BOOT0*
X151160000Y-75000000D03*
G04 #@! TO.N,+3V3*
X148620000Y-72460000D03*
X148620000Y-75000000D03*
G04 #@! TO.N,SWCLK*
X146080000Y-72460000D03*
G04 #@! TO.N,SWO*
X146080000Y-75000000D03*
G04 #@! TO.N,GND*
X143540000Y-72460000D03*
X143540000Y-75000000D03*
G04 #@! TO.N,SWDIO*
X141000000Y-72460000D03*
D11*
G04 #@! TO.N,NRST*
X141000000Y-75000000D03*
G04 #@! TD*
D12*
G04 #@! TO.N,Net-(D2-Pad2)*
X181250000Y-94000000D03*
X181250000Y-79500000D03*
G04 #@! TO.N,Net-(D1-Pad2)*
X186000000Y-92500000D03*
X186750000Y-73750000D03*
G04 #@! TO.N,BT_KEY*
X186800000Y-70710000D03*
X165630000Y-89780000D03*
G04 #@! TO.N,+3V3*
X146150000Y-82310000D03*
X148700000Y-89500000D03*
X148700000Y-91950000D03*
X149170000Y-98870000D03*
X159200000Y-98670000D03*
X133765000Y-77315000D03*
X140860000Y-79550000D03*
X130980000Y-95010000D03*
X165000000Y-84250000D03*
G04 #@! TO.N,GND*
X142120000Y-91230000D03*
X136525000Y-76495000D03*
X189250000Y-96500000D03*
X175250000Y-98000000D03*
X140250000Y-95500000D03*
X145980000Y-102940000D03*
X160250000Y-105250000D03*
X166500000Y-87250000D03*
X172250000Y-70750000D03*
X136250000Y-99750000D03*
G04 #@! TO.N,BOOT0*
X151180000Y-82890000D03*
G04 #@! TO.N,DIGITAL_ENABLE*
X170910000Y-94200000D03*
X159370000Y-94850000D03*
G04 #@! TO.N,NRST*
X142750000Y-78000000D03*
X148500000Y-87500000D03*
G04 #@! TO.N,SWCLK*
X159750000Y-87000000D03*
X154500000Y-71250000D03*
G04 #@! TO.N,SWDIO*
X159570000Y-88450000D03*
X144230000Y-85030000D03*
G04 #@! TD*
D13*
G04 #@! TO.N,+3V3*
G36*
X186213720Y-69832569D02*
X185922569Y-70123720D01*
X185765000Y-70504126D01*
X185765000Y-70915874D01*
X185922569Y-71296280D01*
X186213720Y-71587431D01*
X186594126Y-71745000D01*
X187005874Y-71745000D01*
X187386280Y-71587431D01*
X187677431Y-71296280D01*
X187835000Y-70915874D01*
X187835000Y-70504126D01*
X187677431Y-70123720D01*
X187386280Y-69832569D01*
X187090372Y-69710000D01*
X190290000Y-69710000D01*
X190290001Y-110290000D01*
X186293300Y-110290000D01*
X186308157Y-110267765D01*
X186357440Y-110020000D01*
X186357440Y-108320000D01*
X186308157Y-108072235D01*
X186167809Y-107862191D01*
X185957765Y-107721843D01*
X185710000Y-107672560D01*
X184010000Y-107672560D01*
X183762235Y-107721843D01*
X183552191Y-107862191D01*
X183411843Y-108072235D01*
X183402816Y-108117619D01*
X183390625Y-108099375D01*
X182899418Y-107771161D01*
X182466256Y-107685000D01*
X182173744Y-107685000D01*
X181740582Y-107771161D01*
X181249375Y-108099375D01*
X181050000Y-108397761D01*
X180850625Y-108099375D01*
X180359418Y-107771161D01*
X179926256Y-107685000D01*
X179633744Y-107685000D01*
X179200582Y-107771161D01*
X178709375Y-108099375D01*
X178510000Y-108397761D01*
X178310625Y-108099375D01*
X177819418Y-107771161D01*
X177386256Y-107685000D01*
X177093744Y-107685000D01*
X176660582Y-107771161D01*
X176169375Y-108099375D01*
X175970000Y-108397761D01*
X175770625Y-108099375D01*
X175279418Y-107771161D01*
X174846256Y-107685000D01*
X174553744Y-107685000D01*
X174120582Y-107771161D01*
X173629375Y-108099375D01*
X173430000Y-108397761D01*
X173230625Y-108099375D01*
X172739418Y-107771161D01*
X172306256Y-107685000D01*
X172013744Y-107685000D01*
X171580582Y-107771161D01*
X171089375Y-108099375D01*
X170890000Y-108397761D01*
X170690625Y-108099375D01*
X170199418Y-107771161D01*
X169766256Y-107685000D01*
X169473744Y-107685000D01*
X169040582Y-107771161D01*
X168549375Y-108099375D01*
X168350000Y-108397761D01*
X168150625Y-108099375D01*
X167659418Y-107771161D01*
X167226256Y-107685000D01*
X166933744Y-107685000D01*
X166500582Y-107771161D01*
X166009375Y-108099375D01*
X165681161Y-108590582D01*
X165565908Y-109170000D01*
X165681161Y-109749418D01*
X166009375Y-110240625D01*
X166083270Y-110290000D01*
X161501133Y-110290000D01*
X161788839Y-109859418D01*
X161904092Y-109280000D01*
X161788839Y-108700582D01*
X161460625Y-108209375D01*
X160969418Y-107881161D01*
X160536256Y-107795000D01*
X160243744Y-107795000D01*
X159810582Y-107881161D01*
X159319375Y-108209375D01*
X159307184Y-108227619D01*
X159298157Y-108182235D01*
X159157809Y-107972191D01*
X158947765Y-107831843D01*
X158700000Y-107782560D01*
X157000000Y-107782560D01*
X156752235Y-107831843D01*
X156542191Y-107972191D01*
X156401843Y-108182235D01*
X156352560Y-108430000D01*
X156352560Y-110130000D01*
X156384386Y-110290000D01*
X154381133Y-110290000D01*
X154668839Y-109859418D01*
X154784092Y-109280000D01*
X154668839Y-108700582D01*
X154340625Y-108209375D01*
X153849418Y-107881161D01*
X153416256Y-107795000D01*
X153123744Y-107795000D01*
X152690582Y-107881161D01*
X152199375Y-108209375D01*
X152000000Y-108507761D01*
X151800625Y-108209375D01*
X151309418Y-107881161D01*
X150876256Y-107795000D01*
X150583744Y-107795000D01*
X150150582Y-107881161D01*
X149659375Y-108209375D01*
X149460000Y-108507761D01*
X149260625Y-108209375D01*
X148769418Y-107881161D01*
X148336256Y-107795000D01*
X148043744Y-107795000D01*
X147610582Y-107881161D01*
X147119375Y-108209375D01*
X147107184Y-108227619D01*
X147098157Y-108182235D01*
X146957809Y-107972191D01*
X146747765Y-107831843D01*
X146500000Y-107782560D01*
X144800000Y-107782560D01*
X144552235Y-107831843D01*
X144342191Y-107972191D01*
X144201843Y-108182235D01*
X144152560Y-108430000D01*
X144152560Y-110130000D01*
X144184386Y-110290000D01*
X141837770Y-110290000D01*
X142138839Y-109839418D01*
X142254092Y-109260000D01*
X142138839Y-108680582D01*
X141810625Y-108189375D01*
X141319418Y-107861161D01*
X140886256Y-107775000D01*
X140593744Y-107775000D01*
X140160582Y-107861161D01*
X139669375Y-108189375D01*
X139657184Y-108207619D01*
X139648157Y-108162235D01*
X139507809Y-107952191D01*
X139297765Y-107811843D01*
X139050000Y-107762560D01*
X137350000Y-107762560D01*
X137102235Y-107811843D01*
X136892191Y-107952191D01*
X136751843Y-108162235D01*
X136702560Y-108410000D01*
X136702560Y-110110000D01*
X136738364Y-110290000D01*
X134794724Y-110290000D01*
X134968839Y-110029418D01*
X135084092Y-109450000D01*
X134968839Y-108870582D01*
X134640625Y-108379375D01*
X134342239Y-108180000D01*
X134640625Y-107980625D01*
X134968839Y-107489418D01*
X135084092Y-106910000D01*
X134968839Y-106330582D01*
X134640625Y-105839375D01*
X134342239Y-105640000D01*
X134640625Y-105440625D01*
X134905557Y-105044126D01*
X159215000Y-105044126D01*
X159215000Y-105455874D01*
X159372569Y-105836280D01*
X159663720Y-106127431D01*
X160044126Y-106285000D01*
X160455874Y-106285000D01*
X160836280Y-106127431D01*
X161127431Y-105836280D01*
X161285000Y-105455874D01*
X161285000Y-105044126D01*
X161127431Y-104663720D01*
X160836280Y-104372569D01*
X160455874Y-104215000D01*
X160044126Y-104215000D01*
X159663720Y-104372569D01*
X159372569Y-104663720D01*
X159215000Y-105044126D01*
X134905557Y-105044126D01*
X134968839Y-104949418D01*
X135084092Y-104370000D01*
X134968839Y-103790582D01*
X134640625Y-103299375D01*
X134622381Y-103287184D01*
X134667765Y-103278157D01*
X134877809Y-103137809D01*
X135018157Y-102927765D01*
X135056673Y-102734126D01*
X144945000Y-102734126D01*
X144945000Y-103145874D01*
X145102569Y-103526280D01*
X145393720Y-103817431D01*
X145774126Y-103975000D01*
X146185874Y-103975000D01*
X146566280Y-103817431D01*
X146857431Y-103526280D01*
X147015000Y-103145874D01*
X147015000Y-102734126D01*
X146857431Y-102353720D01*
X146566280Y-102062569D01*
X146185874Y-101905000D01*
X145774126Y-101905000D01*
X145393720Y-102062569D01*
X145102569Y-102353720D01*
X144945000Y-102734126D01*
X135056673Y-102734126D01*
X135067440Y-102680000D01*
X135067440Y-100980000D01*
X135018157Y-100732235D01*
X134877809Y-100522191D01*
X134667765Y-100381843D01*
X134420000Y-100332560D01*
X132720000Y-100332560D01*
X132472235Y-100381843D01*
X132262191Y-100522191D01*
X132121843Y-100732235D01*
X132072560Y-100980000D01*
X132072560Y-102680000D01*
X132121843Y-102927765D01*
X132262191Y-103137809D01*
X132472235Y-103278157D01*
X132517619Y-103287184D01*
X132499375Y-103299375D01*
X132171161Y-103790582D01*
X132055908Y-104370000D01*
X132171161Y-104949418D01*
X132499375Y-105440625D01*
X132797761Y-105640000D01*
X132499375Y-105839375D01*
X132171161Y-106330582D01*
X132055908Y-106910000D01*
X132171161Y-107489418D01*
X132499375Y-107980625D01*
X132797761Y-108180000D01*
X132499375Y-108379375D01*
X132171161Y-108870582D01*
X132055908Y-109450000D01*
X132171161Y-110029418D01*
X132345276Y-110290000D01*
X130710000Y-110290000D01*
X130710000Y-99544126D01*
X135215000Y-99544126D01*
X135215000Y-99955874D01*
X135372569Y-100336280D01*
X135663720Y-100627431D01*
X136044126Y-100785000D01*
X136455874Y-100785000D01*
X136836280Y-100627431D01*
X137127431Y-100336280D01*
X137285000Y-99955874D01*
X137285000Y-99544126D01*
X137127431Y-99163720D01*
X136836280Y-98872569D01*
X136455874Y-98715000D01*
X136044126Y-98715000D01*
X135663720Y-98872569D01*
X135372569Y-99163720D01*
X135215000Y-99544126D01*
X130710000Y-99544126D01*
X130710000Y-97794126D01*
X174215000Y-97794126D01*
X174215000Y-98205874D01*
X174372569Y-98586280D01*
X174663720Y-98877431D01*
X175044126Y-99035000D01*
X175455874Y-99035000D01*
X175836280Y-98877431D01*
X176127431Y-98586280D01*
X176285000Y-98205874D01*
X176285000Y-97794126D01*
X176127431Y-97413720D01*
X175836280Y-97122569D01*
X175455874Y-96965000D01*
X175044126Y-96965000D01*
X174663720Y-97122569D01*
X174372569Y-97413720D01*
X174215000Y-97794126D01*
X130710000Y-97794126D01*
X130710000Y-95294126D01*
X139215000Y-95294126D01*
X139215000Y-95705874D01*
X139372569Y-96086280D01*
X139663720Y-96377431D01*
X140044126Y-96535000D01*
X140455874Y-96535000D01*
X140836280Y-96377431D01*
X140919585Y-96294126D01*
X188215000Y-96294126D01*
X188215000Y-96705874D01*
X188372569Y-97086280D01*
X188663720Y-97377431D01*
X189044126Y-97535000D01*
X189455874Y-97535000D01*
X189836280Y-97377431D01*
X190127431Y-97086280D01*
X190285000Y-96705874D01*
X190285000Y-96294126D01*
X190127431Y-95913720D01*
X189836280Y-95622569D01*
X189455874Y-95465000D01*
X189044126Y-95465000D01*
X188663720Y-95622569D01*
X188372569Y-95913720D01*
X188215000Y-96294126D01*
X140919585Y-96294126D01*
X141127431Y-96086280D01*
X141285000Y-95705874D01*
X141285000Y-95294126D01*
X141127431Y-94913720D01*
X140857837Y-94644126D01*
X158335000Y-94644126D01*
X158335000Y-95055874D01*
X158492569Y-95436280D01*
X158783720Y-95727431D01*
X159164126Y-95885000D01*
X159575874Y-95885000D01*
X159956280Y-95727431D01*
X160247431Y-95436280D01*
X160405000Y-95055874D01*
X160405000Y-94644126D01*
X160247431Y-94263720D01*
X159977837Y-93994126D01*
X169875000Y-93994126D01*
X169875000Y-94405874D01*
X170032569Y-94786280D01*
X170323720Y-95077431D01*
X170704126Y-95235000D01*
X171115874Y-95235000D01*
X171496280Y-95077431D01*
X171787431Y-94786280D01*
X171945000Y-94405874D01*
X171945000Y-93994126D01*
X171862158Y-93794126D01*
X180215000Y-93794126D01*
X180215000Y-94205874D01*
X180372569Y-94586280D01*
X180663720Y-94877431D01*
X181044126Y-95035000D01*
X181455874Y-95035000D01*
X181836280Y-94877431D01*
X182127431Y-94586280D01*
X182285000Y-94205874D01*
X182285000Y-93794126D01*
X182127431Y-93413720D01*
X181836280Y-93122569D01*
X181455874Y-92965000D01*
X181044126Y-92965000D01*
X180663720Y-93122569D01*
X180372569Y-93413720D01*
X180215000Y-93794126D01*
X171862158Y-93794126D01*
X171787431Y-93613720D01*
X171496280Y-93322569D01*
X171115874Y-93165000D01*
X170704126Y-93165000D01*
X170323720Y-93322569D01*
X170032569Y-93613720D01*
X169875000Y-93994126D01*
X159977837Y-93994126D01*
X159956280Y-93972569D01*
X159575874Y-93815000D01*
X159164126Y-93815000D01*
X158783720Y-93972569D01*
X158492569Y-94263720D01*
X158335000Y-94644126D01*
X140857837Y-94644126D01*
X140836280Y-94622569D01*
X140455874Y-94465000D01*
X140044126Y-94465000D01*
X139663720Y-94622569D01*
X139372569Y-94913720D01*
X139215000Y-95294126D01*
X130710000Y-95294126D01*
X130710000Y-92294126D01*
X184965000Y-92294126D01*
X184965000Y-92705874D01*
X185122569Y-93086280D01*
X185413720Y-93377431D01*
X185794126Y-93535000D01*
X186205874Y-93535000D01*
X186586280Y-93377431D01*
X186877431Y-93086280D01*
X187035000Y-92705874D01*
X187035000Y-92294126D01*
X186877431Y-91913720D01*
X186586280Y-91622569D01*
X186205874Y-91465000D01*
X185794126Y-91465000D01*
X185413720Y-91622569D01*
X185122569Y-91913720D01*
X184965000Y-92294126D01*
X130710000Y-92294126D01*
X130710000Y-91024126D01*
X141085000Y-91024126D01*
X141085000Y-91435874D01*
X141242569Y-91816280D01*
X141533720Y-92107431D01*
X141914126Y-92265000D01*
X142325874Y-92265000D01*
X142706280Y-92107431D01*
X142997431Y-91816280D01*
X143155000Y-91435874D01*
X143155000Y-91024126D01*
X142997431Y-90643720D01*
X142706280Y-90352569D01*
X142325874Y-90195000D01*
X141914126Y-90195000D01*
X141533720Y-90352569D01*
X141242569Y-90643720D01*
X141085000Y-91024126D01*
X130710000Y-91024126D01*
X130710000Y-89574126D01*
X164595000Y-89574126D01*
X164595000Y-89985874D01*
X164752569Y-90366280D01*
X165043720Y-90657431D01*
X165424126Y-90815000D01*
X165835874Y-90815000D01*
X166216280Y-90657431D01*
X166507431Y-90366280D01*
X166665000Y-89985874D01*
X166665000Y-89574126D01*
X166507431Y-89193720D01*
X166216280Y-88902569D01*
X165835874Y-88745000D01*
X165424126Y-88745000D01*
X165043720Y-88902569D01*
X164752569Y-89193720D01*
X164595000Y-89574126D01*
X130710000Y-89574126D01*
X130710000Y-87294126D01*
X147465000Y-87294126D01*
X147465000Y-87705874D01*
X147622569Y-88086280D01*
X147913720Y-88377431D01*
X148294126Y-88535000D01*
X148705874Y-88535000D01*
X149086280Y-88377431D01*
X149219585Y-88244126D01*
X158535000Y-88244126D01*
X158535000Y-88655874D01*
X158692569Y-89036280D01*
X158983720Y-89327431D01*
X159364126Y-89485000D01*
X159775874Y-89485000D01*
X160156280Y-89327431D01*
X160447431Y-89036280D01*
X160605000Y-88655874D01*
X160605000Y-88490000D01*
X169635908Y-88490000D01*
X169751161Y-89069418D01*
X170079375Y-89560625D01*
X170570582Y-89888839D01*
X171003744Y-89975000D01*
X171296256Y-89975000D01*
X171729418Y-89888839D01*
X172220625Y-89560625D01*
X172548839Y-89069418D01*
X172664092Y-88490000D01*
X172548839Y-87910582D01*
X172220625Y-87419375D01*
X172198967Y-87404904D01*
X172359698Y-87338327D01*
X172538327Y-87159699D01*
X172635000Y-86926310D01*
X172635000Y-86235750D01*
X172476250Y-86077000D01*
X171277000Y-86077000D01*
X171277000Y-86097000D01*
X171023000Y-86097000D01*
X171023000Y-86077000D01*
X169823750Y-86077000D01*
X169665000Y-86235750D01*
X169665000Y-86926310D01*
X169761673Y-87159699D01*
X169940302Y-87338327D01*
X170101033Y-87404904D01*
X170079375Y-87419375D01*
X169751161Y-87910582D01*
X169635908Y-88490000D01*
X160605000Y-88490000D01*
X160605000Y-88244126D01*
X160447431Y-87863720D01*
X160398711Y-87815000D01*
X160627431Y-87586280D01*
X160785000Y-87205874D01*
X160785000Y-87044126D01*
X165465000Y-87044126D01*
X165465000Y-87455874D01*
X165622569Y-87836280D01*
X165913720Y-88127431D01*
X166294126Y-88285000D01*
X166705874Y-88285000D01*
X167086280Y-88127431D01*
X167377431Y-87836280D01*
X167535000Y-87455874D01*
X167535000Y-87044126D01*
X167377431Y-86663720D01*
X167086280Y-86372569D01*
X166705874Y-86215000D01*
X166294126Y-86215000D01*
X165913720Y-86372569D01*
X165622569Y-86663720D01*
X165465000Y-87044126D01*
X160785000Y-87044126D01*
X160785000Y-86794126D01*
X160627431Y-86413720D01*
X160336280Y-86122569D01*
X159955874Y-85965000D01*
X159544126Y-85965000D01*
X159163720Y-86122569D01*
X158872569Y-86413720D01*
X158715000Y-86794126D01*
X158715000Y-87205874D01*
X158872569Y-87586280D01*
X158921289Y-87635000D01*
X158692569Y-87863720D01*
X158535000Y-88244126D01*
X149219585Y-88244126D01*
X149377431Y-88086280D01*
X149535000Y-87705874D01*
X149535000Y-87294126D01*
X149377431Y-86913720D01*
X149086280Y-86622569D01*
X148705874Y-86465000D01*
X148294126Y-86465000D01*
X147913720Y-86622569D01*
X147622569Y-86913720D01*
X147465000Y-87294126D01*
X130710000Y-87294126D01*
X130710000Y-84824126D01*
X143195000Y-84824126D01*
X143195000Y-85235874D01*
X143352569Y-85616280D01*
X143643720Y-85907431D01*
X144024126Y-86065000D01*
X144435874Y-86065000D01*
X144816280Y-85907431D01*
X145107431Y-85616280D01*
X145265000Y-85235874D01*
X145265000Y-84973690D01*
X169665000Y-84973690D01*
X169665000Y-85664250D01*
X169823750Y-85823000D01*
X171023000Y-85823000D01*
X171023000Y-84623750D01*
X171277000Y-84623750D01*
X171277000Y-85823000D01*
X172476250Y-85823000D01*
X172635000Y-85664250D01*
X172635000Y-84973690D01*
X172538327Y-84740301D01*
X172359698Y-84561673D01*
X172126309Y-84465000D01*
X171435750Y-84465000D01*
X171277000Y-84623750D01*
X171023000Y-84623750D01*
X170864250Y-84465000D01*
X170173691Y-84465000D01*
X169940302Y-84561673D01*
X169761673Y-84740301D01*
X169665000Y-84973690D01*
X145265000Y-84973690D01*
X145265000Y-84824126D01*
X145107431Y-84443720D01*
X144816280Y-84152569D01*
X144435874Y-83995000D01*
X144024126Y-83995000D01*
X143643720Y-84152569D01*
X143352569Y-84443720D01*
X143195000Y-84824126D01*
X130710000Y-84824126D01*
X130710000Y-82684126D01*
X150145000Y-82684126D01*
X150145000Y-83095874D01*
X150302569Y-83476280D01*
X150593720Y-83767431D01*
X150974126Y-83925000D01*
X151385874Y-83925000D01*
X151766280Y-83767431D01*
X152057431Y-83476280D01*
X152215000Y-83095874D01*
X152215000Y-82684126D01*
X152057431Y-82303720D01*
X151766280Y-82012569D01*
X151385874Y-81855000D01*
X150974126Y-81855000D01*
X150593720Y-82012569D01*
X150302569Y-82303720D01*
X150145000Y-82684126D01*
X130710000Y-82684126D01*
X130710000Y-79294126D01*
X180215000Y-79294126D01*
X180215000Y-79705874D01*
X180372569Y-80086280D01*
X180663720Y-80377431D01*
X181044126Y-80535000D01*
X181455874Y-80535000D01*
X181836280Y-80377431D01*
X182127431Y-80086280D01*
X182285000Y-79705874D01*
X182285000Y-79294126D01*
X182127431Y-78913720D01*
X181836280Y-78622569D01*
X181455874Y-78465000D01*
X181044126Y-78465000D01*
X180663720Y-78622569D01*
X180372569Y-78913720D01*
X180215000Y-79294126D01*
X130710000Y-79294126D01*
X130710000Y-77794126D01*
X141715000Y-77794126D01*
X141715000Y-78205874D01*
X141872569Y-78586280D01*
X142163720Y-78877431D01*
X142544126Y-79035000D01*
X142955874Y-79035000D01*
X143336280Y-78877431D01*
X143627431Y-78586280D01*
X143785000Y-78205874D01*
X143785000Y-77794126D01*
X143627431Y-77413720D01*
X143336280Y-77122569D01*
X142955874Y-76965000D01*
X142544126Y-76965000D01*
X142163720Y-77122569D01*
X141872569Y-77413720D01*
X141715000Y-77794126D01*
X130710000Y-77794126D01*
X130710000Y-76289126D01*
X135490000Y-76289126D01*
X135490000Y-76700874D01*
X135647569Y-77081280D01*
X135938720Y-77372431D01*
X136319126Y-77530000D01*
X136730874Y-77530000D01*
X137111280Y-77372431D01*
X137402431Y-77081280D01*
X137560000Y-76700874D01*
X137560000Y-76289126D01*
X137402431Y-75908720D01*
X137111280Y-75617569D01*
X136730874Y-75460000D01*
X136319126Y-75460000D01*
X135938720Y-75617569D01*
X135647569Y-75908720D01*
X135490000Y-76289126D01*
X130710000Y-76289126D01*
X130710000Y-72460000D01*
X139485908Y-72460000D01*
X139601161Y-73039418D01*
X139929375Y-73530625D01*
X139947619Y-73542816D01*
X139902235Y-73551843D01*
X139692191Y-73692191D01*
X139551843Y-73902235D01*
X139502560Y-74150000D01*
X139502560Y-75850000D01*
X139551843Y-76097765D01*
X139692191Y-76307809D01*
X139902235Y-76448157D01*
X140150000Y-76497440D01*
X141850000Y-76497440D01*
X142097765Y-76448157D01*
X142307809Y-76307809D01*
X142448157Y-76097765D01*
X142457184Y-76052381D01*
X142469375Y-76070625D01*
X142960582Y-76398839D01*
X143393744Y-76485000D01*
X143686256Y-76485000D01*
X144119418Y-76398839D01*
X144610625Y-76070625D01*
X144810000Y-75772239D01*
X145009375Y-76070625D01*
X145500582Y-76398839D01*
X145933744Y-76485000D01*
X146226256Y-76485000D01*
X146659418Y-76398839D01*
X147150625Y-76070625D01*
X147363843Y-75751522D01*
X147424817Y-75881358D01*
X147853076Y-76271645D01*
X148263110Y-76441476D01*
X148493000Y-76320155D01*
X148493000Y-75127000D01*
X148473000Y-75127000D01*
X148473000Y-74873000D01*
X148493000Y-74873000D01*
X148493000Y-72587000D01*
X148473000Y-72587000D01*
X148473000Y-72333000D01*
X148493000Y-72333000D01*
X148493000Y-71139845D01*
X148747000Y-71139845D01*
X148747000Y-72333000D01*
X148767000Y-72333000D01*
X148767000Y-72587000D01*
X148747000Y-72587000D01*
X148747000Y-74873000D01*
X148767000Y-74873000D01*
X148767000Y-75127000D01*
X148747000Y-75127000D01*
X148747000Y-76320155D01*
X148976890Y-76441476D01*
X149386924Y-76271645D01*
X149815183Y-75881358D01*
X149876157Y-75751522D01*
X150089375Y-76070625D01*
X150580582Y-76398839D01*
X151013744Y-76485000D01*
X151306256Y-76485000D01*
X151739418Y-76398839D01*
X152230625Y-76070625D01*
X152558839Y-75579418D01*
X152674092Y-75000000D01*
X152558839Y-74420582D01*
X152230625Y-73929375D01*
X151932239Y-73730000D01*
X152210419Y-73544126D01*
X185715000Y-73544126D01*
X185715000Y-73955874D01*
X185872569Y-74336280D01*
X186163720Y-74627431D01*
X186544126Y-74785000D01*
X186955874Y-74785000D01*
X187336280Y-74627431D01*
X187627431Y-74336280D01*
X187785000Y-73955874D01*
X187785000Y-73544126D01*
X187627431Y-73163720D01*
X187336280Y-72872569D01*
X186955874Y-72715000D01*
X186544126Y-72715000D01*
X186163720Y-72872569D01*
X185872569Y-73163720D01*
X185715000Y-73544126D01*
X152210419Y-73544126D01*
X152230625Y-73530625D01*
X152558839Y-73039418D01*
X152674092Y-72460000D01*
X152558839Y-71880582D01*
X152230625Y-71389375D01*
X151739418Y-71061161D01*
X151653777Y-71044126D01*
X153465000Y-71044126D01*
X153465000Y-71455874D01*
X153622569Y-71836280D01*
X153913720Y-72127431D01*
X154294126Y-72285000D01*
X154705874Y-72285000D01*
X155086280Y-72127431D01*
X155377431Y-71836280D01*
X155535000Y-71455874D01*
X155535000Y-71044126D01*
X155377431Y-70663720D01*
X155257837Y-70544126D01*
X171215000Y-70544126D01*
X171215000Y-70955874D01*
X171372569Y-71336280D01*
X171663720Y-71627431D01*
X172044126Y-71785000D01*
X172455874Y-71785000D01*
X172836280Y-71627431D01*
X173127431Y-71336280D01*
X173285000Y-70955874D01*
X173285000Y-70544126D01*
X173127431Y-70163720D01*
X172836280Y-69872569D01*
X172455874Y-69715000D01*
X172044126Y-69715000D01*
X171663720Y-69872569D01*
X171372569Y-70163720D01*
X171215000Y-70544126D01*
X155257837Y-70544126D01*
X155086280Y-70372569D01*
X154705874Y-70215000D01*
X154294126Y-70215000D01*
X153913720Y-70372569D01*
X153622569Y-70663720D01*
X153465000Y-71044126D01*
X151653777Y-71044126D01*
X151306256Y-70975000D01*
X151013744Y-70975000D01*
X150580582Y-71061161D01*
X150089375Y-71389375D01*
X149876157Y-71708478D01*
X149815183Y-71578642D01*
X149386924Y-71188355D01*
X148976890Y-71018524D01*
X148747000Y-71139845D01*
X148493000Y-71139845D01*
X148263110Y-71018524D01*
X147853076Y-71188355D01*
X147424817Y-71578642D01*
X147363843Y-71708478D01*
X147150625Y-71389375D01*
X146659418Y-71061161D01*
X146226256Y-70975000D01*
X145933744Y-70975000D01*
X145500582Y-71061161D01*
X145009375Y-71389375D01*
X144810000Y-71687761D01*
X144610625Y-71389375D01*
X144119418Y-71061161D01*
X143686256Y-70975000D01*
X143393744Y-70975000D01*
X142960582Y-71061161D01*
X142469375Y-71389375D01*
X142270000Y-71687761D01*
X142070625Y-71389375D01*
X141579418Y-71061161D01*
X141146256Y-70975000D01*
X140853744Y-70975000D01*
X140420582Y-71061161D01*
X139929375Y-71389375D01*
X139601161Y-71880582D01*
X139485908Y-72460000D01*
X130710000Y-72460000D01*
X130710000Y-69710000D01*
X186509628Y-69710000D01*
X186213720Y-69832569D01*
X186213720Y-69832569D01*
G37*
X186213720Y-69832569D02*
X185922569Y-70123720D01*
X185765000Y-70504126D01*
X185765000Y-70915874D01*
X185922569Y-71296280D01*
X186213720Y-71587431D01*
X186594126Y-71745000D01*
X187005874Y-71745000D01*
X187386280Y-71587431D01*
X187677431Y-71296280D01*
X187835000Y-70915874D01*
X187835000Y-70504126D01*
X187677431Y-70123720D01*
X187386280Y-69832569D01*
X187090372Y-69710000D01*
X190290000Y-69710000D01*
X190290001Y-110290000D01*
X186293300Y-110290000D01*
X186308157Y-110267765D01*
X186357440Y-110020000D01*
X186357440Y-108320000D01*
X186308157Y-108072235D01*
X186167809Y-107862191D01*
X185957765Y-107721843D01*
X185710000Y-107672560D01*
X184010000Y-107672560D01*
X183762235Y-107721843D01*
X183552191Y-107862191D01*
X183411843Y-108072235D01*
X183402816Y-108117619D01*
X183390625Y-108099375D01*
X182899418Y-107771161D01*
X182466256Y-107685000D01*
X182173744Y-107685000D01*
X181740582Y-107771161D01*
X181249375Y-108099375D01*
X181050000Y-108397761D01*
X180850625Y-108099375D01*
X180359418Y-107771161D01*
X179926256Y-107685000D01*
X179633744Y-107685000D01*
X179200582Y-107771161D01*
X178709375Y-108099375D01*
X178510000Y-108397761D01*
X178310625Y-108099375D01*
X177819418Y-107771161D01*
X177386256Y-107685000D01*
X177093744Y-107685000D01*
X176660582Y-107771161D01*
X176169375Y-108099375D01*
X175970000Y-108397761D01*
X175770625Y-108099375D01*
X175279418Y-107771161D01*
X174846256Y-107685000D01*
X174553744Y-107685000D01*
X174120582Y-107771161D01*
X173629375Y-108099375D01*
X173430000Y-108397761D01*
X173230625Y-108099375D01*
X172739418Y-107771161D01*
X172306256Y-107685000D01*
X172013744Y-107685000D01*
X171580582Y-107771161D01*
X171089375Y-108099375D01*
X170890000Y-108397761D01*
X170690625Y-108099375D01*
X170199418Y-107771161D01*
X169766256Y-107685000D01*
X169473744Y-107685000D01*
X169040582Y-107771161D01*
X168549375Y-108099375D01*
X168350000Y-108397761D01*
X168150625Y-108099375D01*
X167659418Y-107771161D01*
X167226256Y-107685000D01*
X166933744Y-107685000D01*
X166500582Y-107771161D01*
X166009375Y-108099375D01*
X165681161Y-108590582D01*
X165565908Y-109170000D01*
X165681161Y-109749418D01*
X166009375Y-110240625D01*
X166083270Y-110290000D01*
X161501133Y-110290000D01*
X161788839Y-109859418D01*
X161904092Y-109280000D01*
X161788839Y-108700582D01*
X161460625Y-108209375D01*
X160969418Y-107881161D01*
X160536256Y-107795000D01*
X160243744Y-107795000D01*
X159810582Y-107881161D01*
X159319375Y-108209375D01*
X159307184Y-108227619D01*
X159298157Y-108182235D01*
X159157809Y-107972191D01*
X158947765Y-107831843D01*
X158700000Y-107782560D01*
X157000000Y-107782560D01*
X156752235Y-107831843D01*
X156542191Y-107972191D01*
X156401843Y-108182235D01*
X156352560Y-108430000D01*
X156352560Y-110130000D01*
X156384386Y-110290000D01*
X154381133Y-110290000D01*
X154668839Y-109859418D01*
X154784092Y-109280000D01*
X154668839Y-108700582D01*
X154340625Y-108209375D01*
X153849418Y-107881161D01*
X153416256Y-107795000D01*
X153123744Y-107795000D01*
X152690582Y-107881161D01*
X152199375Y-108209375D01*
X152000000Y-108507761D01*
X151800625Y-108209375D01*
X151309418Y-107881161D01*
X150876256Y-107795000D01*
X150583744Y-107795000D01*
X150150582Y-107881161D01*
X149659375Y-108209375D01*
X149460000Y-108507761D01*
X149260625Y-108209375D01*
X148769418Y-107881161D01*
X148336256Y-107795000D01*
X148043744Y-107795000D01*
X147610582Y-107881161D01*
X147119375Y-108209375D01*
X147107184Y-108227619D01*
X147098157Y-108182235D01*
X146957809Y-107972191D01*
X146747765Y-107831843D01*
X146500000Y-107782560D01*
X144800000Y-107782560D01*
X144552235Y-107831843D01*
X144342191Y-107972191D01*
X144201843Y-108182235D01*
X144152560Y-108430000D01*
X144152560Y-110130000D01*
X144184386Y-110290000D01*
X141837770Y-110290000D01*
X142138839Y-109839418D01*
X142254092Y-109260000D01*
X142138839Y-108680582D01*
X141810625Y-108189375D01*
X141319418Y-107861161D01*
X140886256Y-107775000D01*
X140593744Y-107775000D01*
X140160582Y-107861161D01*
X139669375Y-108189375D01*
X139657184Y-108207619D01*
X139648157Y-108162235D01*
X139507809Y-107952191D01*
X139297765Y-107811843D01*
X139050000Y-107762560D01*
X137350000Y-107762560D01*
X137102235Y-107811843D01*
X136892191Y-107952191D01*
X136751843Y-108162235D01*
X136702560Y-108410000D01*
X136702560Y-110110000D01*
X136738364Y-110290000D01*
X134794724Y-110290000D01*
X134968839Y-110029418D01*
X135084092Y-109450000D01*
X134968839Y-108870582D01*
X134640625Y-108379375D01*
X134342239Y-108180000D01*
X134640625Y-107980625D01*
X134968839Y-107489418D01*
X135084092Y-106910000D01*
X134968839Y-106330582D01*
X134640625Y-105839375D01*
X134342239Y-105640000D01*
X134640625Y-105440625D01*
X134905557Y-105044126D01*
X159215000Y-105044126D01*
X159215000Y-105455874D01*
X159372569Y-105836280D01*
X159663720Y-106127431D01*
X160044126Y-106285000D01*
X160455874Y-106285000D01*
X160836280Y-106127431D01*
X161127431Y-105836280D01*
X161285000Y-105455874D01*
X161285000Y-105044126D01*
X161127431Y-104663720D01*
X160836280Y-104372569D01*
X160455874Y-104215000D01*
X160044126Y-104215000D01*
X159663720Y-104372569D01*
X159372569Y-104663720D01*
X159215000Y-105044126D01*
X134905557Y-105044126D01*
X134968839Y-104949418D01*
X135084092Y-104370000D01*
X134968839Y-103790582D01*
X134640625Y-103299375D01*
X134622381Y-103287184D01*
X134667765Y-103278157D01*
X134877809Y-103137809D01*
X135018157Y-102927765D01*
X135056673Y-102734126D01*
X144945000Y-102734126D01*
X144945000Y-103145874D01*
X145102569Y-103526280D01*
X145393720Y-103817431D01*
X145774126Y-103975000D01*
X146185874Y-103975000D01*
X146566280Y-103817431D01*
X146857431Y-103526280D01*
X147015000Y-103145874D01*
X147015000Y-102734126D01*
X146857431Y-102353720D01*
X146566280Y-102062569D01*
X146185874Y-101905000D01*
X145774126Y-101905000D01*
X145393720Y-102062569D01*
X145102569Y-102353720D01*
X144945000Y-102734126D01*
X135056673Y-102734126D01*
X135067440Y-102680000D01*
X135067440Y-100980000D01*
X135018157Y-100732235D01*
X134877809Y-100522191D01*
X134667765Y-100381843D01*
X134420000Y-100332560D01*
X132720000Y-100332560D01*
X132472235Y-100381843D01*
X132262191Y-100522191D01*
X132121843Y-100732235D01*
X132072560Y-100980000D01*
X132072560Y-102680000D01*
X132121843Y-102927765D01*
X132262191Y-103137809D01*
X132472235Y-103278157D01*
X132517619Y-103287184D01*
X132499375Y-103299375D01*
X132171161Y-103790582D01*
X132055908Y-104370000D01*
X132171161Y-104949418D01*
X132499375Y-105440625D01*
X132797761Y-105640000D01*
X132499375Y-105839375D01*
X132171161Y-106330582D01*
X132055908Y-106910000D01*
X132171161Y-107489418D01*
X132499375Y-107980625D01*
X132797761Y-108180000D01*
X132499375Y-108379375D01*
X132171161Y-108870582D01*
X132055908Y-109450000D01*
X132171161Y-110029418D01*
X132345276Y-110290000D01*
X130710000Y-110290000D01*
X130710000Y-99544126D01*
X135215000Y-99544126D01*
X135215000Y-99955874D01*
X135372569Y-100336280D01*
X135663720Y-100627431D01*
X136044126Y-100785000D01*
X136455874Y-100785000D01*
X136836280Y-100627431D01*
X137127431Y-100336280D01*
X137285000Y-99955874D01*
X137285000Y-99544126D01*
X137127431Y-99163720D01*
X136836280Y-98872569D01*
X136455874Y-98715000D01*
X136044126Y-98715000D01*
X135663720Y-98872569D01*
X135372569Y-99163720D01*
X135215000Y-99544126D01*
X130710000Y-99544126D01*
X130710000Y-97794126D01*
X174215000Y-97794126D01*
X174215000Y-98205874D01*
X174372569Y-98586280D01*
X174663720Y-98877431D01*
X175044126Y-99035000D01*
X175455874Y-99035000D01*
X175836280Y-98877431D01*
X176127431Y-98586280D01*
X176285000Y-98205874D01*
X176285000Y-97794126D01*
X176127431Y-97413720D01*
X175836280Y-97122569D01*
X175455874Y-96965000D01*
X175044126Y-96965000D01*
X174663720Y-97122569D01*
X174372569Y-97413720D01*
X174215000Y-97794126D01*
X130710000Y-97794126D01*
X130710000Y-95294126D01*
X139215000Y-95294126D01*
X139215000Y-95705874D01*
X139372569Y-96086280D01*
X139663720Y-96377431D01*
X140044126Y-96535000D01*
X140455874Y-96535000D01*
X140836280Y-96377431D01*
X140919585Y-96294126D01*
X188215000Y-96294126D01*
X188215000Y-96705874D01*
X188372569Y-97086280D01*
X188663720Y-97377431D01*
X189044126Y-97535000D01*
X189455874Y-97535000D01*
X189836280Y-97377431D01*
X190127431Y-97086280D01*
X190285000Y-96705874D01*
X190285000Y-96294126D01*
X190127431Y-95913720D01*
X189836280Y-95622569D01*
X189455874Y-95465000D01*
X189044126Y-95465000D01*
X188663720Y-95622569D01*
X188372569Y-95913720D01*
X188215000Y-96294126D01*
X140919585Y-96294126D01*
X141127431Y-96086280D01*
X141285000Y-95705874D01*
X141285000Y-95294126D01*
X141127431Y-94913720D01*
X140857837Y-94644126D01*
X158335000Y-94644126D01*
X158335000Y-95055874D01*
X158492569Y-95436280D01*
X158783720Y-95727431D01*
X159164126Y-95885000D01*
X159575874Y-95885000D01*
X159956280Y-95727431D01*
X160247431Y-95436280D01*
X160405000Y-95055874D01*
X160405000Y-94644126D01*
X160247431Y-94263720D01*
X159977837Y-93994126D01*
X169875000Y-93994126D01*
X169875000Y-94405874D01*
X170032569Y-94786280D01*
X170323720Y-95077431D01*
X170704126Y-95235000D01*
X171115874Y-95235000D01*
X171496280Y-95077431D01*
X171787431Y-94786280D01*
X171945000Y-94405874D01*
X171945000Y-93994126D01*
X171862158Y-93794126D01*
X180215000Y-93794126D01*
X180215000Y-94205874D01*
X180372569Y-94586280D01*
X180663720Y-94877431D01*
X181044126Y-95035000D01*
X181455874Y-95035000D01*
X181836280Y-94877431D01*
X182127431Y-94586280D01*
X182285000Y-94205874D01*
X182285000Y-93794126D01*
X182127431Y-93413720D01*
X181836280Y-93122569D01*
X181455874Y-92965000D01*
X181044126Y-92965000D01*
X180663720Y-93122569D01*
X180372569Y-93413720D01*
X180215000Y-93794126D01*
X171862158Y-93794126D01*
X171787431Y-93613720D01*
X171496280Y-93322569D01*
X171115874Y-93165000D01*
X170704126Y-93165000D01*
X170323720Y-93322569D01*
X170032569Y-93613720D01*
X169875000Y-93994126D01*
X159977837Y-93994126D01*
X159956280Y-93972569D01*
X159575874Y-93815000D01*
X159164126Y-93815000D01*
X158783720Y-93972569D01*
X158492569Y-94263720D01*
X158335000Y-94644126D01*
X140857837Y-94644126D01*
X140836280Y-94622569D01*
X140455874Y-94465000D01*
X140044126Y-94465000D01*
X139663720Y-94622569D01*
X139372569Y-94913720D01*
X139215000Y-95294126D01*
X130710000Y-95294126D01*
X130710000Y-92294126D01*
X184965000Y-92294126D01*
X184965000Y-92705874D01*
X185122569Y-93086280D01*
X185413720Y-93377431D01*
X185794126Y-93535000D01*
X186205874Y-93535000D01*
X186586280Y-93377431D01*
X186877431Y-93086280D01*
X187035000Y-92705874D01*
X187035000Y-92294126D01*
X186877431Y-91913720D01*
X186586280Y-91622569D01*
X186205874Y-91465000D01*
X185794126Y-91465000D01*
X185413720Y-91622569D01*
X185122569Y-91913720D01*
X184965000Y-92294126D01*
X130710000Y-92294126D01*
X130710000Y-91024126D01*
X141085000Y-91024126D01*
X141085000Y-91435874D01*
X141242569Y-91816280D01*
X141533720Y-92107431D01*
X141914126Y-92265000D01*
X142325874Y-92265000D01*
X142706280Y-92107431D01*
X142997431Y-91816280D01*
X143155000Y-91435874D01*
X143155000Y-91024126D01*
X142997431Y-90643720D01*
X142706280Y-90352569D01*
X142325874Y-90195000D01*
X141914126Y-90195000D01*
X141533720Y-90352569D01*
X141242569Y-90643720D01*
X141085000Y-91024126D01*
X130710000Y-91024126D01*
X130710000Y-89574126D01*
X164595000Y-89574126D01*
X164595000Y-89985874D01*
X164752569Y-90366280D01*
X165043720Y-90657431D01*
X165424126Y-90815000D01*
X165835874Y-90815000D01*
X166216280Y-90657431D01*
X166507431Y-90366280D01*
X166665000Y-89985874D01*
X166665000Y-89574126D01*
X166507431Y-89193720D01*
X166216280Y-88902569D01*
X165835874Y-88745000D01*
X165424126Y-88745000D01*
X165043720Y-88902569D01*
X164752569Y-89193720D01*
X164595000Y-89574126D01*
X130710000Y-89574126D01*
X130710000Y-87294126D01*
X147465000Y-87294126D01*
X147465000Y-87705874D01*
X147622569Y-88086280D01*
X147913720Y-88377431D01*
X148294126Y-88535000D01*
X148705874Y-88535000D01*
X149086280Y-88377431D01*
X149219585Y-88244126D01*
X158535000Y-88244126D01*
X158535000Y-88655874D01*
X158692569Y-89036280D01*
X158983720Y-89327431D01*
X159364126Y-89485000D01*
X159775874Y-89485000D01*
X160156280Y-89327431D01*
X160447431Y-89036280D01*
X160605000Y-88655874D01*
X160605000Y-88490000D01*
X169635908Y-88490000D01*
X169751161Y-89069418D01*
X170079375Y-89560625D01*
X170570582Y-89888839D01*
X171003744Y-89975000D01*
X171296256Y-89975000D01*
X171729418Y-89888839D01*
X172220625Y-89560625D01*
X172548839Y-89069418D01*
X172664092Y-88490000D01*
X172548839Y-87910582D01*
X172220625Y-87419375D01*
X172198967Y-87404904D01*
X172359698Y-87338327D01*
X172538327Y-87159699D01*
X172635000Y-86926310D01*
X172635000Y-86235750D01*
X172476250Y-86077000D01*
X171277000Y-86077000D01*
X171277000Y-86097000D01*
X171023000Y-86097000D01*
X171023000Y-86077000D01*
X169823750Y-86077000D01*
X169665000Y-86235750D01*
X169665000Y-86926310D01*
X169761673Y-87159699D01*
X169940302Y-87338327D01*
X170101033Y-87404904D01*
X170079375Y-87419375D01*
X169751161Y-87910582D01*
X169635908Y-88490000D01*
X160605000Y-88490000D01*
X160605000Y-88244126D01*
X160447431Y-87863720D01*
X160398711Y-87815000D01*
X160627431Y-87586280D01*
X160785000Y-87205874D01*
X160785000Y-87044126D01*
X165465000Y-87044126D01*
X165465000Y-87455874D01*
X165622569Y-87836280D01*
X165913720Y-88127431D01*
X166294126Y-88285000D01*
X166705874Y-88285000D01*
X167086280Y-88127431D01*
X167377431Y-87836280D01*
X167535000Y-87455874D01*
X167535000Y-87044126D01*
X167377431Y-86663720D01*
X167086280Y-86372569D01*
X166705874Y-86215000D01*
X166294126Y-86215000D01*
X165913720Y-86372569D01*
X165622569Y-86663720D01*
X165465000Y-87044126D01*
X160785000Y-87044126D01*
X160785000Y-86794126D01*
X160627431Y-86413720D01*
X160336280Y-86122569D01*
X159955874Y-85965000D01*
X159544126Y-85965000D01*
X159163720Y-86122569D01*
X158872569Y-86413720D01*
X158715000Y-86794126D01*
X158715000Y-87205874D01*
X158872569Y-87586280D01*
X158921289Y-87635000D01*
X158692569Y-87863720D01*
X158535000Y-88244126D01*
X149219585Y-88244126D01*
X149377431Y-88086280D01*
X149535000Y-87705874D01*
X149535000Y-87294126D01*
X149377431Y-86913720D01*
X149086280Y-86622569D01*
X148705874Y-86465000D01*
X148294126Y-86465000D01*
X147913720Y-86622569D01*
X147622569Y-86913720D01*
X147465000Y-87294126D01*
X130710000Y-87294126D01*
X130710000Y-84824126D01*
X143195000Y-84824126D01*
X143195000Y-85235874D01*
X143352569Y-85616280D01*
X143643720Y-85907431D01*
X144024126Y-86065000D01*
X144435874Y-86065000D01*
X144816280Y-85907431D01*
X145107431Y-85616280D01*
X145265000Y-85235874D01*
X145265000Y-84973690D01*
X169665000Y-84973690D01*
X169665000Y-85664250D01*
X169823750Y-85823000D01*
X171023000Y-85823000D01*
X171023000Y-84623750D01*
X171277000Y-84623750D01*
X171277000Y-85823000D01*
X172476250Y-85823000D01*
X172635000Y-85664250D01*
X172635000Y-84973690D01*
X172538327Y-84740301D01*
X172359698Y-84561673D01*
X172126309Y-84465000D01*
X171435750Y-84465000D01*
X171277000Y-84623750D01*
X171023000Y-84623750D01*
X170864250Y-84465000D01*
X170173691Y-84465000D01*
X169940302Y-84561673D01*
X169761673Y-84740301D01*
X169665000Y-84973690D01*
X145265000Y-84973690D01*
X145265000Y-84824126D01*
X145107431Y-84443720D01*
X144816280Y-84152569D01*
X144435874Y-83995000D01*
X144024126Y-83995000D01*
X143643720Y-84152569D01*
X143352569Y-84443720D01*
X143195000Y-84824126D01*
X130710000Y-84824126D01*
X130710000Y-82684126D01*
X150145000Y-82684126D01*
X150145000Y-83095874D01*
X150302569Y-83476280D01*
X150593720Y-83767431D01*
X150974126Y-83925000D01*
X151385874Y-83925000D01*
X151766280Y-83767431D01*
X152057431Y-83476280D01*
X152215000Y-83095874D01*
X152215000Y-82684126D01*
X152057431Y-82303720D01*
X151766280Y-82012569D01*
X151385874Y-81855000D01*
X150974126Y-81855000D01*
X150593720Y-82012569D01*
X150302569Y-82303720D01*
X150145000Y-82684126D01*
X130710000Y-82684126D01*
X130710000Y-79294126D01*
X180215000Y-79294126D01*
X180215000Y-79705874D01*
X180372569Y-80086280D01*
X180663720Y-80377431D01*
X181044126Y-80535000D01*
X181455874Y-80535000D01*
X181836280Y-80377431D01*
X182127431Y-80086280D01*
X182285000Y-79705874D01*
X182285000Y-79294126D01*
X182127431Y-78913720D01*
X181836280Y-78622569D01*
X181455874Y-78465000D01*
X181044126Y-78465000D01*
X180663720Y-78622569D01*
X180372569Y-78913720D01*
X180215000Y-79294126D01*
X130710000Y-79294126D01*
X130710000Y-77794126D01*
X141715000Y-77794126D01*
X141715000Y-78205874D01*
X141872569Y-78586280D01*
X142163720Y-78877431D01*
X142544126Y-79035000D01*
X142955874Y-79035000D01*
X143336280Y-78877431D01*
X143627431Y-78586280D01*
X143785000Y-78205874D01*
X143785000Y-77794126D01*
X143627431Y-77413720D01*
X143336280Y-77122569D01*
X142955874Y-76965000D01*
X142544126Y-76965000D01*
X142163720Y-77122569D01*
X141872569Y-77413720D01*
X141715000Y-77794126D01*
X130710000Y-77794126D01*
X130710000Y-76289126D01*
X135490000Y-76289126D01*
X135490000Y-76700874D01*
X135647569Y-77081280D01*
X135938720Y-77372431D01*
X136319126Y-77530000D01*
X136730874Y-77530000D01*
X137111280Y-77372431D01*
X137402431Y-77081280D01*
X137560000Y-76700874D01*
X137560000Y-76289126D01*
X137402431Y-75908720D01*
X137111280Y-75617569D01*
X136730874Y-75460000D01*
X136319126Y-75460000D01*
X135938720Y-75617569D01*
X135647569Y-75908720D01*
X135490000Y-76289126D01*
X130710000Y-76289126D01*
X130710000Y-72460000D01*
X139485908Y-72460000D01*
X139601161Y-73039418D01*
X139929375Y-73530625D01*
X139947619Y-73542816D01*
X139902235Y-73551843D01*
X139692191Y-73692191D01*
X139551843Y-73902235D01*
X139502560Y-74150000D01*
X139502560Y-75850000D01*
X139551843Y-76097765D01*
X139692191Y-76307809D01*
X139902235Y-76448157D01*
X140150000Y-76497440D01*
X141850000Y-76497440D01*
X142097765Y-76448157D01*
X142307809Y-76307809D01*
X142448157Y-76097765D01*
X142457184Y-76052381D01*
X142469375Y-76070625D01*
X142960582Y-76398839D01*
X143393744Y-76485000D01*
X143686256Y-76485000D01*
X144119418Y-76398839D01*
X144610625Y-76070625D01*
X144810000Y-75772239D01*
X145009375Y-76070625D01*
X145500582Y-76398839D01*
X145933744Y-76485000D01*
X146226256Y-76485000D01*
X146659418Y-76398839D01*
X147150625Y-76070625D01*
X147363843Y-75751522D01*
X147424817Y-75881358D01*
X147853076Y-76271645D01*
X148263110Y-76441476D01*
X148493000Y-76320155D01*
X148493000Y-75127000D01*
X148473000Y-75127000D01*
X148473000Y-74873000D01*
X148493000Y-74873000D01*
X148493000Y-72587000D01*
X148473000Y-72587000D01*
X148473000Y-72333000D01*
X148493000Y-72333000D01*
X148493000Y-71139845D01*
X148747000Y-71139845D01*
X148747000Y-72333000D01*
X148767000Y-72333000D01*
X148767000Y-72587000D01*
X148747000Y-72587000D01*
X148747000Y-74873000D01*
X148767000Y-74873000D01*
X148767000Y-75127000D01*
X148747000Y-75127000D01*
X148747000Y-76320155D01*
X148976890Y-76441476D01*
X149386924Y-76271645D01*
X149815183Y-75881358D01*
X149876157Y-75751522D01*
X150089375Y-76070625D01*
X150580582Y-76398839D01*
X151013744Y-76485000D01*
X151306256Y-76485000D01*
X151739418Y-76398839D01*
X152230625Y-76070625D01*
X152558839Y-75579418D01*
X152674092Y-75000000D01*
X152558839Y-74420582D01*
X152230625Y-73929375D01*
X151932239Y-73730000D01*
X152210419Y-73544126D01*
X185715000Y-73544126D01*
X185715000Y-73955874D01*
X185872569Y-74336280D01*
X186163720Y-74627431D01*
X186544126Y-74785000D01*
X186955874Y-74785000D01*
X187336280Y-74627431D01*
X187627431Y-74336280D01*
X187785000Y-73955874D01*
X187785000Y-73544126D01*
X187627431Y-73163720D01*
X187336280Y-72872569D01*
X186955874Y-72715000D01*
X186544126Y-72715000D01*
X186163720Y-72872569D01*
X185872569Y-73163720D01*
X185715000Y-73544126D01*
X152210419Y-73544126D01*
X152230625Y-73530625D01*
X152558839Y-73039418D01*
X152674092Y-72460000D01*
X152558839Y-71880582D01*
X152230625Y-71389375D01*
X151739418Y-71061161D01*
X151653777Y-71044126D01*
X153465000Y-71044126D01*
X153465000Y-71455874D01*
X153622569Y-71836280D01*
X153913720Y-72127431D01*
X154294126Y-72285000D01*
X154705874Y-72285000D01*
X155086280Y-72127431D01*
X155377431Y-71836280D01*
X155535000Y-71455874D01*
X155535000Y-71044126D01*
X155377431Y-70663720D01*
X155257837Y-70544126D01*
X171215000Y-70544126D01*
X171215000Y-70955874D01*
X171372569Y-71336280D01*
X171663720Y-71627431D01*
X172044126Y-71785000D01*
X172455874Y-71785000D01*
X172836280Y-71627431D01*
X173127431Y-71336280D01*
X173285000Y-70955874D01*
X173285000Y-70544126D01*
X173127431Y-70163720D01*
X172836280Y-69872569D01*
X172455874Y-69715000D01*
X172044126Y-69715000D01*
X171663720Y-69872569D01*
X171372569Y-70163720D01*
X171215000Y-70544126D01*
X155257837Y-70544126D01*
X155086280Y-70372569D01*
X154705874Y-70215000D01*
X154294126Y-70215000D01*
X153913720Y-70372569D01*
X153622569Y-70663720D01*
X153465000Y-71044126D01*
X151653777Y-71044126D01*
X151306256Y-70975000D01*
X151013744Y-70975000D01*
X150580582Y-71061161D01*
X150089375Y-71389375D01*
X149876157Y-71708478D01*
X149815183Y-71578642D01*
X149386924Y-71188355D01*
X148976890Y-71018524D01*
X148747000Y-71139845D01*
X148493000Y-71139845D01*
X148263110Y-71018524D01*
X147853076Y-71188355D01*
X147424817Y-71578642D01*
X147363843Y-71708478D01*
X147150625Y-71389375D01*
X146659418Y-71061161D01*
X146226256Y-70975000D01*
X145933744Y-70975000D01*
X145500582Y-71061161D01*
X145009375Y-71389375D01*
X144810000Y-71687761D01*
X144610625Y-71389375D01*
X144119418Y-71061161D01*
X143686256Y-70975000D01*
X143393744Y-70975000D01*
X142960582Y-71061161D01*
X142469375Y-71389375D01*
X142270000Y-71687761D01*
X142070625Y-71389375D01*
X141579418Y-71061161D01*
X141146256Y-70975000D01*
X140853744Y-70975000D01*
X140420582Y-71061161D01*
X139929375Y-71389375D01*
X139601161Y-71880582D01*
X139485908Y-72460000D01*
X130710000Y-72460000D01*
X130710000Y-69710000D01*
X186509628Y-69710000D01*
X186213720Y-69832569D01*
G04 #@! TD*
M02*
