G04 #@! TF.GenerationSoftware,KiCad,Pcbnew,(5.0.0)*
G04 #@! TF.CreationDate,2018-10-31T15:25:37+01:00*
G04 #@! TF.ProjectId,Digital,4469676974616C2E6B696361645F7063,rev?*
G04 #@! TF.SameCoordinates,Original*
G04 #@! TF.FileFunction,Copper,L1,Top,Signal*
G04 #@! TF.FilePolarity,Positive*
%FSLAX46Y46*%
G04 Gerber Fmt 4.6, Leading zero omitted, Abs format (unit mm)*
G04 Created by KiCad (PCBNEW (5.0.0)) date 10/31/18 15:25:37*
%MOMM*%
%LPD*%
G01*
G04 APERTURE LIST*
G04 #@! TA.AperFunction,SMDPad,CuDef*
%ADD10R,1.100000X0.600000*%
G04 #@! TD*
G04 #@! TA.AperFunction,SMDPad,CuDef*
%ADD11R,1.200000X1.200000*%
G04 #@! TD*
G04 #@! TA.AperFunction,SMDPad,CuDef*
%ADD12R,0.400000X0.600000*%
G04 #@! TD*
G04 #@! TA.AperFunction,SMDPad,CuDef*
%ADD13R,0.600000X0.400000*%
G04 #@! TD*
G04 #@! TA.AperFunction,SMDPad,CuDef*
%ADD14R,0.700000X1.300000*%
G04 #@! TD*
G04 #@! TA.AperFunction,ComponentPad*
%ADD15O,1.700000X1.700000*%
G04 #@! TD*
G04 #@! TA.AperFunction,ComponentPad*
%ADD16R,1.700000X1.700000*%
G04 #@! TD*
G04 #@! TA.AperFunction,SMDPad,CuDef*
%ADD17R,1.500000X0.400000*%
G04 #@! TD*
G04 #@! TA.AperFunction,SMDPad,CuDef*
%ADD18R,1.500000X0.280000*%
G04 #@! TD*
G04 #@! TA.AperFunction,SMDPad,CuDef*
%ADD19R,0.400000X1.500000*%
G04 #@! TD*
G04 #@! TA.AperFunction,SMDPad,CuDef*
%ADD20R,0.280000X1.500000*%
G04 #@! TD*
G04 #@! TA.AperFunction,SMDPad,CuDef*
%ADD21R,0.500000X0.600000*%
G04 #@! TD*
G04 #@! TA.AperFunction,SMDPad,CuDef*
%ADD22R,0.600000X0.500000*%
G04 #@! TD*
G04 #@! TA.AperFunction,SMDPad,CuDef*
%ADD23R,1.000000X1.150000*%
G04 #@! TD*
G04 #@! TA.AperFunction,SMDPad,CuDef*
%ADD24R,0.900000X0.800000*%
G04 #@! TD*
G04 #@! TA.AperFunction,SMDPad,CuDef*
%ADD25R,1.000000X1.300000*%
G04 #@! TD*
G04 #@! TA.AperFunction,SMDPad,CuDef*
%ADD26R,1.300000X1.000000*%
G04 #@! TD*
G04 #@! TA.AperFunction,ViaPad*
%ADD27C,0.800000*%
G04 #@! TD*
G04 #@! TA.AperFunction,Conductor*
%ADD28C,0.250000*%
G04 #@! TD*
G04 #@! TA.AperFunction,Conductor*
%ADD29C,0.254000*%
G04 #@! TD*
G04 APERTURE END LIST*
D10*
G04 #@! TO.P,Y2,1*
G04 #@! TO.N,Net-(C9-Pad1)*
X140750000Y-87350000D03*
G04 #@! TO.P,Y2,2*
G04 #@! TO.N,Net-(C10-Pad1)*
X140750000Y-88750000D03*
G04 #@! TD*
D11*
G04 #@! TO.P,O,1*
G04 #@! TO.N,GND*
X162250000Y-70900000D03*
G04 #@! TO.P,O,2*
G04 #@! TO.N,Net-(ORANGE1-Pad2)*
X162250000Y-73100000D03*
G04 #@! TD*
G04 #@! TO.P,G,2*
G04 #@! TO.N,Net-(GREEN1-Pad2)*
X169750000Y-73100000D03*
G04 #@! TO.P,G,1*
G04 #@! TO.N,GND*
X169750000Y-70900000D03*
G04 #@! TD*
G04 #@! TO.P,R,1*
G04 #@! TO.N,GND*
X167250000Y-70900000D03*
G04 #@! TO.P,R,2*
G04 #@! TO.N,Net-(R8-Pad2)*
X167250000Y-73100000D03*
G04 #@! TD*
G04 #@! TO.P,Y,2*
G04 #@! TO.N,Net-(R11-Pad2)*
X159500000Y-73100000D03*
G04 #@! TO.P,Y,1*
G04 #@! TO.N,GND*
X159500000Y-70900000D03*
G04 #@! TD*
G04 #@! TO.P,B,1*
G04 #@! TO.N,GND*
X164750000Y-70900000D03*
G04 #@! TO.P,B,2*
G04 #@! TO.N,Net-(BLUE1-Pad2)*
X164750000Y-73100000D03*
G04 #@! TD*
D12*
G04 #@! TO.P,R7,2*
G04 #@! TO.N,Net-(GREEN1-Pad2)*
X166200000Y-82750000D03*
G04 #@! TO.P,R7,1*
G04 #@! TO.N,Net-(R7-Pad1)*
X165300000Y-82750000D03*
G04 #@! TD*
G04 #@! TO.P,R8,1*
G04 #@! TO.N,Net-(R8-Pad1)*
X165300000Y-81000000D03*
G04 #@! TO.P,R8,2*
G04 #@! TO.N,Net-(R8-Pad2)*
X166200000Y-81000000D03*
G04 #@! TD*
G04 #@! TO.P,R9,2*
G04 #@! TO.N,Net-(BLUE1-Pad2)*
X166200000Y-79250000D03*
G04 #@! TO.P,R9,1*
G04 #@! TO.N,Net-(R9-Pad1)*
X165300000Y-79250000D03*
G04 #@! TD*
D13*
G04 #@! TO.P,R10,1*
G04 #@! TO.N,Net-(R10-Pad1)*
X163500000Y-78700000D03*
G04 #@! TO.P,R10,2*
G04 #@! TO.N,Net-(ORANGE1-Pad2)*
X163500000Y-77800000D03*
G04 #@! TD*
G04 #@! TO.P,R11,2*
G04 #@! TO.N,Net-(R11-Pad2)*
X160500000Y-77800000D03*
G04 #@! TO.P,R11,1*
G04 #@! TO.N,Net-(R11-Pad1)*
X160500000Y-78700000D03*
G04 #@! TD*
D14*
G04 #@! TO.P,R2,1*
G04 #@! TO.N,Net-(R2-Pad1)*
X155120000Y-78550000D03*
G04 #@! TO.P,R2,2*
G04 #@! TO.N,+3V3*
X153220000Y-78550000D03*
G04 #@! TD*
G04 #@! TO.P,R3,2*
G04 #@! TO.N,GND*
X158940000Y-78520000D03*
G04 #@! TO.P,R3,1*
G04 #@! TO.N,Net-(R2-Pad1)*
X157040000Y-78520000D03*
G04 #@! TD*
D15*
G04 #@! TO.P,DAC1,2*
G04 #@! TO.N,Net-(DAC1-Pad2)*
X140740000Y-109260000D03*
D16*
G04 #@! TO.P,DAC1,1*
G04 #@! TO.N,Net-(DAC1-Pad1)*
X138200000Y-109260000D03*
G04 #@! TD*
G04 #@! TO.P,DigitalPWR1,1*
G04 #@! TO.N,+3V3*
X171150000Y-85950000D03*
D15*
G04 #@! TO.P,DigitalPWR1,2*
G04 #@! TO.N,GNDPWR*
X171150000Y-88490000D03*
G04 #@! TD*
G04 #@! TO.P,I2C1,2*
G04 #@! TO.N,Net-(I2C1-Pad2)*
X160390000Y-109280000D03*
D16*
G04 #@! TO.P,I2C1,1*
G04 #@! TO.N,Net-(I2C1-Pad1)*
X157850000Y-109280000D03*
G04 #@! TD*
G04 #@! TO.P,ADC1,1*
G04 #@! TO.N,Net-(ADC1-Pad1)*
X133570000Y-101830000D03*
D15*
G04 #@! TO.P,ADC1,2*
G04 #@! TO.N,Net-(ADC1-Pad2)*
X133570000Y-104370000D03*
G04 #@! TO.P,ADC1,3*
G04 #@! TO.N,Net-(ADC1-Pad3)*
X133570000Y-106910000D03*
G04 #@! TO.P,ADC1,4*
G04 #@! TO.N,Net-(ADC1-Pad4)*
X133570000Y-109450000D03*
G04 #@! TD*
G04 #@! TO.P,ADC2,4*
G04 #@! TO.N,Net-(ADC2-Pad4)*
X153270000Y-109280000D03*
G04 #@! TO.P,ADC2,3*
G04 #@! TO.N,Net-(ADC2-Pad3)*
X150730000Y-109280000D03*
G04 #@! TO.P,ADC2,2*
G04 #@! TO.N,Net-(ADC2-Pad2)*
X148190000Y-109280000D03*
D16*
G04 #@! TO.P,ADC2,1*
G04 #@! TO.N,Net-(ADC2-Pad1)*
X145650000Y-109280000D03*
G04 #@! TD*
D15*
G04 #@! TO.P,GPIO1,8*
G04 #@! TO.N,Net-(GPIO1-Pad8)*
X167080000Y-109170000D03*
G04 #@! TO.P,GPIO1,7*
G04 #@! TO.N,Net-(GPIO1-Pad7)*
X169620000Y-109170000D03*
G04 #@! TO.P,GPIO1,6*
G04 #@! TO.N,Net-(GPIO1-Pad6)*
X172160000Y-109170000D03*
G04 #@! TO.P,GPIO1,5*
G04 #@! TO.N,Net-(GPIO1-Pad5)*
X174700000Y-109170000D03*
G04 #@! TO.P,GPIO1,4*
G04 #@! TO.N,Net-(GPIO1-Pad4)*
X177240000Y-109170000D03*
G04 #@! TO.P,GPIO1,3*
G04 #@! TO.N,Net-(GPIO1-Pad3)*
X179780000Y-109170000D03*
G04 #@! TO.P,GPIO1,2*
G04 #@! TO.N,Net-(GPIO1-Pad2)*
X182320000Y-109170000D03*
D16*
G04 #@! TO.P,GPIO1,1*
G04 #@! TO.N,Net-(GPIO1-Pad1)*
X184860000Y-109170000D03*
G04 #@! TD*
D15*
G04 #@! TO.P,J1,10*
G04 #@! TO.N,GND*
X151160000Y-72460000D03*
G04 #@! TO.P,J1,9*
G04 #@! TO.N,BOOT0*
X151160000Y-75000000D03*
G04 #@! TO.P,J1,8*
G04 #@! TO.N,+3V3*
X148620000Y-72460000D03*
G04 #@! TO.P,J1,7*
X148620000Y-75000000D03*
G04 #@! TO.P,J1,6*
G04 #@! TO.N,SWCLK*
X146080000Y-72460000D03*
G04 #@! TO.P,J1,5*
G04 #@! TO.N,SWO*
X146080000Y-75000000D03*
G04 #@! TO.P,J1,4*
G04 #@! TO.N,GND*
X143540000Y-72460000D03*
G04 #@! TO.P,J1,3*
X143540000Y-75000000D03*
G04 #@! TO.P,J1,2*
G04 #@! TO.N,SWDIO*
X141000000Y-72460000D03*
D16*
G04 #@! TO.P,J1,1*
G04 #@! TO.N,NRST*
X141000000Y-75000000D03*
G04 #@! TD*
D17*
G04 #@! TO.P,U1,75*
G04 #@! TO.N,+3V3*
X161900000Y-86940000D03*
D18*
G04 #@! TO.P,U1,74*
G04 #@! TO.N,GND*
X161900000Y-87500000D03*
G04 #@! TO.P,U1,73*
G04 #@! TO.N,Net-(C7-Pad2)*
X161900000Y-88000000D03*
G04 #@! TO.P,U1,72*
G04 #@! TO.N,SWDIO*
X161900000Y-88500000D03*
G04 #@! TO.P,U1,71*
G04 #@! TO.N,Net-(U1-Pad71)*
X161900000Y-89000000D03*
G04 #@! TO.P,U1,70*
G04 #@! TO.N,Net-(U1-Pad70)*
X161900000Y-89500000D03*
G04 #@! TO.P,U1,69*
G04 #@! TO.N,Net-(U1-Pad69)*
X161900000Y-90000000D03*
G04 #@! TO.P,U1,68*
G04 #@! TO.N,Net-(U1-Pad68)*
X161900000Y-90500000D03*
G04 #@! TO.P,U1,67*
G04 #@! TO.N,Net-(U1-Pad67)*
X161900000Y-91000000D03*
G04 #@! TO.P,U1,66*
G04 #@! TO.N,Net-(U1-Pad66)*
X161900000Y-91500000D03*
G04 #@! TO.P,U1,65*
G04 #@! TO.N,BT_KEY*
X161900000Y-92000000D03*
G04 #@! TO.P,U1,64*
G04 #@! TO.N,UART_TX*
X161900000Y-92500000D03*
G04 #@! TO.P,U1,63*
G04 #@! TO.N,UART_RX*
X161900000Y-93000000D03*
G04 #@! TO.P,U1,62*
G04 #@! TO.N,Net-(GPIO1-Pad1)*
X161900000Y-93500000D03*
G04 #@! TO.P,U1,61*
G04 #@! TO.N,Net-(GPIO1-Pad2)*
X161900000Y-94000000D03*
G04 #@! TO.P,U1,60*
G04 #@! TO.N,Net-(GPIO1-Pad3)*
X161900000Y-94500000D03*
G04 #@! TO.P,U1,59*
G04 #@! TO.N,Net-(GPIO1-Pad4)*
X161900000Y-95000000D03*
G04 #@! TO.P,U1,58*
G04 #@! TO.N,Net-(GPIO1-Pad5)*
X161900000Y-95500000D03*
G04 #@! TO.P,U1,57*
G04 #@! TO.N,Net-(GPIO1-Pad6)*
X161900000Y-96000000D03*
G04 #@! TO.P,U1,56*
G04 #@! TO.N,Net-(GPIO1-Pad7)*
X161900000Y-96500000D03*
G04 #@! TO.P,U1,55*
G04 #@! TO.N,Net-(GPIO1-Pad8)*
X161900000Y-97000000D03*
G04 #@! TO.P,U1,54*
G04 #@! TO.N,Net-(U1-Pad54)*
X161900000Y-97500000D03*
G04 #@! TO.P,U1,53*
G04 #@! TO.N,Net-(U1-Pad53)*
X161900000Y-98000000D03*
G04 #@! TO.P,U1,52*
G04 #@! TO.N,Net-(U1-Pad52)*
X161900000Y-98500000D03*
D17*
G04 #@! TO.P,U1,51*
G04 #@! TO.N,Net-(U1-Pad51)*
X161900000Y-99060000D03*
G04 #@! TO.P,U1,1*
G04 #@! TO.N,Net-(U1-Pad1)*
X146100000Y-86940000D03*
D18*
G04 #@! TO.P,U1,2*
G04 #@! TO.N,Net-(U1-Pad2)*
X146100000Y-87500000D03*
G04 #@! TO.P,U1,3*
G04 #@! TO.N,Net-(U1-Pad3)*
X146100000Y-88000000D03*
G04 #@! TO.P,U1,4*
G04 #@! TO.N,Net-(U1-Pad4)*
X146100000Y-88500000D03*
G04 #@! TO.P,U1,5*
G04 #@! TO.N,Net-(U1-Pad5)*
X146100000Y-89000000D03*
G04 #@! TO.P,U1,6*
G04 #@! TO.N,+3V3*
X146100000Y-89500000D03*
G04 #@! TO.P,U1,7*
G04 #@! TO.N,Net-(U1-Pad7)*
X146100000Y-90000000D03*
G04 #@! TO.P,U1,8*
G04 #@! TO.N,Net-(C9-Pad1)*
X146100000Y-90500000D03*
G04 #@! TO.P,U1,9*
G04 #@! TO.N,Net-(C10-Pad1)*
X146100000Y-91000000D03*
G04 #@! TO.P,U1,10*
G04 #@! TO.N,GND*
X146100000Y-91500000D03*
G04 #@! TO.P,U1,11*
G04 #@! TO.N,+3V3*
X146100000Y-92000000D03*
G04 #@! TO.P,U1,12*
G04 #@! TO.N,Net-(C5-Pad2)*
X146100000Y-92500000D03*
G04 #@! TO.P,U1,13*
G04 #@! TO.N,Net-(C6-Pad2)*
X146100000Y-93000000D03*
G04 #@! TO.P,U1,14*
G04 #@! TO.N,NRST*
X146100000Y-93500000D03*
G04 #@! TO.P,U1,15*
G04 #@! TO.N,Net-(U1-Pad15)*
X146100000Y-94000000D03*
G04 #@! TO.P,U1,16*
G04 #@! TO.N,Net-(U1-Pad16)*
X146100000Y-94500000D03*
G04 #@! TO.P,U1,17*
G04 #@! TO.N,Net-(U1-Pad17)*
X146100000Y-95000000D03*
G04 #@! TO.P,U1,18*
G04 #@! TO.N,Net-(U1-Pad18)*
X146100000Y-95500000D03*
G04 #@! TO.P,U1,19*
G04 #@! TO.N,GND*
X146100000Y-96000000D03*
G04 #@! TO.P,U1,20*
G04 #@! TO.N,Net-(C3-Pad2)*
X146100000Y-96500000D03*
G04 #@! TO.P,U1,21*
G04 #@! TO.N,VREF*
X146100000Y-97000000D03*
G04 #@! TO.P,U1,22*
G04 #@! TO.N,Net-(ADC1-Pad1)*
X146100000Y-97500000D03*
G04 #@! TO.P,U1,23*
G04 #@! TO.N,Net-(ADC1-Pad2)*
X146100000Y-98000000D03*
G04 #@! TO.P,U1,24*
G04 #@! TO.N,Net-(ADC1-Pad3)*
X146100000Y-98500000D03*
D17*
G04 #@! TO.P,U1,25*
G04 #@! TO.N,Net-(ADC1-Pad4)*
X146100000Y-99060000D03*
D19*
G04 #@! TO.P,U1,26*
G04 #@! TO.N,GND*
X147940000Y-100900000D03*
D20*
G04 #@! TO.P,U1,27*
G04 #@! TO.N,+3V3*
X148500000Y-100900000D03*
G04 #@! TO.P,U1,28*
G04 #@! TO.N,Net-(DAC1-Pad1)*
X149000000Y-100900000D03*
G04 #@! TO.P,U1,29*
G04 #@! TO.N,Net-(DAC1-Pad2)*
X149500000Y-100900000D03*
G04 #@! TO.P,U1,30*
G04 #@! TO.N,Net-(ADC2-Pad1)*
X150000000Y-100900000D03*
G04 #@! TO.P,U1,31*
G04 #@! TO.N,Net-(ADC2-Pad2)*
X150500000Y-100900000D03*
G04 #@! TO.P,U1,32*
G04 #@! TO.N,Net-(U1-Pad32)*
X151000000Y-100900000D03*
G04 #@! TO.P,U1,33*
G04 #@! TO.N,Net-(U1-Pad33)*
X151500000Y-100900000D03*
G04 #@! TO.P,U1,34*
G04 #@! TO.N,Net-(ADC2-Pad3)*
X152000000Y-100900000D03*
G04 #@! TO.P,U1,35*
G04 #@! TO.N,Net-(ADC2-Pad4)*
X152500000Y-100900000D03*
G04 #@! TO.P,U1,36*
G04 #@! TO.N,Net-(U1-Pad36)*
X153000000Y-100900000D03*
G04 #@! TO.P,U1,37*
G04 #@! TO.N,Net-(U1-Pad37)*
X153500000Y-100900000D03*
G04 #@! TO.P,U1,38*
G04 #@! TO.N,Net-(U1-Pad38)*
X154000000Y-100900000D03*
G04 #@! TO.P,U1,39*
G04 #@! TO.N,Net-(U1-Pad39)*
X154500000Y-100900000D03*
G04 #@! TO.P,U1,40*
G04 #@! TO.N,Net-(U1-Pad40)*
X155000000Y-100900000D03*
G04 #@! TO.P,U1,41*
G04 #@! TO.N,Net-(U1-Pad41)*
X155500000Y-100900000D03*
G04 #@! TO.P,U1,42*
G04 #@! TO.N,DIGITAL_ENABLE*
X156000000Y-100900000D03*
G04 #@! TO.P,U1,43*
G04 #@! TO.N,Net-(U1-Pad43)*
X156500000Y-100900000D03*
G04 #@! TO.P,U1,44*
G04 #@! TO.N,Net-(U1-Pad44)*
X157000000Y-100900000D03*
G04 #@! TO.P,U1,45*
G04 #@! TO.N,Net-(U1-Pad45)*
X157500000Y-100900000D03*
G04 #@! TO.P,U1,46*
G04 #@! TO.N,Net-(I2C1-Pad1)*
X158000000Y-100900000D03*
G04 #@! TO.P,U1,47*
G04 #@! TO.N,Net-(I2C1-Pad2)*
X158500000Y-100900000D03*
G04 #@! TO.P,U1,48*
G04 #@! TO.N,Net-(C8-Pad2)*
X159000000Y-100900000D03*
G04 #@! TO.P,U1,49*
G04 #@! TO.N,GND*
X159500000Y-100900000D03*
D19*
G04 #@! TO.P,U1,50*
G04 #@! TO.N,+3V3*
X160060000Y-100900000D03*
G04 #@! TO.P,U1,76*
G04 #@! TO.N,SWCLK*
X160060000Y-85100000D03*
D20*
G04 #@! TO.P,U1,77*
G04 #@! TO.N,Net-(U1-Pad77)*
X159500000Y-85100000D03*
G04 #@! TO.P,U1,78*
G04 #@! TO.N,Net-(U1-Pad78)*
X159000000Y-85100000D03*
G04 #@! TO.P,U1,79*
G04 #@! TO.N,Net-(U1-Pad79)*
X158500000Y-85100000D03*
G04 #@! TO.P,U1,80*
G04 #@! TO.N,Net-(U1-Pad80)*
X158000000Y-85100000D03*
G04 #@! TO.P,U1,81*
G04 #@! TO.N,Net-(R7-Pad1)*
X157500000Y-85100000D03*
G04 #@! TO.P,U1,82*
G04 #@! TO.N,Net-(R8-Pad1)*
X157000000Y-85100000D03*
G04 #@! TO.P,U1,83*
G04 #@! TO.N,Net-(R9-Pad1)*
X156500000Y-85100000D03*
G04 #@! TO.P,U1,84*
G04 #@! TO.N,Net-(R10-Pad1)*
X156000000Y-85100000D03*
G04 #@! TO.P,U1,85*
G04 #@! TO.N,Net-(R11-Pad1)*
X155500000Y-85100000D03*
G04 #@! TO.P,U1,86*
G04 #@! TO.N,Net-(U1-Pad86)*
X155000000Y-85100000D03*
G04 #@! TO.P,U1,87*
G04 #@! TO.N,Net-(U1-Pad87)*
X154500000Y-85100000D03*
G04 #@! TO.P,U1,88*
G04 #@! TO.N,Net-(U1-Pad88)*
X154000000Y-85100000D03*
G04 #@! TO.P,U1,89*
G04 #@! TO.N,SWO*
X153500000Y-85100000D03*
G04 #@! TO.P,U1,90*
G04 #@! TO.N,Net-(U1-Pad90)*
X153000000Y-85100000D03*
G04 #@! TO.P,U1,91*
G04 #@! TO.N,Net-(U1-Pad91)*
X152500000Y-85100000D03*
G04 #@! TO.P,U1,92*
G04 #@! TO.N,Net-(U1-Pad92)*
X152000000Y-85100000D03*
G04 #@! TO.P,U1,93*
G04 #@! TO.N,Net-(U1-Pad93)*
X151500000Y-85100000D03*
G04 #@! TO.P,U1,94*
G04 #@! TO.N,BOOT0*
X151000000Y-85100000D03*
G04 #@! TO.P,U1,95*
G04 #@! TO.N,Net-(U1-Pad95)*
X150500000Y-85100000D03*
G04 #@! TO.P,U1,96*
G04 #@! TO.N,Net-(U1-Pad96)*
X150000000Y-85100000D03*
G04 #@! TO.P,U1,97*
G04 #@! TO.N,Net-(U1-Pad97)*
X149500000Y-85100000D03*
G04 #@! TO.P,U1,98*
G04 #@! TO.N,Net-(U1-Pad98)*
X149000000Y-85100000D03*
G04 #@! TO.P,U1,99*
G04 #@! TO.N,GND*
X148500000Y-85100000D03*
D19*
G04 #@! TO.P,U1,100*
G04 #@! TO.N,+3V3*
X147940000Y-85100000D03*
G04 #@! TD*
D21*
G04 #@! TO.P,C8,1*
G04 #@! TO.N,GND*
X159000000Y-104550000D03*
G04 #@! TO.P,C8,2*
G04 #@! TO.N,Net-(C8-Pad2)*
X159000000Y-103450000D03*
G04 #@! TD*
G04 #@! TO.P,C17,2*
G04 #@! TO.N,+3V3*
X165000000Y-85450000D03*
G04 #@! TO.P,C17,1*
G04 #@! TO.N,GND*
X165000000Y-86550000D03*
G04 #@! TD*
G04 #@! TO.P,C16,1*
G04 #@! TO.N,GND*
X143320000Y-91260000D03*
G04 #@! TO.P,C16,2*
G04 #@! TO.N,+3V3*
X143320000Y-92360000D03*
G04 #@! TD*
D22*
G04 #@! TO.P,C15,2*
G04 #@! TO.N,+3V3*
X133765000Y-73005000D03*
G04 #@! TO.P,C15,1*
G04 #@! TO.N,GND*
X134865000Y-73005000D03*
G04 #@! TD*
G04 #@! TO.P,C14,1*
G04 #@! TO.N,GND*
X134865000Y-76045000D03*
G04 #@! TO.P,C14,2*
G04 #@! TO.N,+3V3*
X133765000Y-76045000D03*
G04 #@! TD*
G04 #@! TO.P,C13,2*
G04 #@! TO.N,+3V3*
X161550000Y-104000000D03*
G04 #@! TO.P,C13,1*
G04 #@! TO.N,GND*
X160450000Y-104000000D03*
G04 #@! TD*
G04 #@! TO.P,C12,1*
G04 #@! TO.N,GND*
X134865000Y-78855000D03*
G04 #@! TO.P,C12,2*
G04 #@! TO.N,+3V3*
X133765000Y-78855000D03*
G04 #@! TD*
G04 #@! TO.P,C11,2*
G04 #@! TO.N,+3V3*
X147470000Y-82310000D03*
G04 #@! TO.P,C11,1*
G04 #@! TO.N,GND*
X148570000Y-82310000D03*
G04 #@! TD*
G04 #@! TO.P,C18,1*
G04 #@! TO.N,GND*
X145980000Y-103820000D03*
G04 #@! TO.P,C18,2*
G04 #@! TO.N,+3V3*
X147080000Y-103820000D03*
G04 #@! TD*
G04 #@! TO.P,C7,2*
G04 #@! TO.N,Net-(C7-Pad2)*
X164450000Y-88000000D03*
G04 #@! TO.P,C7,1*
G04 #@! TO.N,GND*
X165550000Y-88000000D03*
G04 #@! TD*
G04 #@! TO.P,C6,1*
G04 #@! TO.N,GND*
X133450000Y-93500000D03*
G04 #@! TO.P,C6,2*
G04 #@! TO.N,Net-(C6-Pad2)*
X134550000Y-93500000D03*
G04 #@! TD*
G04 #@! TO.P,C5,2*
G04 #@! TO.N,Net-(C5-Pad2)*
X134550000Y-91500000D03*
G04 #@! TO.P,C5,1*
G04 #@! TO.N,GND*
X133450000Y-91500000D03*
G04 #@! TD*
D21*
G04 #@! TO.P,C4,1*
G04 #@! TO.N,GND*
X139000000Y-95950000D03*
G04 #@! TO.P,C4,2*
G04 #@! TO.N,Net-(C3-Pad2)*
X139000000Y-97050000D03*
G04 #@! TD*
G04 #@! TO.P,C3,2*
G04 #@! TO.N,Net-(C3-Pad2)*
X137000000Y-97050000D03*
G04 #@! TO.P,C3,1*
G04 #@! TO.N,GND*
X137000000Y-95950000D03*
G04 #@! TD*
G04 #@! TO.P,C2,1*
G04 #@! TO.N,VREF*
X137000000Y-98450000D03*
G04 #@! TO.P,C2,2*
G04 #@! TO.N,GND*
X137000000Y-99550000D03*
G04 #@! TD*
G04 #@! TO.P,C1,2*
G04 #@! TO.N,GND*
X139000000Y-99550000D03*
G04 #@! TO.P,C1,1*
G04 #@! TO.N,VREF*
X139000000Y-98450000D03*
G04 #@! TD*
D22*
G04 #@! TO.P,C9,1*
G04 #@! TO.N,Net-(C9-Pad1)*
X140500000Y-85500000D03*
G04 #@! TO.P,C9,2*
G04 #@! TO.N,GND*
X139400000Y-85500000D03*
G04 #@! TD*
D21*
G04 #@! TO.P,C10,2*
G04 #@! TO.N,GND*
X138750000Y-87400000D03*
G04 #@! TO.P,C10,1*
G04 #@! TO.N,Net-(C10-Pad1)*
X138750000Y-88500000D03*
G04 #@! TD*
D23*
G04 #@! TO.P,Y1,4*
G04 #@! TO.N,N/C*
X138700000Y-91625000D03*
G04 #@! TO.P,Y1,3*
X138700000Y-93375000D03*
G04 #@! TO.P,Y1,2*
G04 #@! TO.N,Net-(C6-Pad2)*
X137300000Y-93375000D03*
G04 #@! TO.P,Y1,1*
G04 #@! TO.N,Net-(C5-Pad2)*
X137300000Y-91625000D03*
G04 #@! TD*
D14*
G04 #@! TO.P,L1,2*
G04 #@! TO.N,VREF*
X132980000Y-96980000D03*
G04 #@! TO.P,L1,1*
G04 #@! TO.N,+3V3*
X131080000Y-96980000D03*
G04 #@! TD*
D11*
G04 #@! TO.P,D1,2*
G04 #@! TO.N,Net-(D1-Pad2)*
X187220000Y-94380000D03*
G04 #@! TO.P,D1,1*
G04 #@! TO.N,GND*
X187220000Y-96580000D03*
G04 #@! TD*
G04 #@! TO.P,D2,1*
G04 #@! TO.N,GND*
X183850000Y-96400000D03*
G04 #@! TO.P,D2,2*
G04 #@! TO.N,Net-(D2-Pad2)*
X183850000Y-94200000D03*
G04 #@! TD*
D13*
G04 #@! TO.P,R5,1*
G04 #@! TO.N,+3V3*
X141020000Y-78680000D03*
G04 #@! TO.P,R5,2*
G04 #@! TO.N,NRST*
X141020000Y-77780000D03*
G04 #@! TD*
D12*
G04 #@! TO.P,R6,2*
G04 #@! TO.N,DIGITAL_ENABLE*
X172470000Y-94180000D03*
G04 #@! TO.P,R6,1*
G04 #@! TO.N,Net-(Q1-Pad1)*
X173370000Y-94180000D03*
G04 #@! TD*
G04 #@! TO.P,R1,1*
G04 #@! TO.N,Net-(C3-Pad2)*
X135450000Y-97000000D03*
G04 #@! TO.P,R1,2*
G04 #@! TO.N,VREF*
X134550000Y-97000000D03*
G04 #@! TD*
D13*
G04 #@! TO.P,R4,2*
G04 #@! TO.N,BOOT0*
X155160000Y-74920000D03*
G04 #@! TO.P,R4,1*
G04 #@! TO.N,Net-(R2-Pad1)*
X155160000Y-75820000D03*
G04 #@! TD*
D24*
G04 #@! TO.P,Q1,3*
G04 #@! TO.N,GNDPWR*
X177170000Y-95150000D03*
G04 #@! TO.P,Q1,2*
G04 #@! TO.N,GND*
X175170000Y-96100000D03*
G04 #@! TO.P,Q1,1*
G04 #@! TO.N,Net-(Q1-Pad1)*
X175170000Y-94200000D03*
G04 #@! TD*
D25*
G04 #@! TO.P,U2,17*
G04 #@! TO.N,Net-(U2-Pad17)*
X181670000Y-90410000D03*
G04 #@! TO.P,U2,14*
G04 #@! TO.N,GNDPWR*
X177170000Y-90410000D03*
G04 #@! TO.P,U2,15*
G04 #@! TO.N,Net-(U2-Pad15)*
X178670000Y-90410000D03*
G04 #@! TO.P,U2,16*
G04 #@! TO.N,Net-(U2-Pad16)*
X180170000Y-90410000D03*
G04 #@! TO.P,U2,18*
G04 #@! TO.N,Net-(U2-Pad18)*
X183170000Y-90410000D03*
G04 #@! TO.P,U2,19*
G04 #@! TO.N,Net-(U2-Pad19)*
X184670000Y-90410000D03*
G04 #@! TO.P,U2,20*
G04 #@! TO.N,Net-(U2-Pad20)*
X186170000Y-90410000D03*
G04 #@! TO.P,U2,21*
G04 #@! TO.N,GNDPWR*
X187670000Y-90410000D03*
D26*
G04 #@! TO.P,U2,22*
X188920000Y-88610000D03*
G04 #@! TO.P,U2,23*
G04 #@! TO.N,Net-(U2-Pad23)*
X188920000Y-87110000D03*
G04 #@! TO.P,U2,24*
G04 #@! TO.N,Net-(U2-Pad24)*
X188920000Y-85610000D03*
G04 #@! TO.P,U2,25*
G04 #@! TO.N,Net-(U2-Pad25)*
X188920000Y-84110000D03*
G04 #@! TO.P,U2,26*
G04 #@! TO.N,Net-(U2-Pad26)*
X188920000Y-82610000D03*
G04 #@! TO.P,U2,27*
G04 #@! TO.N,Net-(U2-Pad27)*
X188920000Y-81110000D03*
G04 #@! TO.P,U2,28*
G04 #@! TO.N,Net-(U2-Pad28)*
X188920000Y-79610000D03*
G04 #@! TO.P,U2,29*
G04 #@! TO.N,Net-(U2-Pad29)*
X188920000Y-78110000D03*
G04 #@! TO.P,U2,30*
G04 #@! TO.N,Net-(U2-Pad30)*
X188920000Y-76610000D03*
G04 #@! TO.P,U2,31*
G04 #@! TO.N,Net-(D2-Pad2)*
X188920000Y-75110000D03*
G04 #@! TO.P,U2,32*
G04 #@! TO.N,Net-(D1-Pad2)*
X188920000Y-73610000D03*
G04 #@! TO.P,U2,33*
G04 #@! TO.N,Net-(U2-Pad33)*
X188920000Y-72110000D03*
G04 #@! TO.P,U2,34*
G04 #@! TO.N,BT_KEY*
X188920000Y-70610000D03*
G04 #@! TO.P,U2,1*
G04 #@! TO.N,UART_TX*
X175920000Y-70610000D03*
G04 #@! TO.P,U2,2*
G04 #@! TO.N,UART_RX*
X175920000Y-72110000D03*
G04 #@! TO.P,U2,3*
G04 #@! TO.N,Net-(U2-Pad3)*
X175920000Y-73610000D03*
G04 #@! TO.P,U2,4*
G04 #@! TO.N,Net-(U2-Pad4)*
X175920000Y-75110000D03*
G04 #@! TO.P,U2,5*
G04 #@! TO.N,Net-(U2-Pad5)*
X175920000Y-76610000D03*
G04 #@! TO.P,U2,6*
G04 #@! TO.N,Net-(U2-Pad6)*
X175920000Y-78110000D03*
G04 #@! TO.P,U2,7*
G04 #@! TO.N,Net-(U2-Pad7)*
X175920000Y-79610000D03*
G04 #@! TO.P,U2,8*
G04 #@! TO.N,Net-(U2-Pad8)*
X175920000Y-81110000D03*
G04 #@! TO.P,U2,9*
G04 #@! TO.N,Net-(U2-Pad9)*
X175920000Y-82610000D03*
G04 #@! TO.P,U2,10*
G04 #@! TO.N,Net-(U2-Pad10)*
X175920000Y-84110000D03*
G04 #@! TO.P,U2,11*
G04 #@! TO.N,Net-(U2-Pad11)*
X175920000Y-85610000D03*
G04 #@! TO.P,U2,12*
G04 #@! TO.N,+3V3*
X175920000Y-87110000D03*
G04 #@! TO.P,U2,13*
G04 #@! TO.N,GNDPWR*
X175920000Y-88610000D03*
G04 #@! TD*
D27*
G04 #@! TO.N,Net-(D2-Pad2)*
X181250000Y-94000000D03*
X181250000Y-79500000D03*
G04 #@! TO.N,Net-(D1-Pad2)*
X186000000Y-92500000D03*
X186750000Y-73750000D03*
G04 #@! TO.N,BT_KEY*
X186800000Y-70710000D03*
X165630000Y-89780000D03*
G04 #@! TO.N,+3V3*
X146150000Y-82310000D03*
X148700000Y-89500000D03*
X148700000Y-91950000D03*
X149170000Y-98870000D03*
X159200000Y-98670000D03*
X133765000Y-77315000D03*
X140860000Y-79550000D03*
X130980000Y-95010000D03*
X165000000Y-84250000D03*
G04 #@! TO.N,GND*
X142120000Y-91230000D03*
X136525000Y-76495000D03*
X189250000Y-96500000D03*
X175250000Y-98000000D03*
X140250000Y-95500000D03*
X145980000Y-102940000D03*
X160250000Y-105250000D03*
X166500000Y-87250000D03*
X172250000Y-70750000D03*
X136250000Y-99750000D03*
G04 #@! TO.N,BOOT0*
X151180000Y-82890000D03*
G04 #@! TO.N,DIGITAL_ENABLE*
X170910000Y-94200000D03*
X159370000Y-94850000D03*
G04 #@! TO.N,NRST*
X142750000Y-78000000D03*
X148500000Y-87500000D03*
G04 #@! TO.N,SWCLK*
X159750000Y-87000000D03*
X154500000Y-71250000D03*
G04 #@! TO.N,SWDIO*
X159570000Y-88450000D03*
X144230000Y-85030000D03*
G04 #@! TD*
D28*
G04 #@! TO.N,GNDPWR*
X177170000Y-90410000D02*
X177170000Y-95150000D01*
X175920000Y-88610000D02*
X175920000Y-89160000D01*
X175920000Y-89160000D02*
X177170000Y-90410000D01*
X175920000Y-88610000D02*
X188920000Y-88610000D01*
X188920000Y-88610000D02*
X188920000Y-89160000D01*
X188920000Y-89160000D02*
X187670000Y-90410000D01*
X171150000Y-88490000D02*
X175800000Y-88490000D01*
X175800000Y-88490000D02*
X175920000Y-88610000D01*
G04 #@! TO.N,Net-(D2-Pad2)*
X188920000Y-75110000D02*
X185640000Y-75110000D01*
X181450000Y-94200000D02*
X183850000Y-94200000D01*
X181250000Y-94000000D02*
X181450000Y-94200000D01*
X185640000Y-75110000D02*
X181250000Y-79500000D01*
G04 #@! TO.N,Net-(D1-Pad2)*
X188920000Y-73610000D02*
X186890000Y-73610000D01*
X187220000Y-93720000D02*
X187220000Y-94380000D01*
X186000000Y-92500000D02*
X187220000Y-93720000D01*
X186890000Y-73610000D02*
X186750000Y-73750000D01*
G04 #@! TO.N,BT_KEY*
X161900000Y-92000000D02*
X163410000Y-92000000D01*
X186900000Y-70610000D02*
X188920000Y-70610000D01*
X186800000Y-70710000D02*
X186900000Y-70610000D01*
X163410000Y-92000000D02*
X165630000Y-89780000D01*
G04 #@! TO.N,UART_TX*
X161900000Y-92500000D02*
X166250000Y-92500000D01*
X174890000Y-70610000D02*
X175920000Y-70610000D01*
X173250000Y-72250000D02*
X174890000Y-70610000D01*
X173250000Y-78000000D02*
X173250000Y-72250000D01*
X168250000Y-83000000D02*
X173250000Y-78000000D01*
X168250000Y-90500000D02*
X168250000Y-83000000D01*
X166250000Y-92500000D02*
X168250000Y-90500000D01*
G04 #@! TO.N,UART_RX*
X161900000Y-93000000D02*
X166750000Y-93000000D01*
X174890000Y-72110000D02*
X175920000Y-72110000D01*
X174000000Y-73000000D02*
X174890000Y-72110000D01*
X174000000Y-78250000D02*
X174000000Y-73000000D01*
X169000000Y-83250000D02*
X174000000Y-78250000D01*
X169000000Y-90750000D02*
X169000000Y-83250000D01*
X166750000Y-93000000D02*
X169000000Y-90750000D01*
G04 #@! TO.N,+3V3*
X146100000Y-92000000D02*
X144580000Y-92000000D01*
X144580000Y-92000000D02*
X144220000Y-92360000D01*
X144220000Y-92360000D02*
X143320000Y-92360000D01*
X147940000Y-85100000D02*
X147940000Y-83350000D01*
X147470000Y-82880000D02*
X147470000Y-82310000D01*
X147940000Y-83350000D02*
X147470000Y-82880000D01*
X153220000Y-78550000D02*
X152170000Y-78550000D01*
X152170000Y-78550000D02*
X148620000Y-75000000D01*
X148500000Y-100900000D02*
X148500000Y-102400000D01*
X148500000Y-102400000D02*
X147080000Y-103820000D01*
X160060000Y-100900000D02*
X160060000Y-101950000D01*
X161550000Y-103440000D02*
X161550000Y-104000000D01*
X160060000Y-101950000D02*
X161550000Y-103440000D01*
X175920000Y-87110000D02*
X173650000Y-87110000D01*
X173650000Y-87110000D02*
X172490000Y-85950000D01*
X172490000Y-85950000D02*
X171150000Y-85950000D01*
X161900000Y-86940000D02*
X163110000Y-86940000D01*
X164600000Y-85450000D02*
X165000000Y-85450000D01*
X163110000Y-86940000D02*
X164600000Y-85450000D01*
X147470000Y-82310000D02*
X146150000Y-82310000D01*
X146100000Y-89500000D02*
X148700000Y-89500000D01*
X146100000Y-92000000D02*
X148650000Y-92000000D01*
X148650000Y-92000000D02*
X148700000Y-91950000D01*
X148500000Y-100900000D02*
X148500000Y-99540000D01*
X148500000Y-99540000D02*
X149170000Y-98870000D01*
X160060000Y-100900000D02*
X160060000Y-99530000D01*
X160060000Y-99530000D02*
X159200000Y-98670000D01*
X133765000Y-73005000D02*
X133765000Y-77315000D01*
X133765000Y-77315000D02*
X133765000Y-78855000D01*
X141020000Y-78680000D02*
X141020000Y-79390000D01*
X141020000Y-79390000D02*
X140860000Y-79550000D01*
X131080000Y-96980000D02*
X131080000Y-95110000D01*
X131080000Y-95110000D02*
X130980000Y-95010000D01*
X165000000Y-85450000D02*
X165000000Y-84250000D01*
G04 #@! TO.N,GND*
X146100000Y-91500000D02*
X144260000Y-91500000D01*
X144020000Y-91260000D02*
X143320000Y-91260000D01*
X144260000Y-91500000D02*
X144020000Y-91260000D01*
X143320000Y-91260000D02*
X142150000Y-91260000D01*
X142150000Y-91260000D02*
X142120000Y-91230000D01*
X147940000Y-100900000D02*
X147940000Y-100980000D01*
X145980000Y-103000000D02*
X145980000Y-103820000D01*
X147940000Y-100980000D02*
X145980000Y-102940000D01*
X159500000Y-100900000D02*
X159500000Y-102290000D01*
X160450000Y-103240000D02*
X160450000Y-104000000D01*
X159500000Y-102290000D02*
X160450000Y-103240000D01*
X161900000Y-87500000D02*
X163540000Y-87500000D01*
X164490000Y-86550000D02*
X165000000Y-86550000D01*
X163540000Y-87500000D02*
X164490000Y-86550000D01*
X134865000Y-76045000D02*
X136075000Y-76045000D01*
X136075000Y-76045000D02*
X136525000Y-76495000D01*
X183850000Y-96400000D02*
X187040000Y-96400000D01*
X187040000Y-96400000D02*
X187140000Y-96500000D01*
X187140000Y-96500000D02*
X189250000Y-96500000D01*
X175170000Y-96100000D02*
X175170000Y-97920000D01*
X175170000Y-97920000D02*
X175250000Y-98000000D01*
X137000000Y-99550000D02*
X136450000Y-99550000D01*
X136450000Y-99550000D02*
X136250000Y-99750000D01*
X139000000Y-95950000D02*
X139800000Y-95950000D01*
X139800000Y-95950000D02*
X140250000Y-95500000D01*
X145980000Y-103000000D02*
X145980000Y-102940000D01*
X160450000Y-104000000D02*
X160450000Y-105050000D01*
X159550000Y-104550000D02*
X160250000Y-105250000D01*
X159550000Y-104550000D02*
X159000000Y-104550000D01*
X160450000Y-105050000D02*
X160250000Y-105250000D01*
X165550000Y-88000000D02*
X165550000Y-87100000D01*
X165550000Y-87100000D02*
X165000000Y-86550000D01*
X165550000Y-88000000D02*
X165750000Y-88000000D01*
X165750000Y-88000000D02*
X166500000Y-87250000D01*
X159500000Y-70900000D02*
X169750000Y-70900000D01*
X169750000Y-70900000D02*
X172100000Y-70900000D01*
X172100000Y-70900000D02*
X172250000Y-70750000D01*
X146100000Y-96000000D02*
X144750000Y-96000000D01*
X144750000Y-96000000D02*
X144250000Y-95500000D01*
X148500000Y-85100000D02*
X148500000Y-82380000D01*
X148500000Y-82380000D02*
X148570000Y-82310000D01*
G04 #@! TO.N,Net-(Q1-Pad1)*
X175150000Y-94180000D02*
X175170000Y-94200000D01*
X173370000Y-94180000D02*
X175150000Y-94180000D01*
G04 #@! TO.N,BOOT0*
X151160000Y-75000000D02*
X155080000Y-75000000D01*
X155080000Y-75000000D02*
X155160000Y-74920000D01*
X151000000Y-83070000D02*
X151180000Y-82890000D01*
X151000000Y-83070000D02*
X151000000Y-85100000D01*
G04 #@! TO.N,Net-(R2-Pad1)*
X155160000Y-75820000D02*
X155160000Y-78510000D01*
X155160000Y-78510000D02*
X155120000Y-78550000D01*
X155120000Y-78550000D02*
X157010000Y-78550000D01*
X157010000Y-78550000D02*
X157040000Y-78520000D01*
G04 #@! TO.N,Net-(C3-Pad2)*
X146100000Y-96500000D02*
X140710000Y-96500000D01*
X140160000Y-97050000D02*
X139000000Y-97050000D01*
X140710000Y-96500000D02*
X140160000Y-97050000D01*
X139000000Y-97050000D02*
X135500000Y-97050000D01*
X135500000Y-97050000D02*
X135450000Y-97000000D01*
G04 #@! TO.N,VREF*
X139000000Y-98450000D02*
X136790000Y-98450000D01*
X136790000Y-98450000D02*
X137000000Y-98450000D01*
X137000000Y-98450000D02*
X134950000Y-98450000D01*
X134550000Y-98050000D02*
X134550000Y-97000000D01*
X134950000Y-98450000D02*
X134550000Y-98050000D01*
X134550000Y-97000000D02*
X133000000Y-97000000D01*
X133000000Y-97000000D02*
X132980000Y-96980000D01*
X146100000Y-97000000D02*
X140900000Y-97000000D01*
X139450000Y-98450000D02*
X139000000Y-98450000D01*
X140900000Y-97000000D02*
X139450000Y-98450000D01*
G04 #@! TO.N,DIGITAL_ENABLE*
X156000000Y-100900000D02*
X156000000Y-98220000D01*
X170930000Y-94180000D02*
X172470000Y-94180000D01*
X170910000Y-94200000D02*
X170930000Y-94180000D01*
X156000000Y-98220000D02*
X159370000Y-94850000D01*
G04 #@! TO.N,NRST*
X141020000Y-77780000D02*
X141020000Y-75020000D01*
X141020000Y-75020000D02*
X141000000Y-75000000D01*
X146100000Y-93500000D02*
X148750000Y-93500000D01*
X142530000Y-77780000D02*
X141020000Y-77780000D01*
X142750000Y-78000000D02*
X142530000Y-77780000D01*
X148750000Y-93500000D02*
X150000000Y-92250000D01*
X150000000Y-92250000D02*
X150000000Y-88250000D01*
X150000000Y-88250000D02*
X149250000Y-87500000D01*
X149250000Y-87500000D02*
X148500000Y-87500000D01*
G04 #@! TO.N,SWCLK*
X160060000Y-85100000D02*
X160060000Y-86690000D01*
X160060000Y-86690000D02*
X159750000Y-87000000D01*
X154500000Y-71250000D02*
X153750000Y-70500000D01*
X153750000Y-70500000D02*
X148040000Y-70500000D01*
X148040000Y-70500000D02*
X146080000Y-72460000D01*
G04 #@! TO.N,SWO*
X146080000Y-75000000D02*
X146080000Y-75750000D01*
X153500000Y-83170000D02*
X153500000Y-85100000D01*
X146080000Y-75750000D02*
X153500000Y-83170000D01*
G04 #@! TO.N,SWDIO*
X141000000Y-72460000D02*
X139960000Y-72460000D01*
X159620000Y-88500000D02*
X161900000Y-88500000D01*
X159570000Y-88450000D02*
X159620000Y-88500000D01*
X144230000Y-85020000D02*
X144230000Y-85030000D01*
X138750000Y-79540000D02*
X144230000Y-85020000D01*
X138750000Y-73670000D02*
X138750000Y-79540000D01*
X139960000Y-72460000D02*
X138750000Y-73670000D01*
G04 #@! TO.N,Net-(GPIO1-Pad8)*
X161900000Y-97000000D02*
X164200000Y-97000000D01*
X167080000Y-99880000D02*
X167080000Y-109170000D01*
X164200000Y-97000000D02*
X167080000Y-99880000D01*
G04 #@! TO.N,Net-(GPIO1-Pad7)*
X161900000Y-96500000D02*
X164360000Y-96500000D01*
X169620000Y-101760000D02*
X169620000Y-109170000D01*
X164360000Y-96500000D02*
X169620000Y-101760000D01*
G04 #@! TO.N,Net-(GPIO1-Pad6)*
X161900000Y-96000000D02*
X164540000Y-96000000D01*
X172160000Y-103620000D02*
X172160000Y-109170000D01*
X164540000Y-96000000D02*
X172160000Y-103620000D01*
G04 #@! TO.N,Net-(GPIO1-Pad5)*
X161900000Y-95500000D02*
X164740000Y-95500000D01*
X174700000Y-105460000D02*
X174700000Y-109170000D01*
X164740000Y-95500000D02*
X174700000Y-105460000D01*
G04 #@! TO.N,Net-(GPIO1-Pad4)*
X161900000Y-95000000D02*
X165030000Y-95000000D01*
X177240000Y-107210000D02*
X177240000Y-109170000D01*
X165030000Y-95000000D02*
X177240000Y-107210000D01*
G04 #@! TO.N,Net-(GPIO1-Pad3)*
X161900000Y-94500000D02*
X165300000Y-94500000D01*
X179780000Y-108980000D02*
X179780000Y-109170000D01*
X165300000Y-94500000D02*
X179780000Y-108980000D01*
G04 #@! TO.N,Net-(GPIO1-Pad2)*
X161900000Y-94000000D02*
X165590000Y-94000000D01*
X180100000Y-106950000D02*
X182320000Y-109170000D01*
X178540000Y-106950000D02*
X180100000Y-106950000D01*
X165590000Y-94000000D02*
X178540000Y-106950000D01*
G04 #@! TO.N,Net-(GPIO1-Pad1)*
X161900000Y-93500000D02*
X165810000Y-93500000D01*
X182050000Y-106360000D02*
X184860000Y-109170000D01*
X178670000Y-106360000D02*
X182050000Y-106360000D01*
X165810000Y-93500000D02*
X178670000Y-106360000D01*
G04 #@! TO.N,Net-(ADC2-Pad4)*
X152500000Y-100900000D02*
X152500000Y-104850000D01*
X153270000Y-105620000D02*
X153270000Y-109280000D01*
X152500000Y-104850000D02*
X153270000Y-105620000D01*
G04 #@! TO.N,Net-(ADC2-Pad3)*
X152000000Y-100900000D02*
X152000000Y-104930000D01*
X150730000Y-106200000D02*
X150730000Y-109280000D01*
X152000000Y-104930000D02*
X150730000Y-106200000D01*
G04 #@! TO.N,Net-(ADC2-Pad2)*
X150500000Y-100900000D02*
X150500000Y-104100000D01*
X148190000Y-106410000D02*
X148190000Y-109280000D01*
X150500000Y-104100000D02*
X148190000Y-106410000D01*
G04 #@! TO.N,Net-(ADC2-Pad1)*
X150000000Y-100900000D02*
X150000000Y-103840000D01*
X145650000Y-108190000D02*
X145650000Y-109280000D01*
X150000000Y-103840000D02*
X145650000Y-108190000D01*
G04 #@! TO.N,Net-(ADC1-Pad1)*
X146100000Y-97500000D02*
X142630000Y-97500000D01*
X138300000Y-101830000D02*
X133570000Y-101830000D01*
X142630000Y-97500000D02*
X138300000Y-101830000D01*
G04 #@! TO.N,Net-(ADC1-Pad2)*
X146100000Y-98000000D02*
X142830000Y-98000000D01*
X136460000Y-104370000D02*
X133570000Y-104370000D01*
X142830000Y-98000000D02*
X136460000Y-104370000D01*
G04 #@! TO.N,Net-(ADC1-Pad3)*
X146100000Y-98500000D02*
X143070000Y-98500000D01*
X134660000Y-106910000D02*
X133570000Y-106910000D01*
X143070000Y-98500000D02*
X134660000Y-106910000D01*
G04 #@! TO.N,Net-(ADC1-Pad4)*
X146100000Y-99060000D02*
X143230000Y-99060000D01*
X134990000Y-108030000D02*
X133570000Y-109450000D01*
X134990000Y-107300000D02*
X134990000Y-108030000D01*
X143230000Y-99060000D02*
X134990000Y-107300000D01*
G04 #@! TO.N,Net-(I2C1-Pad2)*
X158500000Y-100900000D02*
X158500000Y-102370000D01*
X160390000Y-107700000D02*
X160390000Y-109280000D01*
X157970000Y-105280000D02*
X160390000Y-107700000D01*
X157970000Y-102900000D02*
X157970000Y-105280000D01*
X158500000Y-102370000D02*
X157970000Y-102900000D01*
G04 #@! TO.N,Net-(I2C1-Pad1)*
X158000000Y-100900000D02*
X158000000Y-102020000D01*
X157490000Y-108920000D02*
X157850000Y-109280000D01*
X157490000Y-102530000D02*
X157490000Y-108920000D01*
X158000000Y-102020000D02*
X157490000Y-102530000D01*
G04 #@! TO.N,Net-(DAC1-Pad2)*
X149500000Y-100900000D02*
X149500000Y-103610000D01*
X143910000Y-106090000D02*
X140740000Y-109260000D01*
X147020000Y-106090000D02*
X143910000Y-106090000D01*
X149500000Y-103610000D02*
X147020000Y-106090000D01*
G04 #@! TO.N,Net-(DAC1-Pad1)*
X149000000Y-100900000D02*
X149000000Y-103370000D01*
X141900000Y-105560000D02*
X138200000Y-109260000D01*
X146810000Y-105560000D02*
X141900000Y-105560000D01*
X149000000Y-103370000D02*
X146810000Y-105560000D01*
G04 #@! TO.N,Net-(C10-Pad1)*
X142410000Y-88750000D02*
X140750000Y-88750000D01*
X146100000Y-91000000D02*
X144660000Y-91000000D01*
X144660000Y-91000000D02*
X142410000Y-88750000D01*
X139000000Y-88750000D02*
X138750000Y-88500000D01*
X140750000Y-88750000D02*
X139000000Y-88750000D01*
G04 #@! TO.N,Net-(C9-Pad1)*
X141660000Y-87350000D02*
X140750000Y-87350000D01*
X146100000Y-90500000D02*
X144810000Y-90500000D01*
X144810000Y-90500000D02*
X141660000Y-87350000D01*
X140750000Y-85750000D02*
X140500000Y-85500000D01*
X140750000Y-87350000D02*
X140750000Y-85750000D01*
G04 #@! TO.N,Net-(C6-Pad2)*
X146100000Y-93000000D02*
X144960000Y-93000000D01*
X137300000Y-94040000D02*
X137300000Y-93375000D01*
X137790000Y-94530000D02*
X137300000Y-94040000D01*
X143430000Y-94530000D02*
X137790000Y-94530000D01*
X144960000Y-93000000D02*
X143430000Y-94530000D01*
X134550000Y-93500000D02*
X137175000Y-93500000D01*
X137175000Y-93500000D02*
X137300000Y-93375000D01*
G04 #@! TO.N,Net-(C5-Pad2)*
X146100000Y-92500000D02*
X144760000Y-92500000D01*
X137300000Y-91160000D02*
X137300000Y-91625000D01*
X138090000Y-90370000D02*
X137300000Y-91160000D01*
X139300000Y-90370000D02*
X138090000Y-90370000D01*
X139890000Y-90960000D02*
X139300000Y-90370000D01*
X139890000Y-91750000D02*
X139890000Y-90960000D01*
X141450000Y-93310000D02*
X139890000Y-91750000D01*
X143950000Y-93310000D02*
X141450000Y-93310000D01*
X144760000Y-92500000D02*
X143950000Y-93310000D01*
X134550000Y-91500000D02*
X137175000Y-91500000D01*
X137175000Y-91500000D02*
X137300000Y-91625000D01*
G04 #@! TO.N,Net-(C7-Pad2)*
X161900000Y-88000000D02*
X164450000Y-88000000D01*
G04 #@! TO.N,Net-(C8-Pad2)*
X159000000Y-100900000D02*
X159000000Y-103450000D01*
G04 #@! TO.N,Net-(R7-Pad1)*
X157500000Y-85100000D02*
X157500000Y-83250000D01*
X158000000Y-82750000D02*
X165300000Y-82750000D01*
X157500000Y-83250000D02*
X158000000Y-82750000D01*
G04 #@! TO.N,Net-(R8-Pad1)*
X157000000Y-85100000D02*
X157000000Y-83000000D01*
X164050000Y-82250000D02*
X165300000Y-81000000D01*
X157750000Y-82250000D02*
X164050000Y-82250000D01*
X157000000Y-83000000D02*
X157750000Y-82250000D01*
G04 #@! TO.N,Net-(R9-Pad1)*
X156500000Y-85100000D02*
X156500000Y-82750000D01*
X162800000Y-81750000D02*
X165300000Y-79250000D01*
X157500000Y-81750000D02*
X162800000Y-81750000D01*
X156500000Y-82750000D02*
X157500000Y-81750000D01*
G04 #@! TO.N,Net-(R10-Pad1)*
X156000000Y-85100000D02*
X156000000Y-82500000D01*
X160950000Y-81250000D02*
X163500000Y-78700000D01*
X157250000Y-81250000D02*
X160950000Y-81250000D01*
X156000000Y-82500000D02*
X157250000Y-81250000D01*
G04 #@! TO.N,Net-(R11-Pad1)*
X155500000Y-85100000D02*
X155500000Y-82250000D01*
X160500000Y-79750000D02*
X160500000Y-78700000D01*
X159500000Y-80750000D02*
X160500000Y-79750000D01*
X157000000Y-80750000D02*
X159500000Y-80750000D01*
X155500000Y-82250000D02*
X157000000Y-80750000D01*
G04 #@! TO.N,Net-(R11-Pad2)*
X160500000Y-77800000D02*
X160500000Y-74100000D01*
X160500000Y-74100000D02*
X159500000Y-73100000D01*
G04 #@! TO.N,Net-(ORANGE1-Pad2)*
X163500000Y-77800000D02*
X163500000Y-74350000D01*
X163500000Y-74350000D02*
X162250000Y-73100000D01*
G04 #@! TO.N,Net-(BLUE1-Pad2)*
X166200000Y-79250000D02*
X166200000Y-74550000D01*
X166200000Y-74550000D02*
X164750000Y-73100000D01*
G04 #@! TO.N,Net-(R8-Pad2)*
X166200000Y-81000000D02*
X166500000Y-81000000D01*
X167250000Y-80250000D02*
X167250000Y-73100000D01*
X166500000Y-81000000D02*
X167250000Y-80250000D01*
G04 #@! TO.N,Net-(GREEN1-Pad2)*
X166200000Y-82750000D02*
X167000000Y-82750000D01*
X169750000Y-80000000D02*
X169750000Y-73100000D01*
X167000000Y-82750000D02*
X169750000Y-80000000D01*
G04 #@! TD*
D29*
G04 #@! TO.N,GND*
G36*
X132031843Y-97877765D02*
X132172191Y-98087809D01*
X132382235Y-98228157D01*
X132630000Y-98277440D01*
X133330000Y-98277440D01*
X133577765Y-98228157D01*
X133783240Y-98090862D01*
X133790000Y-98124847D01*
X133790000Y-98124851D01*
X133834096Y-98346536D01*
X134002071Y-98597929D01*
X134065529Y-98640331D01*
X134359671Y-98934472D01*
X134402071Y-98997929D01*
X134653463Y-99165904D01*
X134875148Y-99210000D01*
X134875152Y-99210000D01*
X134949999Y-99224888D01*
X135024846Y-99210000D01*
X136115000Y-99210000D01*
X136115000Y-99264250D01*
X136273750Y-99423000D01*
X136875000Y-99423000D01*
X136875000Y-99403000D01*
X137125000Y-99403000D01*
X137125000Y-99423000D01*
X137726250Y-99423000D01*
X137885000Y-99264250D01*
X137885000Y-99210000D01*
X138115000Y-99210000D01*
X138115000Y-99264250D01*
X138273750Y-99423000D01*
X138875000Y-99423000D01*
X138875000Y-99403000D01*
X139125000Y-99403000D01*
X139125000Y-99423000D01*
X139147000Y-99423000D01*
X139147000Y-99677000D01*
X139125000Y-99677000D01*
X139125000Y-99697000D01*
X138875000Y-99697000D01*
X138875000Y-99677000D01*
X138273750Y-99677000D01*
X138115000Y-99835750D01*
X138115000Y-99976309D01*
X138211673Y-100209698D01*
X138390301Y-100388327D01*
X138585866Y-100469333D01*
X137985199Y-101070000D01*
X135067440Y-101070000D01*
X135067440Y-100980000D01*
X135018157Y-100732235D01*
X134877809Y-100522191D01*
X134667765Y-100381843D01*
X134420000Y-100332560D01*
X132720000Y-100332560D01*
X132472235Y-100381843D01*
X132262191Y-100522191D01*
X132121843Y-100732235D01*
X132072560Y-100980000D01*
X132072560Y-102680000D01*
X132121843Y-102927765D01*
X132262191Y-103137809D01*
X132472235Y-103278157D01*
X132517619Y-103287184D01*
X132499375Y-103299375D01*
X132171161Y-103790582D01*
X132055908Y-104370000D01*
X132171161Y-104949418D01*
X132499375Y-105440625D01*
X132797761Y-105640000D01*
X132499375Y-105839375D01*
X132171161Y-106330582D01*
X132055908Y-106910000D01*
X132171161Y-107489418D01*
X132499375Y-107980625D01*
X132797761Y-108180000D01*
X132499375Y-108379375D01*
X132171161Y-108870582D01*
X132055908Y-109450000D01*
X132171161Y-110029418D01*
X132345276Y-110290000D01*
X130710000Y-110290000D01*
X130710000Y-99835750D01*
X136115000Y-99835750D01*
X136115000Y-99976309D01*
X136211673Y-100209698D01*
X136390301Y-100388327D01*
X136623690Y-100485000D01*
X136716250Y-100485000D01*
X136875000Y-100326250D01*
X136875000Y-99677000D01*
X137125000Y-99677000D01*
X137125000Y-100326250D01*
X137283750Y-100485000D01*
X137376310Y-100485000D01*
X137609699Y-100388327D01*
X137788327Y-100209698D01*
X137885000Y-99976309D01*
X137885000Y-99835750D01*
X137726250Y-99677000D01*
X137125000Y-99677000D01*
X136875000Y-99677000D01*
X136273750Y-99677000D01*
X136115000Y-99835750D01*
X130710000Y-99835750D01*
X130710000Y-98273462D01*
X130730000Y-98277440D01*
X131430000Y-98277440D01*
X131677765Y-98228157D01*
X131887809Y-98087809D01*
X132028157Y-97877765D01*
X132030000Y-97868500D01*
X132031843Y-97877765D01*
X132031843Y-97877765D01*
G37*
X132031843Y-97877765D02*
X132172191Y-98087809D01*
X132382235Y-98228157D01*
X132630000Y-98277440D01*
X133330000Y-98277440D01*
X133577765Y-98228157D01*
X133783240Y-98090862D01*
X133790000Y-98124847D01*
X133790000Y-98124851D01*
X133834096Y-98346536D01*
X134002071Y-98597929D01*
X134065529Y-98640331D01*
X134359671Y-98934472D01*
X134402071Y-98997929D01*
X134653463Y-99165904D01*
X134875148Y-99210000D01*
X134875152Y-99210000D01*
X134949999Y-99224888D01*
X135024846Y-99210000D01*
X136115000Y-99210000D01*
X136115000Y-99264250D01*
X136273750Y-99423000D01*
X136875000Y-99423000D01*
X136875000Y-99403000D01*
X137125000Y-99403000D01*
X137125000Y-99423000D01*
X137726250Y-99423000D01*
X137885000Y-99264250D01*
X137885000Y-99210000D01*
X138115000Y-99210000D01*
X138115000Y-99264250D01*
X138273750Y-99423000D01*
X138875000Y-99423000D01*
X138875000Y-99403000D01*
X139125000Y-99403000D01*
X139125000Y-99423000D01*
X139147000Y-99423000D01*
X139147000Y-99677000D01*
X139125000Y-99677000D01*
X139125000Y-99697000D01*
X138875000Y-99697000D01*
X138875000Y-99677000D01*
X138273750Y-99677000D01*
X138115000Y-99835750D01*
X138115000Y-99976309D01*
X138211673Y-100209698D01*
X138390301Y-100388327D01*
X138585866Y-100469333D01*
X137985199Y-101070000D01*
X135067440Y-101070000D01*
X135067440Y-100980000D01*
X135018157Y-100732235D01*
X134877809Y-100522191D01*
X134667765Y-100381843D01*
X134420000Y-100332560D01*
X132720000Y-100332560D01*
X132472235Y-100381843D01*
X132262191Y-100522191D01*
X132121843Y-100732235D01*
X132072560Y-100980000D01*
X132072560Y-102680000D01*
X132121843Y-102927765D01*
X132262191Y-103137809D01*
X132472235Y-103278157D01*
X132517619Y-103287184D01*
X132499375Y-103299375D01*
X132171161Y-103790582D01*
X132055908Y-104370000D01*
X132171161Y-104949418D01*
X132499375Y-105440625D01*
X132797761Y-105640000D01*
X132499375Y-105839375D01*
X132171161Y-106330582D01*
X132055908Y-106910000D01*
X132171161Y-107489418D01*
X132499375Y-107980625D01*
X132797761Y-108180000D01*
X132499375Y-108379375D01*
X132171161Y-108870582D01*
X132055908Y-109450000D01*
X132171161Y-110029418D01*
X132345276Y-110290000D01*
X130710000Y-110290000D01*
X130710000Y-99835750D01*
X136115000Y-99835750D01*
X136115000Y-99976309D01*
X136211673Y-100209698D01*
X136390301Y-100388327D01*
X136623690Y-100485000D01*
X136716250Y-100485000D01*
X136875000Y-100326250D01*
X136875000Y-99677000D01*
X137125000Y-99677000D01*
X137125000Y-100326250D01*
X137283750Y-100485000D01*
X137376310Y-100485000D01*
X137609699Y-100388327D01*
X137788327Y-100209698D01*
X137885000Y-99976309D01*
X137885000Y-99835750D01*
X137726250Y-99677000D01*
X137125000Y-99677000D01*
X136875000Y-99677000D01*
X136273750Y-99677000D01*
X136115000Y-99835750D01*
X130710000Y-99835750D01*
X130710000Y-98273462D01*
X130730000Y-98277440D01*
X131430000Y-98277440D01*
X131677765Y-98228157D01*
X131887809Y-98087809D01*
X132028157Y-97877765D01*
X132030000Y-97868500D01*
X132031843Y-97877765D01*
G36*
X190290001Y-110290000D02*
X186293300Y-110290000D01*
X186308157Y-110267765D01*
X186357440Y-110020000D01*
X186357440Y-108320000D01*
X186308157Y-108072235D01*
X186167809Y-107862191D01*
X185957765Y-107721843D01*
X185710000Y-107672560D01*
X184437362Y-107672560D01*
X182640331Y-105875530D01*
X182597929Y-105812071D01*
X182346537Y-105644096D01*
X182124852Y-105600000D01*
X182124847Y-105600000D01*
X182050000Y-105585112D01*
X181975153Y-105600000D01*
X178984803Y-105600000D01*
X169770552Y-96385750D01*
X174085000Y-96385750D01*
X174085000Y-96626310D01*
X174181673Y-96859699D01*
X174360302Y-97038327D01*
X174593691Y-97135000D01*
X174884250Y-97135000D01*
X175043000Y-96976250D01*
X175043000Y-96227000D01*
X175297000Y-96227000D01*
X175297000Y-96976250D01*
X175455750Y-97135000D01*
X175746309Y-97135000D01*
X175979698Y-97038327D01*
X176158327Y-96859699D01*
X176230379Y-96685750D01*
X182615000Y-96685750D01*
X182615000Y-97126309D01*
X182711673Y-97359698D01*
X182890301Y-97538327D01*
X183123690Y-97635000D01*
X183564250Y-97635000D01*
X183723000Y-97476250D01*
X183723000Y-96527000D01*
X183977000Y-96527000D01*
X183977000Y-97476250D01*
X184135750Y-97635000D01*
X184576310Y-97635000D01*
X184809699Y-97538327D01*
X184988327Y-97359698D01*
X185085000Y-97126309D01*
X185085000Y-96865750D01*
X185985000Y-96865750D01*
X185985000Y-97306309D01*
X186081673Y-97539698D01*
X186260301Y-97718327D01*
X186493690Y-97815000D01*
X186934250Y-97815000D01*
X187093000Y-97656250D01*
X187093000Y-96707000D01*
X187347000Y-96707000D01*
X187347000Y-97656250D01*
X187505750Y-97815000D01*
X187946310Y-97815000D01*
X188179699Y-97718327D01*
X188358327Y-97539698D01*
X188455000Y-97306309D01*
X188455000Y-96865750D01*
X188296250Y-96707000D01*
X187347000Y-96707000D01*
X187093000Y-96707000D01*
X186143750Y-96707000D01*
X185985000Y-96865750D01*
X185085000Y-96865750D01*
X185085000Y-96685750D01*
X184926250Y-96527000D01*
X183977000Y-96527000D01*
X183723000Y-96527000D01*
X182773750Y-96527000D01*
X182615000Y-96685750D01*
X176230379Y-96685750D01*
X176255000Y-96626310D01*
X176255000Y-96385750D01*
X176096250Y-96227000D01*
X175297000Y-96227000D01*
X175043000Y-96227000D01*
X174243750Y-96227000D01*
X174085000Y-96385750D01*
X169770552Y-96385750D01*
X167079008Y-93694207D01*
X167297929Y-93547929D01*
X167340331Y-93484470D01*
X169484473Y-91340329D01*
X169547929Y-91297929D01*
X169715904Y-91046537D01*
X169760000Y-90824852D01*
X169760000Y-90824848D01*
X169774888Y-90750000D01*
X169760000Y-90675152D01*
X169760000Y-89082646D01*
X170079375Y-89560625D01*
X170570582Y-89888839D01*
X171003744Y-89975000D01*
X171296256Y-89975000D01*
X171729418Y-89888839D01*
X172220625Y-89560625D01*
X172428178Y-89250000D01*
X174650407Y-89250000D01*
X174671843Y-89357765D01*
X174812191Y-89567809D01*
X175022235Y-89708157D01*
X175270000Y-89757440D01*
X175442639Y-89757440D01*
X176022560Y-90337362D01*
X176022560Y-91060000D01*
X176071843Y-91307765D01*
X176212191Y-91517809D01*
X176410000Y-91649982D01*
X176410001Y-94193427D01*
X176267440Y-94288684D01*
X176267440Y-93800000D01*
X176218157Y-93552235D01*
X176077809Y-93342191D01*
X175867765Y-93201843D01*
X175620000Y-93152560D01*
X174720000Y-93152560D01*
X174472235Y-93201843D01*
X174262191Y-93342191D01*
X174210200Y-93420000D01*
X174024530Y-93420000D01*
X173817765Y-93281843D01*
X173570000Y-93232560D01*
X173170000Y-93232560D01*
X172922235Y-93281843D01*
X172920000Y-93283336D01*
X172917765Y-93281843D01*
X172670000Y-93232560D01*
X172270000Y-93232560D01*
X172022235Y-93281843D01*
X171815470Y-93420000D01*
X171593711Y-93420000D01*
X171496280Y-93322569D01*
X171115874Y-93165000D01*
X170704126Y-93165000D01*
X170323720Y-93322569D01*
X170032569Y-93613720D01*
X169875000Y-93994126D01*
X169875000Y-94405874D01*
X170032569Y-94786280D01*
X170323720Y-95077431D01*
X170704126Y-95235000D01*
X171115874Y-95235000D01*
X171496280Y-95077431D01*
X171633711Y-94940000D01*
X171815470Y-94940000D01*
X172022235Y-95078157D01*
X172270000Y-95127440D01*
X172670000Y-95127440D01*
X172917765Y-95078157D01*
X172920000Y-95076664D01*
X172922235Y-95078157D01*
X173170000Y-95127440D01*
X173570000Y-95127440D01*
X173817765Y-95078157D01*
X174024530Y-94940000D01*
X174183473Y-94940000D01*
X174262191Y-95057809D01*
X174395694Y-95147013D01*
X174360302Y-95161673D01*
X174181673Y-95340301D01*
X174085000Y-95573690D01*
X174085000Y-95814250D01*
X174243750Y-95973000D01*
X175043000Y-95973000D01*
X175043000Y-95953000D01*
X175297000Y-95953000D01*
X175297000Y-95973000D01*
X176096250Y-95973000D01*
X176181781Y-95887469D01*
X176262191Y-96007809D01*
X176472235Y-96148157D01*
X176720000Y-96197440D01*
X177620000Y-96197440D01*
X177867765Y-96148157D01*
X178077809Y-96007809D01*
X178218157Y-95797765D01*
X178267440Y-95550000D01*
X178267440Y-94750000D01*
X178218157Y-94502235D01*
X178077809Y-94292191D01*
X177930000Y-94193427D01*
X177930000Y-93794126D01*
X180215000Y-93794126D01*
X180215000Y-94205874D01*
X180372569Y-94586280D01*
X180663720Y-94877431D01*
X181044126Y-95035000D01*
X181455874Y-95035000D01*
X181636940Y-94960000D01*
X182634386Y-94960000D01*
X182651843Y-95047765D01*
X182792191Y-95257809D01*
X182853320Y-95298654D01*
X182711673Y-95440302D01*
X182615000Y-95673691D01*
X182615000Y-96114250D01*
X182773750Y-96273000D01*
X183723000Y-96273000D01*
X183723000Y-96253000D01*
X183977000Y-96253000D01*
X183977000Y-96273000D01*
X184926250Y-96273000D01*
X185085000Y-96114250D01*
X185085000Y-95673691D01*
X184988327Y-95440302D01*
X184846680Y-95298654D01*
X184907809Y-95257809D01*
X185048157Y-95047765D01*
X185097440Y-94800000D01*
X185097440Y-93600000D01*
X185048157Y-93352235D01*
X184907809Y-93142191D01*
X184697765Y-93001843D01*
X184450000Y-92952560D01*
X183250000Y-92952560D01*
X183002235Y-93001843D01*
X182792191Y-93142191D01*
X182651843Y-93352235D01*
X182634386Y-93440000D01*
X182138317Y-93440000D01*
X182127431Y-93413720D01*
X181836280Y-93122569D01*
X181455874Y-92965000D01*
X181044126Y-92965000D01*
X180663720Y-93122569D01*
X180372569Y-93413720D01*
X180215000Y-93794126D01*
X177930000Y-93794126D01*
X177930000Y-91659702D01*
X178170000Y-91707440D01*
X179170000Y-91707440D01*
X179417765Y-91658157D01*
X179420000Y-91656664D01*
X179422235Y-91658157D01*
X179670000Y-91707440D01*
X180670000Y-91707440D01*
X180917765Y-91658157D01*
X180920000Y-91656664D01*
X180922235Y-91658157D01*
X181170000Y-91707440D01*
X182170000Y-91707440D01*
X182417765Y-91658157D01*
X182420000Y-91656664D01*
X182422235Y-91658157D01*
X182670000Y-91707440D01*
X183670000Y-91707440D01*
X183917765Y-91658157D01*
X183920000Y-91656664D01*
X183922235Y-91658157D01*
X184170000Y-91707440D01*
X185170000Y-91707440D01*
X185368291Y-91667998D01*
X185122569Y-91913720D01*
X184965000Y-92294126D01*
X184965000Y-92705874D01*
X185122569Y-93086280D01*
X185413720Y-93377431D01*
X185794126Y-93535000D01*
X185960199Y-93535000D01*
X186011157Y-93585958D01*
X185972560Y-93780000D01*
X185972560Y-94980000D01*
X186021843Y-95227765D01*
X186162191Y-95437809D01*
X186223320Y-95478654D01*
X186081673Y-95620302D01*
X185985000Y-95853691D01*
X185985000Y-96294250D01*
X186143750Y-96453000D01*
X187093000Y-96453000D01*
X187093000Y-96433000D01*
X187347000Y-96433000D01*
X187347000Y-96453000D01*
X188296250Y-96453000D01*
X188455000Y-96294250D01*
X188455000Y-95853691D01*
X188358327Y-95620302D01*
X188216680Y-95478654D01*
X188277809Y-95437809D01*
X188418157Y-95227765D01*
X188467440Y-94980000D01*
X188467440Y-93780000D01*
X188418157Y-93532235D01*
X188277809Y-93322191D01*
X188067765Y-93181843D01*
X187820000Y-93132560D01*
X187708796Y-93132560D01*
X187704473Y-93129671D01*
X187035000Y-92460199D01*
X187035000Y-92294126D01*
X186877431Y-91913720D01*
X186670960Y-91707249D01*
X186917765Y-91658157D01*
X186920000Y-91656664D01*
X186922235Y-91658157D01*
X187170000Y-91707440D01*
X188170000Y-91707440D01*
X188417765Y-91658157D01*
X188627809Y-91517809D01*
X188768157Y-91307765D01*
X188817440Y-91060000D01*
X188817440Y-90337361D01*
X189397362Y-89757440D01*
X189570000Y-89757440D01*
X189817765Y-89708157D01*
X190027809Y-89567809D01*
X190168157Y-89357765D01*
X190217440Y-89110000D01*
X190217440Y-88110000D01*
X190168157Y-87862235D01*
X190166664Y-87860000D01*
X190168157Y-87857765D01*
X190217440Y-87610000D01*
X190217440Y-86610000D01*
X190168157Y-86362235D01*
X190166664Y-86360000D01*
X190168157Y-86357765D01*
X190217440Y-86110000D01*
X190217440Y-85110000D01*
X190168157Y-84862235D01*
X190166664Y-84860000D01*
X190168157Y-84857765D01*
X190217440Y-84610000D01*
X190217440Y-83610000D01*
X190168157Y-83362235D01*
X190166664Y-83360000D01*
X190168157Y-83357765D01*
X190217440Y-83110000D01*
X190217440Y-82110000D01*
X190168157Y-81862235D01*
X190166664Y-81860000D01*
X190168157Y-81857765D01*
X190217440Y-81610000D01*
X190217440Y-80610000D01*
X190168157Y-80362235D01*
X190166664Y-80360000D01*
X190168157Y-80357765D01*
X190217440Y-80110000D01*
X190217440Y-79110000D01*
X190168157Y-78862235D01*
X190166664Y-78860000D01*
X190168157Y-78857765D01*
X190217440Y-78610000D01*
X190217440Y-77610000D01*
X190168157Y-77362235D01*
X190166664Y-77360000D01*
X190168157Y-77357765D01*
X190217440Y-77110000D01*
X190217440Y-76110000D01*
X190168157Y-75862235D01*
X190166664Y-75860000D01*
X190168157Y-75857765D01*
X190217440Y-75610000D01*
X190217440Y-74610000D01*
X190168157Y-74362235D01*
X190166664Y-74360000D01*
X190168157Y-74357765D01*
X190217440Y-74110000D01*
X190217440Y-73110000D01*
X190168157Y-72862235D01*
X190166664Y-72860000D01*
X190168157Y-72857765D01*
X190217440Y-72610000D01*
X190217440Y-71610000D01*
X190168157Y-71362235D01*
X190166664Y-71360000D01*
X190168157Y-71357765D01*
X190217440Y-71110000D01*
X190217440Y-70110000D01*
X190168157Y-69862235D01*
X190066436Y-69710000D01*
X190290000Y-69710000D01*
X190290001Y-110290000D01*
X190290001Y-110290000D01*
G37*
X190290001Y-110290000D02*
X186293300Y-110290000D01*
X186308157Y-110267765D01*
X186357440Y-110020000D01*
X186357440Y-108320000D01*
X186308157Y-108072235D01*
X186167809Y-107862191D01*
X185957765Y-107721843D01*
X185710000Y-107672560D01*
X184437362Y-107672560D01*
X182640331Y-105875530D01*
X182597929Y-105812071D01*
X182346537Y-105644096D01*
X182124852Y-105600000D01*
X182124847Y-105600000D01*
X182050000Y-105585112D01*
X181975153Y-105600000D01*
X178984803Y-105600000D01*
X169770552Y-96385750D01*
X174085000Y-96385750D01*
X174085000Y-96626310D01*
X174181673Y-96859699D01*
X174360302Y-97038327D01*
X174593691Y-97135000D01*
X174884250Y-97135000D01*
X175043000Y-96976250D01*
X175043000Y-96227000D01*
X175297000Y-96227000D01*
X175297000Y-96976250D01*
X175455750Y-97135000D01*
X175746309Y-97135000D01*
X175979698Y-97038327D01*
X176158327Y-96859699D01*
X176230379Y-96685750D01*
X182615000Y-96685750D01*
X182615000Y-97126309D01*
X182711673Y-97359698D01*
X182890301Y-97538327D01*
X183123690Y-97635000D01*
X183564250Y-97635000D01*
X183723000Y-97476250D01*
X183723000Y-96527000D01*
X183977000Y-96527000D01*
X183977000Y-97476250D01*
X184135750Y-97635000D01*
X184576310Y-97635000D01*
X184809699Y-97538327D01*
X184988327Y-97359698D01*
X185085000Y-97126309D01*
X185085000Y-96865750D01*
X185985000Y-96865750D01*
X185985000Y-97306309D01*
X186081673Y-97539698D01*
X186260301Y-97718327D01*
X186493690Y-97815000D01*
X186934250Y-97815000D01*
X187093000Y-97656250D01*
X187093000Y-96707000D01*
X187347000Y-96707000D01*
X187347000Y-97656250D01*
X187505750Y-97815000D01*
X187946310Y-97815000D01*
X188179699Y-97718327D01*
X188358327Y-97539698D01*
X188455000Y-97306309D01*
X188455000Y-96865750D01*
X188296250Y-96707000D01*
X187347000Y-96707000D01*
X187093000Y-96707000D01*
X186143750Y-96707000D01*
X185985000Y-96865750D01*
X185085000Y-96865750D01*
X185085000Y-96685750D01*
X184926250Y-96527000D01*
X183977000Y-96527000D01*
X183723000Y-96527000D01*
X182773750Y-96527000D01*
X182615000Y-96685750D01*
X176230379Y-96685750D01*
X176255000Y-96626310D01*
X176255000Y-96385750D01*
X176096250Y-96227000D01*
X175297000Y-96227000D01*
X175043000Y-96227000D01*
X174243750Y-96227000D01*
X174085000Y-96385750D01*
X169770552Y-96385750D01*
X167079008Y-93694207D01*
X167297929Y-93547929D01*
X167340331Y-93484470D01*
X169484473Y-91340329D01*
X169547929Y-91297929D01*
X169715904Y-91046537D01*
X169760000Y-90824852D01*
X169760000Y-90824848D01*
X169774888Y-90750000D01*
X169760000Y-90675152D01*
X169760000Y-89082646D01*
X170079375Y-89560625D01*
X170570582Y-89888839D01*
X171003744Y-89975000D01*
X171296256Y-89975000D01*
X171729418Y-89888839D01*
X172220625Y-89560625D01*
X172428178Y-89250000D01*
X174650407Y-89250000D01*
X174671843Y-89357765D01*
X174812191Y-89567809D01*
X175022235Y-89708157D01*
X175270000Y-89757440D01*
X175442639Y-89757440D01*
X176022560Y-90337362D01*
X176022560Y-91060000D01*
X176071843Y-91307765D01*
X176212191Y-91517809D01*
X176410000Y-91649982D01*
X176410001Y-94193427D01*
X176267440Y-94288684D01*
X176267440Y-93800000D01*
X176218157Y-93552235D01*
X176077809Y-93342191D01*
X175867765Y-93201843D01*
X175620000Y-93152560D01*
X174720000Y-93152560D01*
X174472235Y-93201843D01*
X174262191Y-93342191D01*
X174210200Y-93420000D01*
X174024530Y-93420000D01*
X173817765Y-93281843D01*
X173570000Y-93232560D01*
X173170000Y-93232560D01*
X172922235Y-93281843D01*
X172920000Y-93283336D01*
X172917765Y-93281843D01*
X172670000Y-93232560D01*
X172270000Y-93232560D01*
X172022235Y-93281843D01*
X171815470Y-93420000D01*
X171593711Y-93420000D01*
X171496280Y-93322569D01*
X171115874Y-93165000D01*
X170704126Y-93165000D01*
X170323720Y-93322569D01*
X170032569Y-93613720D01*
X169875000Y-93994126D01*
X169875000Y-94405874D01*
X170032569Y-94786280D01*
X170323720Y-95077431D01*
X170704126Y-95235000D01*
X171115874Y-95235000D01*
X171496280Y-95077431D01*
X171633711Y-94940000D01*
X171815470Y-94940000D01*
X172022235Y-95078157D01*
X172270000Y-95127440D01*
X172670000Y-95127440D01*
X172917765Y-95078157D01*
X172920000Y-95076664D01*
X172922235Y-95078157D01*
X173170000Y-95127440D01*
X173570000Y-95127440D01*
X173817765Y-95078157D01*
X174024530Y-94940000D01*
X174183473Y-94940000D01*
X174262191Y-95057809D01*
X174395694Y-95147013D01*
X174360302Y-95161673D01*
X174181673Y-95340301D01*
X174085000Y-95573690D01*
X174085000Y-95814250D01*
X174243750Y-95973000D01*
X175043000Y-95973000D01*
X175043000Y-95953000D01*
X175297000Y-95953000D01*
X175297000Y-95973000D01*
X176096250Y-95973000D01*
X176181781Y-95887469D01*
X176262191Y-96007809D01*
X176472235Y-96148157D01*
X176720000Y-96197440D01*
X177620000Y-96197440D01*
X177867765Y-96148157D01*
X178077809Y-96007809D01*
X178218157Y-95797765D01*
X178267440Y-95550000D01*
X178267440Y-94750000D01*
X178218157Y-94502235D01*
X178077809Y-94292191D01*
X177930000Y-94193427D01*
X177930000Y-93794126D01*
X180215000Y-93794126D01*
X180215000Y-94205874D01*
X180372569Y-94586280D01*
X180663720Y-94877431D01*
X181044126Y-95035000D01*
X181455874Y-95035000D01*
X181636940Y-94960000D01*
X182634386Y-94960000D01*
X182651843Y-95047765D01*
X182792191Y-95257809D01*
X182853320Y-95298654D01*
X182711673Y-95440302D01*
X182615000Y-95673691D01*
X182615000Y-96114250D01*
X182773750Y-96273000D01*
X183723000Y-96273000D01*
X183723000Y-96253000D01*
X183977000Y-96253000D01*
X183977000Y-96273000D01*
X184926250Y-96273000D01*
X185085000Y-96114250D01*
X185085000Y-95673691D01*
X184988327Y-95440302D01*
X184846680Y-95298654D01*
X184907809Y-95257809D01*
X185048157Y-95047765D01*
X185097440Y-94800000D01*
X185097440Y-93600000D01*
X185048157Y-93352235D01*
X184907809Y-93142191D01*
X184697765Y-93001843D01*
X184450000Y-92952560D01*
X183250000Y-92952560D01*
X183002235Y-93001843D01*
X182792191Y-93142191D01*
X182651843Y-93352235D01*
X182634386Y-93440000D01*
X182138317Y-93440000D01*
X182127431Y-93413720D01*
X181836280Y-93122569D01*
X181455874Y-92965000D01*
X181044126Y-92965000D01*
X180663720Y-93122569D01*
X180372569Y-93413720D01*
X180215000Y-93794126D01*
X177930000Y-93794126D01*
X177930000Y-91659702D01*
X178170000Y-91707440D01*
X179170000Y-91707440D01*
X179417765Y-91658157D01*
X179420000Y-91656664D01*
X179422235Y-91658157D01*
X179670000Y-91707440D01*
X180670000Y-91707440D01*
X180917765Y-91658157D01*
X180920000Y-91656664D01*
X180922235Y-91658157D01*
X181170000Y-91707440D01*
X182170000Y-91707440D01*
X182417765Y-91658157D01*
X182420000Y-91656664D01*
X182422235Y-91658157D01*
X182670000Y-91707440D01*
X183670000Y-91707440D01*
X183917765Y-91658157D01*
X183920000Y-91656664D01*
X183922235Y-91658157D01*
X184170000Y-91707440D01*
X185170000Y-91707440D01*
X185368291Y-91667998D01*
X185122569Y-91913720D01*
X184965000Y-92294126D01*
X184965000Y-92705874D01*
X185122569Y-93086280D01*
X185413720Y-93377431D01*
X185794126Y-93535000D01*
X185960199Y-93535000D01*
X186011157Y-93585958D01*
X185972560Y-93780000D01*
X185972560Y-94980000D01*
X186021843Y-95227765D01*
X186162191Y-95437809D01*
X186223320Y-95478654D01*
X186081673Y-95620302D01*
X185985000Y-95853691D01*
X185985000Y-96294250D01*
X186143750Y-96453000D01*
X187093000Y-96453000D01*
X187093000Y-96433000D01*
X187347000Y-96433000D01*
X187347000Y-96453000D01*
X188296250Y-96453000D01*
X188455000Y-96294250D01*
X188455000Y-95853691D01*
X188358327Y-95620302D01*
X188216680Y-95478654D01*
X188277809Y-95437809D01*
X188418157Y-95227765D01*
X188467440Y-94980000D01*
X188467440Y-93780000D01*
X188418157Y-93532235D01*
X188277809Y-93322191D01*
X188067765Y-93181843D01*
X187820000Y-93132560D01*
X187708796Y-93132560D01*
X187704473Y-93129671D01*
X187035000Y-92460199D01*
X187035000Y-92294126D01*
X186877431Y-91913720D01*
X186670960Y-91707249D01*
X186917765Y-91658157D01*
X186920000Y-91656664D01*
X186922235Y-91658157D01*
X187170000Y-91707440D01*
X188170000Y-91707440D01*
X188417765Y-91658157D01*
X188627809Y-91517809D01*
X188768157Y-91307765D01*
X188817440Y-91060000D01*
X188817440Y-90337361D01*
X189397362Y-89757440D01*
X189570000Y-89757440D01*
X189817765Y-89708157D01*
X190027809Y-89567809D01*
X190168157Y-89357765D01*
X190217440Y-89110000D01*
X190217440Y-88110000D01*
X190168157Y-87862235D01*
X190166664Y-87860000D01*
X190168157Y-87857765D01*
X190217440Y-87610000D01*
X190217440Y-86610000D01*
X190168157Y-86362235D01*
X190166664Y-86360000D01*
X190168157Y-86357765D01*
X190217440Y-86110000D01*
X190217440Y-85110000D01*
X190168157Y-84862235D01*
X190166664Y-84860000D01*
X190168157Y-84857765D01*
X190217440Y-84610000D01*
X190217440Y-83610000D01*
X190168157Y-83362235D01*
X190166664Y-83360000D01*
X190168157Y-83357765D01*
X190217440Y-83110000D01*
X190217440Y-82110000D01*
X190168157Y-81862235D01*
X190166664Y-81860000D01*
X190168157Y-81857765D01*
X190217440Y-81610000D01*
X190217440Y-80610000D01*
X190168157Y-80362235D01*
X190166664Y-80360000D01*
X190168157Y-80357765D01*
X190217440Y-80110000D01*
X190217440Y-79110000D01*
X190168157Y-78862235D01*
X190166664Y-78860000D01*
X190168157Y-78857765D01*
X190217440Y-78610000D01*
X190217440Y-77610000D01*
X190168157Y-77362235D01*
X190166664Y-77360000D01*
X190168157Y-77357765D01*
X190217440Y-77110000D01*
X190217440Y-76110000D01*
X190168157Y-75862235D01*
X190166664Y-75860000D01*
X190168157Y-75857765D01*
X190217440Y-75610000D01*
X190217440Y-74610000D01*
X190168157Y-74362235D01*
X190166664Y-74360000D01*
X190168157Y-74357765D01*
X190217440Y-74110000D01*
X190217440Y-73110000D01*
X190168157Y-72862235D01*
X190166664Y-72860000D01*
X190168157Y-72857765D01*
X190217440Y-72610000D01*
X190217440Y-71610000D01*
X190168157Y-71362235D01*
X190166664Y-71360000D01*
X190168157Y-71357765D01*
X190217440Y-71110000D01*
X190217440Y-70110000D01*
X190168157Y-69862235D01*
X190066436Y-69710000D01*
X190290000Y-69710000D01*
X190290001Y-110290000D01*
G36*
X147201673Y-99790302D02*
X147105000Y-100023691D01*
X147105000Y-100614250D01*
X147263750Y-100773000D01*
X147712560Y-100773000D01*
X147712560Y-101027000D01*
X147263750Y-101027000D01*
X147105000Y-101185750D01*
X147105000Y-101776309D01*
X147201673Y-102009698D01*
X147380301Y-102188327D01*
X147561724Y-102263475D01*
X146902639Y-102922560D01*
X146780000Y-102922560D01*
X146532235Y-102971843D01*
X146518084Y-102981299D01*
X146406309Y-102935000D01*
X146265750Y-102935000D01*
X146107000Y-103093750D01*
X146107000Y-103695000D01*
X146127000Y-103695000D01*
X146127000Y-103945000D01*
X146107000Y-103945000D01*
X146107000Y-104546250D01*
X146265750Y-104705000D01*
X146406309Y-104705000D01*
X146518084Y-104658701D01*
X146532235Y-104668157D01*
X146611313Y-104683886D01*
X146495199Y-104800000D01*
X141974846Y-104800000D01*
X141899999Y-104785112D01*
X141825152Y-104800000D01*
X141825148Y-104800000D01*
X141603463Y-104844096D01*
X141352071Y-105012071D01*
X141309671Y-105075527D01*
X138622639Y-107762560D01*
X137350000Y-107762560D01*
X137102235Y-107811843D01*
X136892191Y-107952191D01*
X136751843Y-108162235D01*
X136702560Y-108410000D01*
X136702560Y-110110000D01*
X136738364Y-110290000D01*
X134794724Y-110290000D01*
X134968839Y-110029418D01*
X135084092Y-109450000D01*
X135011209Y-109083592D01*
X135474473Y-108620329D01*
X135537929Y-108577929D01*
X135705904Y-108326537D01*
X135750000Y-108104852D01*
X135750000Y-108104848D01*
X135764888Y-108030001D01*
X135750000Y-107955154D01*
X135750000Y-107614801D01*
X139261051Y-104103750D01*
X145045000Y-104103750D01*
X145045000Y-104196310D01*
X145141673Y-104429699D01*
X145320302Y-104608327D01*
X145553691Y-104705000D01*
X145694250Y-104705000D01*
X145853000Y-104546250D01*
X145853000Y-103945000D01*
X145203750Y-103945000D01*
X145045000Y-104103750D01*
X139261051Y-104103750D01*
X139921111Y-103443690D01*
X145045000Y-103443690D01*
X145045000Y-103536250D01*
X145203750Y-103695000D01*
X145853000Y-103695000D01*
X145853000Y-103093750D01*
X145694250Y-102935000D01*
X145553691Y-102935000D01*
X145320302Y-103031673D01*
X145141673Y-103210301D01*
X145045000Y-103443690D01*
X139921111Y-103443690D01*
X143544802Y-99820000D01*
X145045129Y-99820000D01*
X145102235Y-99858157D01*
X145350000Y-99907440D01*
X146850000Y-99907440D01*
X147097765Y-99858157D01*
X147206418Y-99785557D01*
X147201673Y-99790302D01*
X147201673Y-99790302D01*
G37*
X147201673Y-99790302D02*
X147105000Y-100023691D01*
X147105000Y-100614250D01*
X147263750Y-100773000D01*
X147712560Y-100773000D01*
X147712560Y-101027000D01*
X147263750Y-101027000D01*
X147105000Y-101185750D01*
X147105000Y-101776309D01*
X147201673Y-102009698D01*
X147380301Y-102188327D01*
X147561724Y-102263475D01*
X146902639Y-102922560D01*
X146780000Y-102922560D01*
X146532235Y-102971843D01*
X146518084Y-102981299D01*
X146406309Y-102935000D01*
X146265750Y-102935000D01*
X146107000Y-103093750D01*
X146107000Y-103695000D01*
X146127000Y-103695000D01*
X146127000Y-103945000D01*
X146107000Y-103945000D01*
X146107000Y-104546250D01*
X146265750Y-104705000D01*
X146406309Y-104705000D01*
X146518084Y-104658701D01*
X146532235Y-104668157D01*
X146611313Y-104683886D01*
X146495199Y-104800000D01*
X141974846Y-104800000D01*
X141899999Y-104785112D01*
X141825152Y-104800000D01*
X141825148Y-104800000D01*
X141603463Y-104844096D01*
X141352071Y-105012071D01*
X141309671Y-105075527D01*
X138622639Y-107762560D01*
X137350000Y-107762560D01*
X137102235Y-107811843D01*
X136892191Y-107952191D01*
X136751843Y-108162235D01*
X136702560Y-108410000D01*
X136702560Y-110110000D01*
X136738364Y-110290000D01*
X134794724Y-110290000D01*
X134968839Y-110029418D01*
X135084092Y-109450000D01*
X135011209Y-109083592D01*
X135474473Y-108620329D01*
X135537929Y-108577929D01*
X135705904Y-108326537D01*
X135750000Y-108104852D01*
X135750000Y-108104848D01*
X135764888Y-108030001D01*
X135750000Y-107955154D01*
X135750000Y-107614801D01*
X139261051Y-104103750D01*
X145045000Y-104103750D01*
X145045000Y-104196310D01*
X145141673Y-104429699D01*
X145320302Y-104608327D01*
X145553691Y-104705000D01*
X145694250Y-104705000D01*
X145853000Y-104546250D01*
X145853000Y-103945000D01*
X145203750Y-103945000D01*
X145045000Y-104103750D01*
X139261051Y-104103750D01*
X139921111Y-103443690D01*
X145045000Y-103443690D01*
X145045000Y-103536250D01*
X145203750Y-103695000D01*
X145853000Y-103695000D01*
X145853000Y-103093750D01*
X145694250Y-102935000D01*
X145553691Y-102935000D01*
X145320302Y-103031673D01*
X145141673Y-103210301D01*
X145045000Y-103443690D01*
X139921111Y-103443690D01*
X143544802Y-99820000D01*
X145045129Y-99820000D01*
X145102235Y-99858157D01*
X145350000Y-99907440D01*
X146850000Y-99907440D01*
X147097765Y-99858157D01*
X147206418Y-99785557D01*
X147201673Y-99790302D01*
G36*
X166320000Y-100194802D02*
X166320001Y-107891821D01*
X166009375Y-108099375D01*
X165681161Y-108590582D01*
X165565908Y-109170000D01*
X165681161Y-109749418D01*
X166009375Y-110240625D01*
X166083270Y-110290000D01*
X161501133Y-110290000D01*
X161788839Y-109859418D01*
X161904092Y-109280000D01*
X161788839Y-108700582D01*
X161460625Y-108209375D01*
X161150000Y-108001822D01*
X161150000Y-107774848D01*
X161164888Y-107700000D01*
X161150000Y-107625152D01*
X161150000Y-107625148D01*
X161105904Y-107403463D01*
X161105904Y-107403462D01*
X160980329Y-107215527D01*
X160937929Y-107152071D01*
X160874473Y-107109671D01*
X159127002Y-105362201D01*
X159127002Y-105328252D01*
X159283750Y-105485000D01*
X159376310Y-105485000D01*
X159609699Y-105388327D01*
X159788327Y-105209698D01*
X159885000Y-104976309D01*
X159885000Y-104835750D01*
X159871006Y-104821756D01*
X160023691Y-104885000D01*
X160164250Y-104885000D01*
X160323000Y-104726250D01*
X160323000Y-104125000D01*
X160303000Y-104125000D01*
X160303000Y-103875000D01*
X160323000Y-103875000D01*
X160323000Y-103853000D01*
X160577000Y-103853000D01*
X160577000Y-103875000D01*
X160597000Y-103875000D01*
X160597000Y-104125000D01*
X160577000Y-104125000D01*
X160577000Y-104726250D01*
X160735750Y-104885000D01*
X160876309Y-104885000D01*
X160988084Y-104838701D01*
X161002235Y-104848157D01*
X161250000Y-104897440D01*
X161850000Y-104897440D01*
X162097765Y-104848157D01*
X162307809Y-104707809D01*
X162448157Y-104497765D01*
X162497440Y-104250000D01*
X162497440Y-103750000D01*
X162448157Y-103502235D01*
X162307809Y-103292191D01*
X162293599Y-103282696D01*
X162265904Y-103143463D01*
X162097929Y-102892071D01*
X162034473Y-102849671D01*
X160895389Y-101710587D01*
X160907440Y-101650000D01*
X160907440Y-100150000D01*
X160858157Y-99902235D01*
X160820000Y-99845129D01*
X160820000Y-99803209D01*
X160902235Y-99858157D01*
X161150000Y-99907440D01*
X162650000Y-99907440D01*
X162897765Y-99858157D01*
X163107809Y-99717809D01*
X163248157Y-99507765D01*
X163297440Y-99260000D01*
X163297440Y-98860000D01*
X163275560Y-98750000D01*
X163297440Y-98640000D01*
X163297440Y-98360000D01*
X163275560Y-98250000D01*
X163297440Y-98140000D01*
X163297440Y-97860000D01*
X163277549Y-97760000D01*
X163885199Y-97760000D01*
X166320000Y-100194802D01*
X166320000Y-100194802D01*
G37*
X166320000Y-100194802D02*
X166320001Y-107891821D01*
X166009375Y-108099375D01*
X165681161Y-108590582D01*
X165565908Y-109170000D01*
X165681161Y-109749418D01*
X166009375Y-110240625D01*
X166083270Y-110290000D01*
X161501133Y-110290000D01*
X161788839Y-109859418D01*
X161904092Y-109280000D01*
X161788839Y-108700582D01*
X161460625Y-108209375D01*
X161150000Y-108001822D01*
X161150000Y-107774848D01*
X161164888Y-107700000D01*
X161150000Y-107625152D01*
X161150000Y-107625148D01*
X161105904Y-107403463D01*
X161105904Y-107403462D01*
X160980329Y-107215527D01*
X160937929Y-107152071D01*
X160874473Y-107109671D01*
X159127002Y-105362201D01*
X159127002Y-105328252D01*
X159283750Y-105485000D01*
X159376310Y-105485000D01*
X159609699Y-105388327D01*
X159788327Y-105209698D01*
X159885000Y-104976309D01*
X159885000Y-104835750D01*
X159871006Y-104821756D01*
X160023691Y-104885000D01*
X160164250Y-104885000D01*
X160323000Y-104726250D01*
X160323000Y-104125000D01*
X160303000Y-104125000D01*
X160303000Y-103875000D01*
X160323000Y-103875000D01*
X160323000Y-103853000D01*
X160577000Y-103853000D01*
X160577000Y-103875000D01*
X160597000Y-103875000D01*
X160597000Y-104125000D01*
X160577000Y-104125000D01*
X160577000Y-104726250D01*
X160735750Y-104885000D01*
X160876309Y-104885000D01*
X160988084Y-104838701D01*
X161002235Y-104848157D01*
X161250000Y-104897440D01*
X161850000Y-104897440D01*
X162097765Y-104848157D01*
X162307809Y-104707809D01*
X162448157Y-104497765D01*
X162497440Y-104250000D01*
X162497440Y-103750000D01*
X162448157Y-103502235D01*
X162307809Y-103292191D01*
X162293599Y-103282696D01*
X162265904Y-103143463D01*
X162097929Y-102892071D01*
X162034473Y-102849671D01*
X160895389Y-101710587D01*
X160907440Y-101650000D01*
X160907440Y-100150000D01*
X160858157Y-99902235D01*
X160820000Y-99845129D01*
X160820000Y-99803209D01*
X160902235Y-99858157D01*
X161150000Y-99907440D01*
X162650000Y-99907440D01*
X162897765Y-99858157D01*
X163107809Y-99717809D01*
X163248157Y-99507765D01*
X163297440Y-99260000D01*
X163297440Y-98860000D01*
X163275560Y-98750000D01*
X163297440Y-98640000D01*
X163297440Y-98360000D01*
X163275560Y-98250000D01*
X163297440Y-98140000D01*
X163297440Y-97860000D01*
X163277549Y-97760000D01*
X163885199Y-97760000D01*
X166320000Y-100194802D01*
G36*
X159125000Y-104423000D02*
X159147000Y-104423000D01*
X159147000Y-104677000D01*
X159125000Y-104677000D01*
X159125000Y-104697000D01*
X158875000Y-104697000D01*
X158875000Y-104677000D01*
X158853000Y-104677000D01*
X158853000Y-104423000D01*
X158875000Y-104423000D01*
X158875000Y-104403000D01*
X159125000Y-104403000D01*
X159125000Y-104423000D01*
X159125000Y-104423000D01*
G37*
X159125000Y-104423000D02*
X159147000Y-104423000D01*
X159147000Y-104677000D01*
X159125000Y-104677000D01*
X159125000Y-104697000D01*
X158875000Y-104697000D01*
X158875000Y-104677000D01*
X158853000Y-104677000D01*
X158853000Y-104423000D01*
X158875000Y-104423000D01*
X158875000Y-104403000D01*
X159125000Y-104403000D01*
X159125000Y-104423000D01*
G36*
X158540301Y-69761673D02*
X158361673Y-69940302D01*
X158265000Y-70173691D01*
X158265000Y-70614250D01*
X158423750Y-70773000D01*
X159373000Y-70773000D01*
X159373000Y-70753000D01*
X159627000Y-70753000D01*
X159627000Y-70773000D01*
X160576250Y-70773000D01*
X160735000Y-70614250D01*
X160735000Y-70173691D01*
X160638327Y-69940302D01*
X160459699Y-69761673D01*
X160334949Y-69710000D01*
X161415051Y-69710000D01*
X161290301Y-69761673D01*
X161111673Y-69940302D01*
X161015000Y-70173691D01*
X161015000Y-70614250D01*
X161173750Y-70773000D01*
X162123000Y-70773000D01*
X162123000Y-70753000D01*
X162377000Y-70753000D01*
X162377000Y-70773000D01*
X163326250Y-70773000D01*
X163485000Y-70614250D01*
X163485000Y-70173691D01*
X163388327Y-69940302D01*
X163209699Y-69761673D01*
X163084949Y-69710000D01*
X163915051Y-69710000D01*
X163790301Y-69761673D01*
X163611673Y-69940302D01*
X163515000Y-70173691D01*
X163515000Y-70614250D01*
X163673750Y-70773000D01*
X164623000Y-70773000D01*
X164623000Y-70753000D01*
X164877000Y-70753000D01*
X164877000Y-70773000D01*
X165826250Y-70773000D01*
X165985000Y-70614250D01*
X165985000Y-70173691D01*
X165888327Y-69940302D01*
X165709699Y-69761673D01*
X165584949Y-69710000D01*
X166415051Y-69710000D01*
X166290301Y-69761673D01*
X166111673Y-69940302D01*
X166015000Y-70173691D01*
X166015000Y-70614250D01*
X166173750Y-70773000D01*
X167123000Y-70773000D01*
X167123000Y-70753000D01*
X167377000Y-70753000D01*
X167377000Y-70773000D01*
X168326250Y-70773000D01*
X168485000Y-70614250D01*
X168485000Y-70173691D01*
X168388327Y-69940302D01*
X168209699Y-69761673D01*
X168084949Y-69710000D01*
X168915051Y-69710000D01*
X168790301Y-69761673D01*
X168611673Y-69940302D01*
X168515000Y-70173691D01*
X168515000Y-70614250D01*
X168673750Y-70773000D01*
X169623000Y-70773000D01*
X169623000Y-70753000D01*
X169877000Y-70753000D01*
X169877000Y-70773000D01*
X170826250Y-70773000D01*
X170985000Y-70614250D01*
X170985000Y-70173691D01*
X170888327Y-69940302D01*
X170709699Y-69761673D01*
X170584949Y-69710000D01*
X174773564Y-69710000D01*
X174671843Y-69862235D01*
X174668473Y-69879175D01*
X174593463Y-69894096D01*
X174342071Y-70062071D01*
X174299671Y-70125527D01*
X172765528Y-71659671D01*
X172702072Y-71702071D01*
X172659672Y-71765527D01*
X172659671Y-71765528D01*
X172534097Y-71953463D01*
X172475112Y-72250000D01*
X172490001Y-72324852D01*
X172490000Y-77685198D01*
X170510000Y-79665198D01*
X170510000Y-74315614D01*
X170597765Y-74298157D01*
X170807809Y-74157809D01*
X170948157Y-73947765D01*
X170997440Y-73700000D01*
X170997440Y-72500000D01*
X170948157Y-72252235D01*
X170807809Y-72042191D01*
X170746680Y-72001346D01*
X170888327Y-71859698D01*
X170985000Y-71626309D01*
X170985000Y-71185750D01*
X170826250Y-71027000D01*
X169877000Y-71027000D01*
X169877000Y-71047000D01*
X169623000Y-71047000D01*
X169623000Y-71027000D01*
X168673750Y-71027000D01*
X168515000Y-71185750D01*
X168515000Y-71626309D01*
X168611673Y-71859698D01*
X168753320Y-72001346D01*
X168692191Y-72042191D01*
X168551843Y-72252235D01*
X168502560Y-72500000D01*
X168502560Y-73700000D01*
X168551843Y-73947765D01*
X168692191Y-74157809D01*
X168902235Y-74298157D01*
X168990001Y-74315615D01*
X168990000Y-79685197D01*
X166753024Y-81922175D01*
X166682422Y-81875000D01*
X166857809Y-81757809D01*
X166957814Y-81608142D01*
X167047929Y-81547929D01*
X167090331Y-81484470D01*
X167734473Y-80840329D01*
X167797929Y-80797929D01*
X167965904Y-80546537D01*
X168010000Y-80324852D01*
X168010000Y-80324848D01*
X168024888Y-80250001D01*
X168010000Y-80175154D01*
X168010000Y-74315614D01*
X168097765Y-74298157D01*
X168307809Y-74157809D01*
X168448157Y-73947765D01*
X168497440Y-73700000D01*
X168497440Y-72500000D01*
X168448157Y-72252235D01*
X168307809Y-72042191D01*
X168246680Y-72001346D01*
X168388327Y-71859698D01*
X168485000Y-71626309D01*
X168485000Y-71185750D01*
X168326250Y-71027000D01*
X167377000Y-71027000D01*
X167377000Y-71047000D01*
X167123000Y-71047000D01*
X167123000Y-71027000D01*
X166173750Y-71027000D01*
X166015000Y-71185750D01*
X166015000Y-71626309D01*
X166111673Y-71859698D01*
X166253320Y-72001346D01*
X166192191Y-72042191D01*
X166051843Y-72252235D01*
X166002560Y-72500000D01*
X166002560Y-73277759D01*
X165997440Y-73272639D01*
X165997440Y-72500000D01*
X165948157Y-72252235D01*
X165807809Y-72042191D01*
X165746680Y-72001346D01*
X165888327Y-71859698D01*
X165985000Y-71626309D01*
X165985000Y-71185750D01*
X165826250Y-71027000D01*
X164877000Y-71027000D01*
X164877000Y-71047000D01*
X164623000Y-71047000D01*
X164623000Y-71027000D01*
X163673750Y-71027000D01*
X163515000Y-71185750D01*
X163515000Y-71626309D01*
X163611673Y-71859698D01*
X163753320Y-72001346D01*
X163692191Y-72042191D01*
X163551843Y-72252235D01*
X163502560Y-72500000D01*
X163502560Y-73277758D01*
X163497440Y-73272638D01*
X163497440Y-72500000D01*
X163448157Y-72252235D01*
X163307809Y-72042191D01*
X163246680Y-72001346D01*
X163388327Y-71859698D01*
X163485000Y-71626309D01*
X163485000Y-71185750D01*
X163326250Y-71027000D01*
X162377000Y-71027000D01*
X162377000Y-71047000D01*
X162123000Y-71047000D01*
X162123000Y-71027000D01*
X161173750Y-71027000D01*
X161015000Y-71185750D01*
X161015000Y-71626309D01*
X161111673Y-71859698D01*
X161253320Y-72001346D01*
X161192191Y-72042191D01*
X161051843Y-72252235D01*
X161002560Y-72500000D01*
X161002560Y-73521756D01*
X160984473Y-73509671D01*
X160747440Y-73272638D01*
X160747440Y-72500000D01*
X160698157Y-72252235D01*
X160557809Y-72042191D01*
X160496680Y-72001346D01*
X160638327Y-71859698D01*
X160735000Y-71626309D01*
X160735000Y-71185750D01*
X160576250Y-71027000D01*
X159627000Y-71027000D01*
X159627000Y-71047000D01*
X159373000Y-71047000D01*
X159373000Y-71027000D01*
X158423750Y-71027000D01*
X158265000Y-71185750D01*
X158265000Y-71626309D01*
X158361673Y-71859698D01*
X158503320Y-72001346D01*
X158442191Y-72042191D01*
X158301843Y-72252235D01*
X158252560Y-72500000D01*
X158252560Y-73700000D01*
X158301843Y-73947765D01*
X158442191Y-74157809D01*
X158652235Y-74298157D01*
X158900000Y-74347440D01*
X159672638Y-74347440D01*
X159740001Y-74414803D01*
X159740000Y-77145470D01*
X159622978Y-77320605D01*
X159416309Y-77235000D01*
X159225750Y-77235000D01*
X159067000Y-77393750D01*
X159067000Y-78393000D01*
X159087000Y-78393000D01*
X159087000Y-78647000D01*
X159067000Y-78647000D01*
X159067000Y-79646250D01*
X159225750Y-79805000D01*
X159370199Y-79805000D01*
X159185199Y-79990000D01*
X157074846Y-79990000D01*
X156999999Y-79975112D01*
X156925152Y-79990000D01*
X156925148Y-79990000D01*
X156703463Y-80034096D01*
X156675830Y-80052560D01*
X156515526Y-80159671D01*
X156515524Y-80159673D01*
X156452071Y-80202071D01*
X156409673Y-80265524D01*
X155015528Y-81659671D01*
X154952072Y-81702071D01*
X154909672Y-81765527D01*
X154909671Y-81765528D01*
X154784097Y-81953463D01*
X154725112Y-82250000D01*
X154740001Y-82324852D01*
X154740000Y-83722451D01*
X154640000Y-83702560D01*
X154360000Y-83702560D01*
X154260000Y-83722451D01*
X154260000Y-83244848D01*
X154274888Y-83170000D01*
X154260000Y-83095152D01*
X154260000Y-83095148D01*
X154215904Y-82873463D01*
X154047929Y-82622071D01*
X153984473Y-82579671D01*
X147280722Y-75875921D01*
X147350000Y-75772239D01*
X147549375Y-76070625D01*
X148040582Y-76398839D01*
X148473744Y-76485000D01*
X148766256Y-76485000D01*
X148986408Y-76441209D01*
X151579671Y-79034473D01*
X151622071Y-79097929D01*
X151873463Y-79265904D01*
X152095148Y-79310000D01*
X152095152Y-79310000D01*
X152169999Y-79324888D01*
X152244456Y-79310078D01*
X152271843Y-79447765D01*
X152412191Y-79657809D01*
X152622235Y-79798157D01*
X152870000Y-79847440D01*
X153570000Y-79847440D01*
X153817765Y-79798157D01*
X154027809Y-79657809D01*
X154168157Y-79447765D01*
X154170000Y-79438500D01*
X154171843Y-79447765D01*
X154312191Y-79657809D01*
X154522235Y-79798157D01*
X154770000Y-79847440D01*
X155470000Y-79847440D01*
X155717765Y-79798157D01*
X155927809Y-79657809D01*
X156068157Y-79447765D01*
X156082984Y-79373226D01*
X156091843Y-79417765D01*
X156232191Y-79627809D01*
X156442235Y-79768157D01*
X156690000Y-79817440D01*
X157390000Y-79817440D01*
X157637765Y-79768157D01*
X157847809Y-79627809D01*
X157988157Y-79417765D01*
X157993721Y-79389791D01*
X158051673Y-79529699D01*
X158230302Y-79708327D01*
X158463691Y-79805000D01*
X158654250Y-79805000D01*
X158813000Y-79646250D01*
X158813000Y-78647000D01*
X158793000Y-78647000D01*
X158793000Y-78393000D01*
X158813000Y-78393000D01*
X158813000Y-77393750D01*
X158654250Y-77235000D01*
X158463691Y-77235000D01*
X158230302Y-77331673D01*
X158051673Y-77510301D01*
X157993721Y-77650209D01*
X157988157Y-77622235D01*
X157847809Y-77412191D01*
X157637765Y-77271843D01*
X157390000Y-77222560D01*
X156690000Y-77222560D01*
X156442235Y-77271843D01*
X156232191Y-77412191D01*
X156091843Y-77622235D01*
X156077016Y-77696774D01*
X156068157Y-77652235D01*
X155927809Y-77442191D01*
X155920000Y-77436973D01*
X155920000Y-76474530D01*
X156058157Y-76267765D01*
X156107440Y-76020000D01*
X156107440Y-75620000D01*
X156058157Y-75372235D01*
X156056664Y-75370000D01*
X156058157Y-75367765D01*
X156107440Y-75120000D01*
X156107440Y-74720000D01*
X156058157Y-74472235D01*
X155917809Y-74262191D01*
X155707765Y-74121843D01*
X155460000Y-74072560D01*
X154860000Y-74072560D01*
X154612235Y-74121843D01*
X154435402Y-74240000D01*
X152438178Y-74240000D01*
X152230625Y-73929375D01*
X151930214Y-73728647D01*
X152355183Y-73341358D01*
X152601486Y-72816892D01*
X152480819Y-72587000D01*
X151287000Y-72587000D01*
X151287000Y-72607000D01*
X151033000Y-72607000D01*
X151033000Y-72587000D01*
X151013000Y-72587000D01*
X151013000Y-72333000D01*
X151033000Y-72333000D01*
X151033000Y-72313000D01*
X151287000Y-72313000D01*
X151287000Y-72333000D01*
X152480819Y-72333000D01*
X152601486Y-72103108D01*
X152355183Y-71578642D01*
X152005540Y-71260000D01*
X153435199Y-71260000D01*
X153465000Y-71289801D01*
X153465000Y-71455874D01*
X153622569Y-71836280D01*
X153913720Y-72127431D01*
X154294126Y-72285000D01*
X154705874Y-72285000D01*
X155086280Y-72127431D01*
X155377431Y-71836280D01*
X155535000Y-71455874D01*
X155535000Y-71044126D01*
X155377431Y-70663720D01*
X155086280Y-70372569D01*
X154705874Y-70215000D01*
X154539801Y-70215000D01*
X154340331Y-70015530D01*
X154297929Y-69952071D01*
X154046537Y-69784096D01*
X153824852Y-69740000D01*
X153824847Y-69740000D01*
X153750000Y-69725112D01*
X153675153Y-69740000D01*
X148114848Y-69740000D01*
X148040000Y-69725112D01*
X147965152Y-69740000D01*
X147965148Y-69740000D01*
X147743463Y-69784096D01*
X147492071Y-69952071D01*
X147449671Y-70015527D01*
X146446408Y-71018791D01*
X146226256Y-70975000D01*
X145933744Y-70975000D01*
X145500582Y-71061161D01*
X145009375Y-71389375D01*
X144796157Y-71708478D01*
X144735183Y-71578642D01*
X144306924Y-71188355D01*
X143896890Y-71018524D01*
X143667000Y-71139845D01*
X143667000Y-72333000D01*
X143687000Y-72333000D01*
X143687000Y-72587000D01*
X143667000Y-72587000D01*
X143667000Y-74873000D01*
X143687000Y-74873000D01*
X143687000Y-75127000D01*
X143667000Y-75127000D01*
X143667000Y-76320155D01*
X143896890Y-76441476D01*
X144306924Y-76271645D01*
X144735183Y-75881358D01*
X144796157Y-75751522D01*
X145009375Y-76070625D01*
X145500582Y-76398839D01*
X145692141Y-76436942D01*
X151110198Y-81855000D01*
X150974126Y-81855000D01*
X150593720Y-82012569D01*
X150302569Y-82303720D01*
X150145000Y-82684126D01*
X150145000Y-83095874D01*
X150240000Y-83325225D01*
X150240000Y-83722451D01*
X150140000Y-83702560D01*
X149860000Y-83702560D01*
X149750000Y-83724440D01*
X149640000Y-83702560D01*
X149360000Y-83702560D01*
X149250000Y-83724440D01*
X149140000Y-83702560D01*
X148860000Y-83702560D01*
X148776415Y-83719186D01*
X148766310Y-83715000D01*
X148728750Y-83715000D01*
X148711690Y-83732060D01*
X148700000Y-83734386D01*
X148700000Y-83424846D01*
X148714888Y-83349999D01*
X148700000Y-83275152D01*
X148700000Y-83275148D01*
X148684058Y-83195000D01*
X148697002Y-83195000D01*
X148697002Y-83036252D01*
X148855750Y-83195000D01*
X148996309Y-83195000D01*
X149229698Y-83098327D01*
X149408327Y-82919699D01*
X149505000Y-82686310D01*
X149505000Y-82593750D01*
X149346250Y-82435000D01*
X148697000Y-82435000D01*
X148697000Y-82457000D01*
X148443000Y-82457000D01*
X148443000Y-82435000D01*
X148423000Y-82435000D01*
X148423000Y-82185000D01*
X148443000Y-82185000D01*
X148443000Y-81583750D01*
X148697000Y-81583750D01*
X148697000Y-82185000D01*
X149346250Y-82185000D01*
X149505000Y-82026250D01*
X149505000Y-81933690D01*
X149408327Y-81700301D01*
X149229698Y-81521673D01*
X148996309Y-81425000D01*
X148855750Y-81425000D01*
X148697000Y-81583750D01*
X148443000Y-81583750D01*
X148284250Y-81425000D01*
X148143691Y-81425000D01*
X148031916Y-81471299D01*
X148017765Y-81461843D01*
X147770000Y-81412560D01*
X147170000Y-81412560D01*
X146922235Y-81461843D01*
X146828312Y-81524601D01*
X146736280Y-81432569D01*
X146355874Y-81275000D01*
X145944126Y-81275000D01*
X145563720Y-81432569D01*
X145272569Y-81723720D01*
X145115000Y-82104126D01*
X145115000Y-82515874D01*
X145272569Y-82896280D01*
X145563720Y-83187431D01*
X145944126Y-83345000D01*
X146355874Y-83345000D01*
X146736280Y-83187431D01*
X146752948Y-83170763D01*
X146754096Y-83176536D01*
X146922071Y-83427929D01*
X146985529Y-83470331D01*
X147180001Y-83664802D01*
X147180001Y-84045129D01*
X147141843Y-84102235D01*
X147092560Y-84350000D01*
X147092560Y-85850000D01*
X147141843Y-86097765D01*
X147230604Y-86230604D01*
X147097765Y-86141843D01*
X146850000Y-86092560D01*
X145350000Y-86092560D01*
X145102235Y-86141843D01*
X144892191Y-86282191D01*
X144751843Y-86492235D01*
X144702560Y-86740000D01*
X144702560Y-87140000D01*
X144724440Y-87250000D01*
X144702560Y-87360000D01*
X144702560Y-87640000D01*
X144724440Y-87750000D01*
X144702560Y-87860000D01*
X144702560Y-88140000D01*
X144724440Y-88249999D01*
X144702560Y-88360000D01*
X144702560Y-88640000D01*
X144724440Y-88749999D01*
X144702560Y-88860000D01*
X144702560Y-89140000D01*
X144724440Y-89250000D01*
X144709568Y-89324767D01*
X142250331Y-86865530D01*
X142207929Y-86802071D01*
X141956537Y-86634096D01*
X141759640Y-86594931D01*
X141757809Y-86592191D01*
X141547765Y-86451843D01*
X141510000Y-86444331D01*
X141510000Y-85824846D01*
X141524888Y-85749999D01*
X141510000Y-85675152D01*
X141510000Y-85675148D01*
X141465904Y-85453463D01*
X141447440Y-85425830D01*
X141447440Y-85250000D01*
X141398157Y-85002235D01*
X141257809Y-84792191D01*
X141047765Y-84651843D01*
X140800000Y-84602560D01*
X140200000Y-84602560D01*
X139952235Y-84651843D01*
X139938084Y-84661299D01*
X139826309Y-84615000D01*
X139685750Y-84615000D01*
X139527000Y-84773750D01*
X139527000Y-85375000D01*
X139547000Y-85375000D01*
X139547000Y-85625000D01*
X139527000Y-85625000D01*
X139527000Y-86226250D01*
X139685750Y-86385000D01*
X139826309Y-86385000D01*
X139938084Y-86338701D01*
X139952235Y-86348157D01*
X139990001Y-86355669D01*
X139990001Y-86444331D01*
X139952235Y-86451843D01*
X139742191Y-86592191D01*
X139601843Y-86802235D01*
X139589560Y-86863988D01*
X139538327Y-86740302D01*
X139359699Y-86561673D01*
X139126310Y-86465000D01*
X139033750Y-86465000D01*
X138875000Y-86623750D01*
X138875000Y-87273000D01*
X138897000Y-87273000D01*
X138897000Y-87527000D01*
X138875000Y-87527000D01*
X138875000Y-87547000D01*
X138625000Y-87547000D01*
X138625000Y-87527000D01*
X138023750Y-87527000D01*
X137865000Y-87685750D01*
X137865000Y-87826309D01*
X137911299Y-87938084D01*
X137901843Y-87952235D01*
X137852560Y-88200000D01*
X137852560Y-88800000D01*
X137901843Y-89047765D01*
X138042191Y-89257809D01*
X138252235Y-89398157D01*
X138500000Y-89447440D01*
X138675830Y-89447440D01*
X138703463Y-89465904D01*
X138925148Y-89510000D01*
X138925152Y-89510000D01*
X138999999Y-89524888D01*
X139074846Y-89510000D01*
X139745470Y-89510000D01*
X139952235Y-89648157D01*
X140200000Y-89697440D01*
X141300000Y-89697440D01*
X141547765Y-89648157D01*
X141754530Y-89510000D01*
X142095199Y-89510000D01*
X142920008Y-90334809D01*
X142710301Y-90421673D01*
X142531673Y-90600302D01*
X142435000Y-90833691D01*
X142435000Y-90974250D01*
X142593750Y-91133000D01*
X143195000Y-91133000D01*
X143195000Y-91113000D01*
X143445000Y-91113000D01*
X143445000Y-91133000D01*
X143467000Y-91133000D01*
X143467000Y-91387000D01*
X143445000Y-91387000D01*
X143445000Y-91407000D01*
X143195000Y-91407000D01*
X143195000Y-91387000D01*
X142593750Y-91387000D01*
X142435000Y-91545750D01*
X142435000Y-91686309D01*
X142481299Y-91798084D01*
X142471843Y-91812235D01*
X142422560Y-92060000D01*
X142422560Y-92550000D01*
X141764802Y-92550000D01*
X140650000Y-91435199D01*
X140650000Y-91034846D01*
X140664888Y-90959999D01*
X140650000Y-90885152D01*
X140650000Y-90885148D01*
X140605904Y-90663463D01*
X140437929Y-90412071D01*
X140374473Y-90369671D01*
X139890331Y-89885530D01*
X139847929Y-89822071D01*
X139596537Y-89654096D01*
X139374852Y-89610000D01*
X139374847Y-89610000D01*
X139300000Y-89595112D01*
X139225153Y-89610000D01*
X138164848Y-89610000D01*
X138090000Y-89595112D01*
X138015152Y-89610000D01*
X138015148Y-89610000D01*
X137841846Y-89644472D01*
X137793462Y-89654096D01*
X137638798Y-89757440D01*
X137542071Y-89822071D01*
X137499671Y-89885527D01*
X136982639Y-90402560D01*
X136800000Y-90402560D01*
X136552235Y-90451843D01*
X136342191Y-90592191D01*
X136243427Y-90740000D01*
X135229700Y-90740000D01*
X135097765Y-90651843D01*
X134850000Y-90602560D01*
X134250000Y-90602560D01*
X134002235Y-90651843D01*
X133988084Y-90661299D01*
X133876309Y-90615000D01*
X133735750Y-90615000D01*
X133577000Y-90773750D01*
X133577000Y-91375000D01*
X133597000Y-91375000D01*
X133597000Y-91625000D01*
X133577000Y-91625000D01*
X133577000Y-92226250D01*
X133735750Y-92385000D01*
X133876309Y-92385000D01*
X133988084Y-92338701D01*
X134002235Y-92348157D01*
X134250000Y-92397440D01*
X134850000Y-92397440D01*
X135097765Y-92348157D01*
X135229700Y-92260000D01*
X136164495Y-92260000D01*
X136201843Y-92447765D01*
X136236746Y-92500000D01*
X136201843Y-92552235D01*
X136164495Y-92740000D01*
X135229700Y-92740000D01*
X135097765Y-92651843D01*
X134850000Y-92602560D01*
X134250000Y-92602560D01*
X134002235Y-92651843D01*
X133988084Y-92661299D01*
X133876309Y-92615000D01*
X133735750Y-92615000D01*
X133577000Y-92773750D01*
X133577000Y-93375000D01*
X133597000Y-93375000D01*
X133597000Y-93625000D01*
X133577000Y-93625000D01*
X133577000Y-94226250D01*
X133735750Y-94385000D01*
X133876309Y-94385000D01*
X133988084Y-94338701D01*
X134002235Y-94348157D01*
X134250000Y-94397440D01*
X134850000Y-94397440D01*
X135097765Y-94348157D01*
X135229700Y-94260000D01*
X136243427Y-94260000D01*
X136342191Y-94407809D01*
X136552235Y-94548157D01*
X136752054Y-94587903D01*
X136752071Y-94587929D01*
X136815529Y-94630331D01*
X137199671Y-95014472D01*
X137233559Y-95065191D01*
X137125000Y-95173750D01*
X137125000Y-95823000D01*
X137726250Y-95823000D01*
X137885000Y-95664250D01*
X137885000Y-95523691D01*
X137794036Y-95304085D01*
X137864848Y-95290000D01*
X138211975Y-95290000D01*
X138211673Y-95290302D01*
X138115000Y-95523691D01*
X138115000Y-95664250D01*
X138273750Y-95823000D01*
X138875000Y-95823000D01*
X138875000Y-95803000D01*
X139125000Y-95803000D01*
X139125000Y-95823000D01*
X139726250Y-95823000D01*
X139885000Y-95664250D01*
X139885000Y-95523691D01*
X139788327Y-95290302D01*
X139788025Y-95290000D01*
X143355153Y-95290000D01*
X143430000Y-95304888D01*
X143504847Y-95290000D01*
X143504852Y-95290000D01*
X143726537Y-95245904D01*
X143977929Y-95077929D01*
X144020331Y-95014470D01*
X144709452Y-94325349D01*
X144702560Y-94360000D01*
X144702560Y-94640000D01*
X144724440Y-94750000D01*
X144702560Y-94860000D01*
X144702560Y-95140000D01*
X144724440Y-95250000D01*
X144702560Y-95360000D01*
X144702560Y-95640000D01*
X144719186Y-95723585D01*
X144715000Y-95733691D01*
X144715000Y-95740000D01*
X140784846Y-95740000D01*
X140709999Y-95725112D01*
X140635152Y-95740000D01*
X140635148Y-95740000D01*
X140413463Y-95784096D01*
X140355239Y-95823000D01*
X140225526Y-95909671D01*
X140225524Y-95909673D01*
X140162071Y-95952071D01*
X140119672Y-96015525D01*
X139885000Y-96250198D01*
X139885000Y-96235750D01*
X139726250Y-96077000D01*
X139125000Y-96077000D01*
X139125000Y-96097000D01*
X138875000Y-96097000D01*
X138875000Y-96077000D01*
X138273750Y-96077000D01*
X138115000Y-96235750D01*
X138115000Y-96290000D01*
X137885000Y-96290000D01*
X137885000Y-96235750D01*
X137726250Y-96077000D01*
X137125000Y-96077000D01*
X137125000Y-96097000D01*
X136875000Y-96097000D01*
X136875000Y-96077000D01*
X136273750Y-96077000D01*
X136115000Y-96235750D01*
X136115000Y-96252953D01*
X136107809Y-96242191D01*
X135897765Y-96101843D01*
X135650000Y-96052560D01*
X135250000Y-96052560D01*
X135002235Y-96101843D01*
X135000000Y-96103336D01*
X134997765Y-96101843D01*
X134750000Y-96052560D01*
X134350000Y-96052560D01*
X134102235Y-96101843D01*
X133952022Y-96202213D01*
X133928157Y-96082235D01*
X133787809Y-95872191D01*
X133577765Y-95731843D01*
X133330000Y-95682560D01*
X132630000Y-95682560D01*
X132382235Y-95731843D01*
X132172191Y-95872191D01*
X132031843Y-96082235D01*
X132030000Y-96091500D01*
X132028157Y-96082235D01*
X131887809Y-95872191D01*
X131840000Y-95840246D01*
X131840000Y-95613711D01*
X131857431Y-95596280D01*
X131887498Y-95523691D01*
X136115000Y-95523691D01*
X136115000Y-95664250D01*
X136273750Y-95823000D01*
X136875000Y-95823000D01*
X136875000Y-95173750D01*
X136716250Y-95015000D01*
X136623690Y-95015000D01*
X136390301Y-95111673D01*
X136211673Y-95290302D01*
X136115000Y-95523691D01*
X131887498Y-95523691D01*
X132015000Y-95215874D01*
X132015000Y-94804126D01*
X131857431Y-94423720D01*
X131566280Y-94132569D01*
X131185874Y-93975000D01*
X130774126Y-93975000D01*
X130710000Y-94001562D01*
X130710000Y-93783750D01*
X132515000Y-93783750D01*
X132515000Y-93876310D01*
X132611673Y-94109699D01*
X132790302Y-94288327D01*
X133023691Y-94385000D01*
X133164250Y-94385000D01*
X133323000Y-94226250D01*
X133323000Y-93625000D01*
X132673750Y-93625000D01*
X132515000Y-93783750D01*
X130710000Y-93783750D01*
X130710000Y-93123690D01*
X132515000Y-93123690D01*
X132515000Y-93216250D01*
X132673750Y-93375000D01*
X133323000Y-93375000D01*
X133323000Y-92773750D01*
X133164250Y-92615000D01*
X133023691Y-92615000D01*
X132790302Y-92711673D01*
X132611673Y-92890301D01*
X132515000Y-93123690D01*
X130710000Y-93123690D01*
X130710000Y-91783750D01*
X132515000Y-91783750D01*
X132515000Y-91876310D01*
X132611673Y-92109699D01*
X132790302Y-92288327D01*
X133023691Y-92385000D01*
X133164250Y-92385000D01*
X133323000Y-92226250D01*
X133323000Y-91625000D01*
X132673750Y-91625000D01*
X132515000Y-91783750D01*
X130710000Y-91783750D01*
X130710000Y-91123690D01*
X132515000Y-91123690D01*
X132515000Y-91216250D01*
X132673750Y-91375000D01*
X133323000Y-91375000D01*
X133323000Y-90773750D01*
X133164250Y-90615000D01*
X133023691Y-90615000D01*
X132790302Y-90711673D01*
X132611673Y-90890301D01*
X132515000Y-91123690D01*
X130710000Y-91123690D01*
X130710000Y-86973691D01*
X137865000Y-86973691D01*
X137865000Y-87114250D01*
X138023750Y-87273000D01*
X138625000Y-87273000D01*
X138625000Y-86623750D01*
X138466250Y-86465000D01*
X138373690Y-86465000D01*
X138140301Y-86561673D01*
X137961673Y-86740302D01*
X137865000Y-86973691D01*
X130710000Y-86973691D01*
X130710000Y-85783750D01*
X138465000Y-85783750D01*
X138465000Y-85876310D01*
X138561673Y-86109699D01*
X138740302Y-86288327D01*
X138973691Y-86385000D01*
X139114250Y-86385000D01*
X139273000Y-86226250D01*
X139273000Y-85625000D01*
X138623750Y-85625000D01*
X138465000Y-85783750D01*
X130710000Y-85783750D01*
X130710000Y-85123690D01*
X138465000Y-85123690D01*
X138465000Y-85216250D01*
X138623750Y-85375000D01*
X139273000Y-85375000D01*
X139273000Y-84773750D01*
X139114250Y-84615000D01*
X138973691Y-84615000D01*
X138740302Y-84711673D01*
X138561673Y-84890301D01*
X138465000Y-85123690D01*
X130710000Y-85123690D01*
X130710000Y-77109126D01*
X132730000Y-77109126D01*
X132730000Y-77520874D01*
X132887569Y-77901280D01*
X133005000Y-78018711D01*
X133005001Y-78150469D01*
X132866843Y-78357235D01*
X132817560Y-78605000D01*
X132817560Y-79105000D01*
X132866843Y-79352765D01*
X133007191Y-79562809D01*
X133217235Y-79703157D01*
X133465000Y-79752440D01*
X134065000Y-79752440D01*
X134312765Y-79703157D01*
X134326916Y-79693701D01*
X134438691Y-79740000D01*
X134579250Y-79740000D01*
X134738000Y-79581250D01*
X134738000Y-78980000D01*
X134992000Y-78980000D01*
X134992000Y-79581250D01*
X135150750Y-79740000D01*
X135291309Y-79740000D01*
X135524698Y-79643327D01*
X135703327Y-79464699D01*
X135800000Y-79231310D01*
X135800000Y-79138750D01*
X135641250Y-78980000D01*
X134992000Y-78980000D01*
X134738000Y-78980000D01*
X134718000Y-78980000D01*
X134718000Y-78730000D01*
X134738000Y-78730000D01*
X134738000Y-78128750D01*
X134992000Y-78128750D01*
X134992000Y-78730000D01*
X135641250Y-78730000D01*
X135800000Y-78571250D01*
X135800000Y-78478690D01*
X135703327Y-78245301D01*
X135524698Y-78066673D01*
X135291309Y-77970000D01*
X135150750Y-77970000D01*
X134992000Y-78128750D01*
X134738000Y-78128750D01*
X134579250Y-77970000D01*
X134573711Y-77970000D01*
X134642431Y-77901280D01*
X134800000Y-77520874D01*
X134800000Y-77109126D01*
X134682879Y-76826371D01*
X134738000Y-76771250D01*
X134738000Y-76170000D01*
X134992000Y-76170000D01*
X134992000Y-76771250D01*
X135150750Y-76930000D01*
X135291309Y-76930000D01*
X135524698Y-76833327D01*
X135703327Y-76654699D01*
X135800000Y-76421310D01*
X135800000Y-76328750D01*
X135641250Y-76170000D01*
X134992000Y-76170000D01*
X134738000Y-76170000D01*
X134718000Y-76170000D01*
X134718000Y-75920000D01*
X134738000Y-75920000D01*
X134738000Y-75318750D01*
X134992000Y-75318750D01*
X134992000Y-75920000D01*
X135641250Y-75920000D01*
X135800000Y-75761250D01*
X135800000Y-75668690D01*
X135703327Y-75435301D01*
X135524698Y-75256673D01*
X135291309Y-75160000D01*
X135150750Y-75160000D01*
X134992000Y-75318750D01*
X134738000Y-75318750D01*
X134579250Y-75160000D01*
X134525000Y-75160000D01*
X134525000Y-73890000D01*
X134579250Y-73890000D01*
X134738000Y-73731250D01*
X134738000Y-73130000D01*
X134992000Y-73130000D01*
X134992000Y-73731250D01*
X135150750Y-73890000D01*
X135291309Y-73890000D01*
X135524698Y-73793327D01*
X135648025Y-73670000D01*
X137975112Y-73670000D01*
X137990000Y-73744847D01*
X137990001Y-79465148D01*
X137975112Y-79540000D01*
X138034097Y-79836537D01*
X138112225Y-79953463D01*
X138202072Y-80087929D01*
X138265528Y-80130329D01*
X143195000Y-85059803D01*
X143195000Y-85235874D01*
X143352569Y-85616280D01*
X143643720Y-85907431D01*
X144024126Y-86065000D01*
X144435874Y-86065000D01*
X144816280Y-85907431D01*
X145107431Y-85616280D01*
X145265000Y-85235874D01*
X145265000Y-84824126D01*
X145107431Y-84443720D01*
X144816280Y-84152569D01*
X144435874Y-83995000D01*
X144279803Y-83995000D01*
X140869802Y-80585000D01*
X141065874Y-80585000D01*
X141446280Y-80427431D01*
X141737431Y-80136280D01*
X141895000Y-79755874D01*
X141895000Y-79344126D01*
X141848538Y-79231956D01*
X141918157Y-79127765D01*
X141967440Y-78880000D01*
X141967440Y-78681151D01*
X142163720Y-78877431D01*
X142544126Y-79035000D01*
X142955874Y-79035000D01*
X143336280Y-78877431D01*
X143627431Y-78586280D01*
X143785000Y-78205874D01*
X143785000Y-77794126D01*
X143627431Y-77413720D01*
X143336280Y-77122569D01*
X142955874Y-76965000D01*
X142544126Y-76965000D01*
X142411344Y-77020000D01*
X141780000Y-77020000D01*
X141780000Y-76497440D01*
X141850000Y-76497440D01*
X142097765Y-76448157D01*
X142307809Y-76307809D01*
X142448157Y-76097765D01*
X142468739Y-75994292D01*
X142773076Y-76271645D01*
X143183110Y-76441476D01*
X143413000Y-76320155D01*
X143413000Y-75127000D01*
X143393000Y-75127000D01*
X143393000Y-74873000D01*
X143413000Y-74873000D01*
X143413000Y-72587000D01*
X143393000Y-72587000D01*
X143393000Y-72333000D01*
X143413000Y-72333000D01*
X143413000Y-71139845D01*
X143183110Y-71018524D01*
X142773076Y-71188355D01*
X142344817Y-71578642D01*
X142283843Y-71708478D01*
X142070625Y-71389375D01*
X141579418Y-71061161D01*
X141146256Y-70975000D01*
X140853744Y-70975000D01*
X140420582Y-71061161D01*
X139929375Y-71389375D01*
X139696787Y-71737467D01*
X139663463Y-71744096D01*
X139631388Y-71765528D01*
X139475526Y-71869671D01*
X139475524Y-71869673D01*
X139412071Y-71912071D01*
X139369673Y-71975524D01*
X138265530Y-73079669D01*
X138202071Y-73122071D01*
X138034096Y-73373464D01*
X137990000Y-73595149D01*
X137990000Y-73595153D01*
X137975112Y-73670000D01*
X135648025Y-73670000D01*
X135703327Y-73614699D01*
X135800000Y-73381310D01*
X135800000Y-73288750D01*
X135641250Y-73130000D01*
X134992000Y-73130000D01*
X134738000Y-73130000D01*
X134718000Y-73130000D01*
X134718000Y-72880000D01*
X134738000Y-72880000D01*
X134738000Y-72278750D01*
X134992000Y-72278750D01*
X134992000Y-72880000D01*
X135641250Y-72880000D01*
X135800000Y-72721250D01*
X135800000Y-72628690D01*
X135703327Y-72395301D01*
X135524698Y-72216673D01*
X135291309Y-72120000D01*
X135150750Y-72120000D01*
X134992000Y-72278750D01*
X134738000Y-72278750D01*
X134579250Y-72120000D01*
X134438691Y-72120000D01*
X134326916Y-72166299D01*
X134312765Y-72156843D01*
X134065000Y-72107560D01*
X133465000Y-72107560D01*
X133217235Y-72156843D01*
X133007191Y-72297191D01*
X132866843Y-72507235D01*
X132817560Y-72755000D01*
X132817560Y-73255000D01*
X132866843Y-73502765D01*
X133005000Y-73709530D01*
X133005001Y-75340469D01*
X132866843Y-75547235D01*
X132817560Y-75795000D01*
X132817560Y-76295000D01*
X132866843Y-76542765D01*
X132949628Y-76666661D01*
X132887569Y-76728720D01*
X132730000Y-77109126D01*
X130710000Y-77109126D01*
X130710000Y-69710000D01*
X158665051Y-69710000D01*
X158540301Y-69761673D01*
X158540301Y-69761673D01*
G37*
X158540301Y-69761673D02*
X158361673Y-69940302D01*
X158265000Y-70173691D01*
X158265000Y-70614250D01*
X158423750Y-70773000D01*
X159373000Y-70773000D01*
X159373000Y-70753000D01*
X159627000Y-70753000D01*
X159627000Y-70773000D01*
X160576250Y-70773000D01*
X160735000Y-70614250D01*
X160735000Y-70173691D01*
X160638327Y-69940302D01*
X160459699Y-69761673D01*
X160334949Y-69710000D01*
X161415051Y-69710000D01*
X161290301Y-69761673D01*
X161111673Y-69940302D01*
X161015000Y-70173691D01*
X161015000Y-70614250D01*
X161173750Y-70773000D01*
X162123000Y-70773000D01*
X162123000Y-70753000D01*
X162377000Y-70753000D01*
X162377000Y-70773000D01*
X163326250Y-70773000D01*
X163485000Y-70614250D01*
X163485000Y-70173691D01*
X163388327Y-69940302D01*
X163209699Y-69761673D01*
X163084949Y-69710000D01*
X163915051Y-69710000D01*
X163790301Y-69761673D01*
X163611673Y-69940302D01*
X163515000Y-70173691D01*
X163515000Y-70614250D01*
X163673750Y-70773000D01*
X164623000Y-70773000D01*
X164623000Y-70753000D01*
X164877000Y-70753000D01*
X164877000Y-70773000D01*
X165826250Y-70773000D01*
X165985000Y-70614250D01*
X165985000Y-70173691D01*
X165888327Y-69940302D01*
X165709699Y-69761673D01*
X165584949Y-69710000D01*
X166415051Y-69710000D01*
X166290301Y-69761673D01*
X166111673Y-69940302D01*
X166015000Y-70173691D01*
X166015000Y-70614250D01*
X166173750Y-70773000D01*
X167123000Y-70773000D01*
X167123000Y-70753000D01*
X167377000Y-70753000D01*
X167377000Y-70773000D01*
X168326250Y-70773000D01*
X168485000Y-70614250D01*
X168485000Y-70173691D01*
X168388327Y-69940302D01*
X168209699Y-69761673D01*
X168084949Y-69710000D01*
X168915051Y-69710000D01*
X168790301Y-69761673D01*
X168611673Y-69940302D01*
X168515000Y-70173691D01*
X168515000Y-70614250D01*
X168673750Y-70773000D01*
X169623000Y-70773000D01*
X169623000Y-70753000D01*
X169877000Y-70753000D01*
X169877000Y-70773000D01*
X170826250Y-70773000D01*
X170985000Y-70614250D01*
X170985000Y-70173691D01*
X170888327Y-69940302D01*
X170709699Y-69761673D01*
X170584949Y-69710000D01*
X174773564Y-69710000D01*
X174671843Y-69862235D01*
X174668473Y-69879175D01*
X174593463Y-69894096D01*
X174342071Y-70062071D01*
X174299671Y-70125527D01*
X172765528Y-71659671D01*
X172702072Y-71702071D01*
X172659672Y-71765527D01*
X172659671Y-71765528D01*
X172534097Y-71953463D01*
X172475112Y-72250000D01*
X172490001Y-72324852D01*
X172490000Y-77685198D01*
X170510000Y-79665198D01*
X170510000Y-74315614D01*
X170597765Y-74298157D01*
X170807809Y-74157809D01*
X170948157Y-73947765D01*
X170997440Y-73700000D01*
X170997440Y-72500000D01*
X170948157Y-72252235D01*
X170807809Y-72042191D01*
X170746680Y-72001346D01*
X170888327Y-71859698D01*
X170985000Y-71626309D01*
X170985000Y-71185750D01*
X170826250Y-71027000D01*
X169877000Y-71027000D01*
X169877000Y-71047000D01*
X169623000Y-71047000D01*
X169623000Y-71027000D01*
X168673750Y-71027000D01*
X168515000Y-71185750D01*
X168515000Y-71626309D01*
X168611673Y-71859698D01*
X168753320Y-72001346D01*
X168692191Y-72042191D01*
X168551843Y-72252235D01*
X168502560Y-72500000D01*
X168502560Y-73700000D01*
X168551843Y-73947765D01*
X168692191Y-74157809D01*
X168902235Y-74298157D01*
X168990001Y-74315615D01*
X168990000Y-79685197D01*
X166753024Y-81922175D01*
X166682422Y-81875000D01*
X166857809Y-81757809D01*
X166957814Y-81608142D01*
X167047929Y-81547929D01*
X167090331Y-81484470D01*
X167734473Y-80840329D01*
X167797929Y-80797929D01*
X167965904Y-80546537D01*
X168010000Y-80324852D01*
X168010000Y-80324848D01*
X168024888Y-80250001D01*
X168010000Y-80175154D01*
X168010000Y-74315614D01*
X168097765Y-74298157D01*
X168307809Y-74157809D01*
X168448157Y-73947765D01*
X168497440Y-73700000D01*
X168497440Y-72500000D01*
X168448157Y-72252235D01*
X168307809Y-72042191D01*
X168246680Y-72001346D01*
X168388327Y-71859698D01*
X168485000Y-71626309D01*
X168485000Y-71185750D01*
X168326250Y-71027000D01*
X167377000Y-71027000D01*
X167377000Y-71047000D01*
X167123000Y-71047000D01*
X167123000Y-71027000D01*
X166173750Y-71027000D01*
X166015000Y-71185750D01*
X166015000Y-71626309D01*
X166111673Y-71859698D01*
X166253320Y-72001346D01*
X166192191Y-72042191D01*
X166051843Y-72252235D01*
X166002560Y-72500000D01*
X166002560Y-73277759D01*
X165997440Y-73272639D01*
X165997440Y-72500000D01*
X165948157Y-72252235D01*
X165807809Y-72042191D01*
X165746680Y-72001346D01*
X165888327Y-71859698D01*
X165985000Y-71626309D01*
X165985000Y-71185750D01*
X165826250Y-71027000D01*
X164877000Y-71027000D01*
X164877000Y-71047000D01*
X164623000Y-71047000D01*
X164623000Y-71027000D01*
X163673750Y-71027000D01*
X163515000Y-71185750D01*
X163515000Y-71626309D01*
X163611673Y-71859698D01*
X163753320Y-72001346D01*
X163692191Y-72042191D01*
X163551843Y-72252235D01*
X163502560Y-72500000D01*
X163502560Y-73277758D01*
X163497440Y-73272638D01*
X163497440Y-72500000D01*
X163448157Y-72252235D01*
X163307809Y-72042191D01*
X163246680Y-72001346D01*
X163388327Y-71859698D01*
X163485000Y-71626309D01*
X163485000Y-71185750D01*
X163326250Y-71027000D01*
X162377000Y-71027000D01*
X162377000Y-71047000D01*
X162123000Y-71047000D01*
X162123000Y-71027000D01*
X161173750Y-71027000D01*
X161015000Y-71185750D01*
X161015000Y-71626309D01*
X161111673Y-71859698D01*
X161253320Y-72001346D01*
X161192191Y-72042191D01*
X161051843Y-72252235D01*
X161002560Y-72500000D01*
X161002560Y-73521756D01*
X160984473Y-73509671D01*
X160747440Y-73272638D01*
X160747440Y-72500000D01*
X160698157Y-72252235D01*
X160557809Y-72042191D01*
X160496680Y-72001346D01*
X160638327Y-71859698D01*
X160735000Y-71626309D01*
X160735000Y-71185750D01*
X160576250Y-71027000D01*
X159627000Y-71027000D01*
X159627000Y-71047000D01*
X159373000Y-71047000D01*
X159373000Y-71027000D01*
X158423750Y-71027000D01*
X158265000Y-71185750D01*
X158265000Y-71626309D01*
X158361673Y-71859698D01*
X158503320Y-72001346D01*
X158442191Y-72042191D01*
X158301843Y-72252235D01*
X158252560Y-72500000D01*
X158252560Y-73700000D01*
X158301843Y-73947765D01*
X158442191Y-74157809D01*
X158652235Y-74298157D01*
X158900000Y-74347440D01*
X159672638Y-74347440D01*
X159740001Y-74414803D01*
X159740000Y-77145470D01*
X159622978Y-77320605D01*
X159416309Y-77235000D01*
X159225750Y-77235000D01*
X159067000Y-77393750D01*
X159067000Y-78393000D01*
X159087000Y-78393000D01*
X159087000Y-78647000D01*
X159067000Y-78647000D01*
X159067000Y-79646250D01*
X159225750Y-79805000D01*
X159370199Y-79805000D01*
X159185199Y-79990000D01*
X157074846Y-79990000D01*
X156999999Y-79975112D01*
X156925152Y-79990000D01*
X156925148Y-79990000D01*
X156703463Y-80034096D01*
X156675830Y-80052560D01*
X156515526Y-80159671D01*
X156515524Y-80159673D01*
X156452071Y-80202071D01*
X156409673Y-80265524D01*
X155015528Y-81659671D01*
X154952072Y-81702071D01*
X154909672Y-81765527D01*
X154909671Y-81765528D01*
X154784097Y-81953463D01*
X154725112Y-82250000D01*
X154740001Y-82324852D01*
X154740000Y-83722451D01*
X154640000Y-83702560D01*
X154360000Y-83702560D01*
X154260000Y-83722451D01*
X154260000Y-83244848D01*
X154274888Y-83170000D01*
X154260000Y-83095152D01*
X154260000Y-83095148D01*
X154215904Y-82873463D01*
X154047929Y-82622071D01*
X153984473Y-82579671D01*
X147280722Y-75875921D01*
X147350000Y-75772239D01*
X147549375Y-76070625D01*
X148040582Y-76398839D01*
X148473744Y-76485000D01*
X148766256Y-76485000D01*
X148986408Y-76441209D01*
X151579671Y-79034473D01*
X151622071Y-79097929D01*
X151873463Y-79265904D01*
X152095148Y-79310000D01*
X152095152Y-79310000D01*
X152169999Y-79324888D01*
X152244456Y-79310078D01*
X152271843Y-79447765D01*
X152412191Y-79657809D01*
X152622235Y-79798157D01*
X152870000Y-79847440D01*
X153570000Y-79847440D01*
X153817765Y-79798157D01*
X154027809Y-79657809D01*
X154168157Y-79447765D01*
X154170000Y-79438500D01*
X154171843Y-79447765D01*
X154312191Y-79657809D01*
X154522235Y-79798157D01*
X154770000Y-79847440D01*
X155470000Y-79847440D01*
X155717765Y-79798157D01*
X155927809Y-79657809D01*
X156068157Y-79447765D01*
X156082984Y-79373226D01*
X156091843Y-79417765D01*
X156232191Y-79627809D01*
X156442235Y-79768157D01*
X156690000Y-79817440D01*
X157390000Y-79817440D01*
X157637765Y-79768157D01*
X157847809Y-79627809D01*
X157988157Y-79417765D01*
X157993721Y-79389791D01*
X158051673Y-79529699D01*
X158230302Y-79708327D01*
X158463691Y-79805000D01*
X158654250Y-79805000D01*
X158813000Y-79646250D01*
X158813000Y-78647000D01*
X158793000Y-78647000D01*
X158793000Y-78393000D01*
X158813000Y-78393000D01*
X158813000Y-77393750D01*
X158654250Y-77235000D01*
X158463691Y-77235000D01*
X158230302Y-77331673D01*
X158051673Y-77510301D01*
X157993721Y-77650209D01*
X157988157Y-77622235D01*
X157847809Y-77412191D01*
X157637765Y-77271843D01*
X157390000Y-77222560D01*
X156690000Y-77222560D01*
X156442235Y-77271843D01*
X156232191Y-77412191D01*
X156091843Y-77622235D01*
X156077016Y-77696774D01*
X156068157Y-77652235D01*
X155927809Y-77442191D01*
X155920000Y-77436973D01*
X155920000Y-76474530D01*
X156058157Y-76267765D01*
X156107440Y-76020000D01*
X156107440Y-75620000D01*
X156058157Y-75372235D01*
X156056664Y-75370000D01*
X156058157Y-75367765D01*
X156107440Y-75120000D01*
X156107440Y-74720000D01*
X156058157Y-74472235D01*
X155917809Y-74262191D01*
X155707765Y-74121843D01*
X155460000Y-74072560D01*
X154860000Y-74072560D01*
X154612235Y-74121843D01*
X154435402Y-74240000D01*
X152438178Y-74240000D01*
X152230625Y-73929375D01*
X151930214Y-73728647D01*
X152355183Y-73341358D01*
X152601486Y-72816892D01*
X152480819Y-72587000D01*
X151287000Y-72587000D01*
X151287000Y-72607000D01*
X151033000Y-72607000D01*
X151033000Y-72587000D01*
X151013000Y-72587000D01*
X151013000Y-72333000D01*
X151033000Y-72333000D01*
X151033000Y-72313000D01*
X151287000Y-72313000D01*
X151287000Y-72333000D01*
X152480819Y-72333000D01*
X152601486Y-72103108D01*
X152355183Y-71578642D01*
X152005540Y-71260000D01*
X153435199Y-71260000D01*
X153465000Y-71289801D01*
X153465000Y-71455874D01*
X153622569Y-71836280D01*
X153913720Y-72127431D01*
X154294126Y-72285000D01*
X154705874Y-72285000D01*
X155086280Y-72127431D01*
X155377431Y-71836280D01*
X155535000Y-71455874D01*
X155535000Y-71044126D01*
X155377431Y-70663720D01*
X155086280Y-70372569D01*
X154705874Y-70215000D01*
X154539801Y-70215000D01*
X154340331Y-70015530D01*
X154297929Y-69952071D01*
X154046537Y-69784096D01*
X153824852Y-69740000D01*
X153824847Y-69740000D01*
X153750000Y-69725112D01*
X153675153Y-69740000D01*
X148114848Y-69740000D01*
X148040000Y-69725112D01*
X147965152Y-69740000D01*
X147965148Y-69740000D01*
X147743463Y-69784096D01*
X147492071Y-69952071D01*
X147449671Y-70015527D01*
X146446408Y-71018791D01*
X146226256Y-70975000D01*
X145933744Y-70975000D01*
X145500582Y-71061161D01*
X145009375Y-71389375D01*
X144796157Y-71708478D01*
X144735183Y-71578642D01*
X144306924Y-71188355D01*
X143896890Y-71018524D01*
X143667000Y-71139845D01*
X143667000Y-72333000D01*
X143687000Y-72333000D01*
X143687000Y-72587000D01*
X143667000Y-72587000D01*
X143667000Y-74873000D01*
X143687000Y-74873000D01*
X143687000Y-75127000D01*
X143667000Y-75127000D01*
X143667000Y-76320155D01*
X143896890Y-76441476D01*
X144306924Y-76271645D01*
X144735183Y-75881358D01*
X144796157Y-75751522D01*
X145009375Y-76070625D01*
X145500582Y-76398839D01*
X145692141Y-76436942D01*
X151110198Y-81855000D01*
X150974126Y-81855000D01*
X150593720Y-82012569D01*
X150302569Y-82303720D01*
X150145000Y-82684126D01*
X150145000Y-83095874D01*
X150240000Y-83325225D01*
X150240000Y-83722451D01*
X150140000Y-83702560D01*
X149860000Y-83702560D01*
X149750000Y-83724440D01*
X149640000Y-83702560D01*
X149360000Y-83702560D01*
X149250000Y-83724440D01*
X149140000Y-83702560D01*
X148860000Y-83702560D01*
X148776415Y-83719186D01*
X148766310Y-83715000D01*
X148728750Y-83715000D01*
X148711690Y-83732060D01*
X148700000Y-83734386D01*
X148700000Y-83424846D01*
X148714888Y-83349999D01*
X148700000Y-83275152D01*
X148700000Y-83275148D01*
X148684058Y-83195000D01*
X148697002Y-83195000D01*
X148697002Y-83036252D01*
X148855750Y-83195000D01*
X148996309Y-83195000D01*
X149229698Y-83098327D01*
X149408327Y-82919699D01*
X149505000Y-82686310D01*
X149505000Y-82593750D01*
X149346250Y-82435000D01*
X148697000Y-82435000D01*
X148697000Y-82457000D01*
X148443000Y-82457000D01*
X148443000Y-82435000D01*
X148423000Y-82435000D01*
X148423000Y-82185000D01*
X148443000Y-82185000D01*
X148443000Y-81583750D01*
X148697000Y-81583750D01*
X148697000Y-82185000D01*
X149346250Y-82185000D01*
X149505000Y-82026250D01*
X149505000Y-81933690D01*
X149408327Y-81700301D01*
X149229698Y-81521673D01*
X148996309Y-81425000D01*
X148855750Y-81425000D01*
X148697000Y-81583750D01*
X148443000Y-81583750D01*
X148284250Y-81425000D01*
X148143691Y-81425000D01*
X148031916Y-81471299D01*
X148017765Y-81461843D01*
X147770000Y-81412560D01*
X147170000Y-81412560D01*
X146922235Y-81461843D01*
X146828312Y-81524601D01*
X146736280Y-81432569D01*
X146355874Y-81275000D01*
X145944126Y-81275000D01*
X145563720Y-81432569D01*
X145272569Y-81723720D01*
X145115000Y-82104126D01*
X145115000Y-82515874D01*
X145272569Y-82896280D01*
X145563720Y-83187431D01*
X145944126Y-83345000D01*
X146355874Y-83345000D01*
X146736280Y-83187431D01*
X146752948Y-83170763D01*
X146754096Y-83176536D01*
X146922071Y-83427929D01*
X146985529Y-83470331D01*
X147180001Y-83664802D01*
X147180001Y-84045129D01*
X147141843Y-84102235D01*
X147092560Y-84350000D01*
X147092560Y-85850000D01*
X147141843Y-86097765D01*
X147230604Y-86230604D01*
X147097765Y-86141843D01*
X146850000Y-86092560D01*
X145350000Y-86092560D01*
X145102235Y-86141843D01*
X144892191Y-86282191D01*
X144751843Y-86492235D01*
X144702560Y-86740000D01*
X144702560Y-87140000D01*
X144724440Y-87250000D01*
X144702560Y-87360000D01*
X144702560Y-87640000D01*
X144724440Y-87750000D01*
X144702560Y-87860000D01*
X144702560Y-88140000D01*
X144724440Y-88249999D01*
X144702560Y-88360000D01*
X144702560Y-88640000D01*
X144724440Y-88749999D01*
X144702560Y-88860000D01*
X144702560Y-89140000D01*
X144724440Y-89250000D01*
X144709568Y-89324767D01*
X142250331Y-86865530D01*
X142207929Y-86802071D01*
X141956537Y-86634096D01*
X141759640Y-86594931D01*
X141757809Y-86592191D01*
X141547765Y-86451843D01*
X141510000Y-86444331D01*
X141510000Y-85824846D01*
X141524888Y-85749999D01*
X141510000Y-85675152D01*
X141510000Y-85675148D01*
X141465904Y-85453463D01*
X141447440Y-85425830D01*
X141447440Y-85250000D01*
X141398157Y-85002235D01*
X141257809Y-84792191D01*
X141047765Y-84651843D01*
X140800000Y-84602560D01*
X140200000Y-84602560D01*
X139952235Y-84651843D01*
X139938084Y-84661299D01*
X139826309Y-84615000D01*
X139685750Y-84615000D01*
X139527000Y-84773750D01*
X139527000Y-85375000D01*
X139547000Y-85375000D01*
X139547000Y-85625000D01*
X139527000Y-85625000D01*
X139527000Y-86226250D01*
X139685750Y-86385000D01*
X139826309Y-86385000D01*
X139938084Y-86338701D01*
X139952235Y-86348157D01*
X139990001Y-86355669D01*
X139990001Y-86444331D01*
X139952235Y-86451843D01*
X139742191Y-86592191D01*
X139601843Y-86802235D01*
X139589560Y-86863988D01*
X139538327Y-86740302D01*
X139359699Y-86561673D01*
X139126310Y-86465000D01*
X139033750Y-86465000D01*
X138875000Y-86623750D01*
X138875000Y-87273000D01*
X138897000Y-87273000D01*
X138897000Y-87527000D01*
X138875000Y-87527000D01*
X138875000Y-87547000D01*
X138625000Y-87547000D01*
X138625000Y-87527000D01*
X138023750Y-87527000D01*
X137865000Y-87685750D01*
X137865000Y-87826309D01*
X137911299Y-87938084D01*
X137901843Y-87952235D01*
X137852560Y-88200000D01*
X137852560Y-88800000D01*
X137901843Y-89047765D01*
X138042191Y-89257809D01*
X138252235Y-89398157D01*
X138500000Y-89447440D01*
X138675830Y-89447440D01*
X138703463Y-89465904D01*
X138925148Y-89510000D01*
X138925152Y-89510000D01*
X138999999Y-89524888D01*
X139074846Y-89510000D01*
X139745470Y-89510000D01*
X139952235Y-89648157D01*
X140200000Y-89697440D01*
X141300000Y-89697440D01*
X141547765Y-89648157D01*
X141754530Y-89510000D01*
X142095199Y-89510000D01*
X142920008Y-90334809D01*
X142710301Y-90421673D01*
X142531673Y-90600302D01*
X142435000Y-90833691D01*
X142435000Y-90974250D01*
X142593750Y-91133000D01*
X143195000Y-91133000D01*
X143195000Y-91113000D01*
X143445000Y-91113000D01*
X143445000Y-91133000D01*
X143467000Y-91133000D01*
X143467000Y-91387000D01*
X143445000Y-91387000D01*
X143445000Y-91407000D01*
X143195000Y-91407000D01*
X143195000Y-91387000D01*
X142593750Y-91387000D01*
X142435000Y-91545750D01*
X142435000Y-91686309D01*
X142481299Y-91798084D01*
X142471843Y-91812235D01*
X142422560Y-92060000D01*
X142422560Y-92550000D01*
X141764802Y-92550000D01*
X140650000Y-91435199D01*
X140650000Y-91034846D01*
X140664888Y-90959999D01*
X140650000Y-90885152D01*
X140650000Y-90885148D01*
X140605904Y-90663463D01*
X140437929Y-90412071D01*
X140374473Y-90369671D01*
X139890331Y-89885530D01*
X139847929Y-89822071D01*
X139596537Y-89654096D01*
X139374852Y-89610000D01*
X139374847Y-89610000D01*
X139300000Y-89595112D01*
X139225153Y-89610000D01*
X138164848Y-89610000D01*
X138090000Y-89595112D01*
X138015152Y-89610000D01*
X138015148Y-89610000D01*
X137841846Y-89644472D01*
X137793462Y-89654096D01*
X137638798Y-89757440D01*
X137542071Y-89822071D01*
X137499671Y-89885527D01*
X136982639Y-90402560D01*
X136800000Y-90402560D01*
X136552235Y-90451843D01*
X136342191Y-90592191D01*
X136243427Y-90740000D01*
X135229700Y-90740000D01*
X135097765Y-90651843D01*
X134850000Y-90602560D01*
X134250000Y-90602560D01*
X134002235Y-90651843D01*
X133988084Y-90661299D01*
X133876309Y-90615000D01*
X133735750Y-90615000D01*
X133577000Y-90773750D01*
X133577000Y-91375000D01*
X133597000Y-91375000D01*
X133597000Y-91625000D01*
X133577000Y-91625000D01*
X133577000Y-92226250D01*
X133735750Y-92385000D01*
X133876309Y-92385000D01*
X133988084Y-92338701D01*
X134002235Y-92348157D01*
X134250000Y-92397440D01*
X134850000Y-92397440D01*
X135097765Y-92348157D01*
X135229700Y-92260000D01*
X136164495Y-92260000D01*
X136201843Y-92447765D01*
X136236746Y-92500000D01*
X136201843Y-92552235D01*
X136164495Y-92740000D01*
X135229700Y-92740000D01*
X135097765Y-92651843D01*
X134850000Y-92602560D01*
X134250000Y-92602560D01*
X134002235Y-92651843D01*
X133988084Y-92661299D01*
X133876309Y-92615000D01*
X133735750Y-92615000D01*
X133577000Y-92773750D01*
X133577000Y-93375000D01*
X133597000Y-93375000D01*
X133597000Y-93625000D01*
X133577000Y-93625000D01*
X133577000Y-94226250D01*
X133735750Y-94385000D01*
X133876309Y-94385000D01*
X133988084Y-94338701D01*
X134002235Y-94348157D01*
X134250000Y-94397440D01*
X134850000Y-94397440D01*
X135097765Y-94348157D01*
X135229700Y-94260000D01*
X136243427Y-94260000D01*
X136342191Y-94407809D01*
X136552235Y-94548157D01*
X136752054Y-94587903D01*
X136752071Y-94587929D01*
X136815529Y-94630331D01*
X137199671Y-95014472D01*
X137233559Y-95065191D01*
X137125000Y-95173750D01*
X137125000Y-95823000D01*
X137726250Y-95823000D01*
X137885000Y-95664250D01*
X137885000Y-95523691D01*
X137794036Y-95304085D01*
X137864848Y-95290000D01*
X138211975Y-95290000D01*
X138211673Y-95290302D01*
X138115000Y-95523691D01*
X138115000Y-95664250D01*
X138273750Y-95823000D01*
X138875000Y-95823000D01*
X138875000Y-95803000D01*
X139125000Y-95803000D01*
X139125000Y-95823000D01*
X139726250Y-95823000D01*
X139885000Y-95664250D01*
X139885000Y-95523691D01*
X139788327Y-95290302D01*
X139788025Y-95290000D01*
X143355153Y-95290000D01*
X143430000Y-95304888D01*
X143504847Y-95290000D01*
X143504852Y-95290000D01*
X143726537Y-95245904D01*
X143977929Y-95077929D01*
X144020331Y-95014470D01*
X144709452Y-94325349D01*
X144702560Y-94360000D01*
X144702560Y-94640000D01*
X144724440Y-94750000D01*
X144702560Y-94860000D01*
X144702560Y-95140000D01*
X144724440Y-95250000D01*
X144702560Y-95360000D01*
X144702560Y-95640000D01*
X144719186Y-95723585D01*
X144715000Y-95733691D01*
X144715000Y-95740000D01*
X140784846Y-95740000D01*
X140709999Y-95725112D01*
X140635152Y-95740000D01*
X140635148Y-95740000D01*
X140413463Y-95784096D01*
X140355239Y-95823000D01*
X140225526Y-95909671D01*
X140225524Y-95909673D01*
X140162071Y-95952071D01*
X140119672Y-96015525D01*
X139885000Y-96250198D01*
X139885000Y-96235750D01*
X139726250Y-96077000D01*
X139125000Y-96077000D01*
X139125000Y-96097000D01*
X138875000Y-96097000D01*
X138875000Y-96077000D01*
X138273750Y-96077000D01*
X138115000Y-96235750D01*
X138115000Y-96290000D01*
X137885000Y-96290000D01*
X137885000Y-96235750D01*
X137726250Y-96077000D01*
X137125000Y-96077000D01*
X137125000Y-96097000D01*
X136875000Y-96097000D01*
X136875000Y-96077000D01*
X136273750Y-96077000D01*
X136115000Y-96235750D01*
X136115000Y-96252953D01*
X136107809Y-96242191D01*
X135897765Y-96101843D01*
X135650000Y-96052560D01*
X135250000Y-96052560D01*
X135002235Y-96101843D01*
X135000000Y-96103336D01*
X134997765Y-96101843D01*
X134750000Y-96052560D01*
X134350000Y-96052560D01*
X134102235Y-96101843D01*
X133952022Y-96202213D01*
X133928157Y-96082235D01*
X133787809Y-95872191D01*
X133577765Y-95731843D01*
X133330000Y-95682560D01*
X132630000Y-95682560D01*
X132382235Y-95731843D01*
X132172191Y-95872191D01*
X132031843Y-96082235D01*
X132030000Y-96091500D01*
X132028157Y-96082235D01*
X131887809Y-95872191D01*
X131840000Y-95840246D01*
X131840000Y-95613711D01*
X131857431Y-95596280D01*
X131887498Y-95523691D01*
X136115000Y-95523691D01*
X136115000Y-95664250D01*
X136273750Y-95823000D01*
X136875000Y-95823000D01*
X136875000Y-95173750D01*
X136716250Y-95015000D01*
X136623690Y-95015000D01*
X136390301Y-95111673D01*
X136211673Y-95290302D01*
X136115000Y-95523691D01*
X131887498Y-95523691D01*
X132015000Y-95215874D01*
X132015000Y-94804126D01*
X131857431Y-94423720D01*
X131566280Y-94132569D01*
X131185874Y-93975000D01*
X130774126Y-93975000D01*
X130710000Y-94001562D01*
X130710000Y-93783750D01*
X132515000Y-93783750D01*
X132515000Y-93876310D01*
X132611673Y-94109699D01*
X132790302Y-94288327D01*
X133023691Y-94385000D01*
X133164250Y-94385000D01*
X133323000Y-94226250D01*
X133323000Y-93625000D01*
X132673750Y-93625000D01*
X132515000Y-93783750D01*
X130710000Y-93783750D01*
X130710000Y-93123690D01*
X132515000Y-93123690D01*
X132515000Y-93216250D01*
X132673750Y-93375000D01*
X133323000Y-93375000D01*
X133323000Y-92773750D01*
X133164250Y-92615000D01*
X133023691Y-92615000D01*
X132790302Y-92711673D01*
X132611673Y-92890301D01*
X132515000Y-93123690D01*
X130710000Y-93123690D01*
X130710000Y-91783750D01*
X132515000Y-91783750D01*
X132515000Y-91876310D01*
X132611673Y-92109699D01*
X132790302Y-92288327D01*
X133023691Y-92385000D01*
X133164250Y-92385000D01*
X133323000Y-92226250D01*
X133323000Y-91625000D01*
X132673750Y-91625000D01*
X132515000Y-91783750D01*
X130710000Y-91783750D01*
X130710000Y-91123690D01*
X132515000Y-91123690D01*
X132515000Y-91216250D01*
X132673750Y-91375000D01*
X133323000Y-91375000D01*
X133323000Y-90773750D01*
X133164250Y-90615000D01*
X133023691Y-90615000D01*
X132790302Y-90711673D01*
X132611673Y-90890301D01*
X132515000Y-91123690D01*
X130710000Y-91123690D01*
X130710000Y-86973691D01*
X137865000Y-86973691D01*
X137865000Y-87114250D01*
X138023750Y-87273000D01*
X138625000Y-87273000D01*
X138625000Y-86623750D01*
X138466250Y-86465000D01*
X138373690Y-86465000D01*
X138140301Y-86561673D01*
X137961673Y-86740302D01*
X137865000Y-86973691D01*
X130710000Y-86973691D01*
X130710000Y-85783750D01*
X138465000Y-85783750D01*
X138465000Y-85876310D01*
X138561673Y-86109699D01*
X138740302Y-86288327D01*
X138973691Y-86385000D01*
X139114250Y-86385000D01*
X139273000Y-86226250D01*
X139273000Y-85625000D01*
X138623750Y-85625000D01*
X138465000Y-85783750D01*
X130710000Y-85783750D01*
X130710000Y-85123690D01*
X138465000Y-85123690D01*
X138465000Y-85216250D01*
X138623750Y-85375000D01*
X139273000Y-85375000D01*
X139273000Y-84773750D01*
X139114250Y-84615000D01*
X138973691Y-84615000D01*
X138740302Y-84711673D01*
X138561673Y-84890301D01*
X138465000Y-85123690D01*
X130710000Y-85123690D01*
X130710000Y-77109126D01*
X132730000Y-77109126D01*
X132730000Y-77520874D01*
X132887569Y-77901280D01*
X133005000Y-78018711D01*
X133005001Y-78150469D01*
X132866843Y-78357235D01*
X132817560Y-78605000D01*
X132817560Y-79105000D01*
X132866843Y-79352765D01*
X133007191Y-79562809D01*
X133217235Y-79703157D01*
X133465000Y-79752440D01*
X134065000Y-79752440D01*
X134312765Y-79703157D01*
X134326916Y-79693701D01*
X134438691Y-79740000D01*
X134579250Y-79740000D01*
X134738000Y-79581250D01*
X134738000Y-78980000D01*
X134992000Y-78980000D01*
X134992000Y-79581250D01*
X135150750Y-79740000D01*
X135291309Y-79740000D01*
X135524698Y-79643327D01*
X135703327Y-79464699D01*
X135800000Y-79231310D01*
X135800000Y-79138750D01*
X135641250Y-78980000D01*
X134992000Y-78980000D01*
X134738000Y-78980000D01*
X134718000Y-78980000D01*
X134718000Y-78730000D01*
X134738000Y-78730000D01*
X134738000Y-78128750D01*
X134992000Y-78128750D01*
X134992000Y-78730000D01*
X135641250Y-78730000D01*
X135800000Y-78571250D01*
X135800000Y-78478690D01*
X135703327Y-78245301D01*
X135524698Y-78066673D01*
X135291309Y-77970000D01*
X135150750Y-77970000D01*
X134992000Y-78128750D01*
X134738000Y-78128750D01*
X134579250Y-77970000D01*
X134573711Y-77970000D01*
X134642431Y-77901280D01*
X134800000Y-77520874D01*
X134800000Y-77109126D01*
X134682879Y-76826371D01*
X134738000Y-76771250D01*
X134738000Y-76170000D01*
X134992000Y-76170000D01*
X134992000Y-76771250D01*
X135150750Y-76930000D01*
X135291309Y-76930000D01*
X135524698Y-76833327D01*
X135703327Y-76654699D01*
X135800000Y-76421310D01*
X135800000Y-76328750D01*
X135641250Y-76170000D01*
X134992000Y-76170000D01*
X134738000Y-76170000D01*
X134718000Y-76170000D01*
X134718000Y-75920000D01*
X134738000Y-75920000D01*
X134738000Y-75318750D01*
X134992000Y-75318750D01*
X134992000Y-75920000D01*
X135641250Y-75920000D01*
X135800000Y-75761250D01*
X135800000Y-75668690D01*
X135703327Y-75435301D01*
X135524698Y-75256673D01*
X135291309Y-75160000D01*
X135150750Y-75160000D01*
X134992000Y-75318750D01*
X134738000Y-75318750D01*
X134579250Y-75160000D01*
X134525000Y-75160000D01*
X134525000Y-73890000D01*
X134579250Y-73890000D01*
X134738000Y-73731250D01*
X134738000Y-73130000D01*
X134992000Y-73130000D01*
X134992000Y-73731250D01*
X135150750Y-73890000D01*
X135291309Y-73890000D01*
X135524698Y-73793327D01*
X135648025Y-73670000D01*
X137975112Y-73670000D01*
X137990000Y-73744847D01*
X137990001Y-79465148D01*
X137975112Y-79540000D01*
X138034097Y-79836537D01*
X138112225Y-79953463D01*
X138202072Y-80087929D01*
X138265528Y-80130329D01*
X143195000Y-85059803D01*
X143195000Y-85235874D01*
X143352569Y-85616280D01*
X143643720Y-85907431D01*
X144024126Y-86065000D01*
X144435874Y-86065000D01*
X144816280Y-85907431D01*
X145107431Y-85616280D01*
X145265000Y-85235874D01*
X145265000Y-84824126D01*
X145107431Y-84443720D01*
X144816280Y-84152569D01*
X144435874Y-83995000D01*
X144279803Y-83995000D01*
X140869802Y-80585000D01*
X141065874Y-80585000D01*
X141446280Y-80427431D01*
X141737431Y-80136280D01*
X141895000Y-79755874D01*
X141895000Y-79344126D01*
X141848538Y-79231956D01*
X141918157Y-79127765D01*
X141967440Y-78880000D01*
X141967440Y-78681151D01*
X142163720Y-78877431D01*
X142544126Y-79035000D01*
X142955874Y-79035000D01*
X143336280Y-78877431D01*
X143627431Y-78586280D01*
X143785000Y-78205874D01*
X143785000Y-77794126D01*
X143627431Y-77413720D01*
X143336280Y-77122569D01*
X142955874Y-76965000D01*
X142544126Y-76965000D01*
X142411344Y-77020000D01*
X141780000Y-77020000D01*
X141780000Y-76497440D01*
X141850000Y-76497440D01*
X142097765Y-76448157D01*
X142307809Y-76307809D01*
X142448157Y-76097765D01*
X142468739Y-75994292D01*
X142773076Y-76271645D01*
X143183110Y-76441476D01*
X143413000Y-76320155D01*
X143413000Y-75127000D01*
X143393000Y-75127000D01*
X143393000Y-74873000D01*
X143413000Y-74873000D01*
X143413000Y-72587000D01*
X143393000Y-72587000D01*
X143393000Y-72333000D01*
X143413000Y-72333000D01*
X143413000Y-71139845D01*
X143183110Y-71018524D01*
X142773076Y-71188355D01*
X142344817Y-71578642D01*
X142283843Y-71708478D01*
X142070625Y-71389375D01*
X141579418Y-71061161D01*
X141146256Y-70975000D01*
X140853744Y-70975000D01*
X140420582Y-71061161D01*
X139929375Y-71389375D01*
X139696787Y-71737467D01*
X139663463Y-71744096D01*
X139631388Y-71765528D01*
X139475526Y-71869671D01*
X139475524Y-71869673D01*
X139412071Y-71912071D01*
X139369673Y-71975524D01*
X138265530Y-73079669D01*
X138202071Y-73122071D01*
X138034096Y-73373464D01*
X137990000Y-73595149D01*
X137990000Y-73595153D01*
X137975112Y-73670000D01*
X135648025Y-73670000D01*
X135703327Y-73614699D01*
X135800000Y-73381310D01*
X135800000Y-73288750D01*
X135641250Y-73130000D01*
X134992000Y-73130000D01*
X134738000Y-73130000D01*
X134718000Y-73130000D01*
X134718000Y-72880000D01*
X134738000Y-72880000D01*
X134738000Y-72278750D01*
X134992000Y-72278750D01*
X134992000Y-72880000D01*
X135641250Y-72880000D01*
X135800000Y-72721250D01*
X135800000Y-72628690D01*
X135703327Y-72395301D01*
X135524698Y-72216673D01*
X135291309Y-72120000D01*
X135150750Y-72120000D01*
X134992000Y-72278750D01*
X134738000Y-72278750D01*
X134579250Y-72120000D01*
X134438691Y-72120000D01*
X134326916Y-72166299D01*
X134312765Y-72156843D01*
X134065000Y-72107560D01*
X133465000Y-72107560D01*
X133217235Y-72156843D01*
X133007191Y-72297191D01*
X132866843Y-72507235D01*
X132817560Y-72755000D01*
X132817560Y-73255000D01*
X132866843Y-73502765D01*
X133005000Y-73709530D01*
X133005001Y-75340469D01*
X132866843Y-75547235D01*
X132817560Y-75795000D01*
X132817560Y-76295000D01*
X132866843Y-76542765D01*
X132949628Y-76666661D01*
X132887569Y-76728720D01*
X132730000Y-77109126D01*
X130710000Y-77109126D01*
X130710000Y-69710000D01*
X158665051Y-69710000D01*
X158540301Y-69761673D01*
G36*
X167490000Y-90185198D02*
X165935199Y-91740000D01*
X164744801Y-91740000D01*
X165669802Y-90815000D01*
X165835874Y-90815000D01*
X166216280Y-90657431D01*
X166507431Y-90366280D01*
X166665000Y-89985874D01*
X166665000Y-89574126D01*
X166507431Y-89193720D01*
X166216280Y-88902569D01*
X166075087Y-88844085D01*
X166209698Y-88788327D01*
X166388327Y-88609699D01*
X166485000Y-88376310D01*
X166485000Y-88283750D01*
X166326250Y-88125000D01*
X165677000Y-88125000D01*
X165677000Y-88147000D01*
X165423000Y-88147000D01*
X165423000Y-88125000D01*
X165403000Y-88125000D01*
X165403000Y-87875000D01*
X165423000Y-87875000D01*
X165423000Y-87853000D01*
X165677000Y-87853000D01*
X165677000Y-87875000D01*
X166326250Y-87875000D01*
X166485000Y-87716250D01*
X166485000Y-87623690D01*
X166388327Y-87390301D01*
X166209698Y-87211673D01*
X165976309Y-87115000D01*
X165835750Y-87115000D01*
X165821756Y-87128994D01*
X165885000Y-86976309D01*
X165885000Y-86835750D01*
X165726250Y-86677000D01*
X165125000Y-86677000D01*
X165125000Y-86697000D01*
X164875000Y-86697000D01*
X164875000Y-86677000D01*
X164853000Y-86677000D01*
X164853000Y-86423000D01*
X164875000Y-86423000D01*
X164875000Y-86403000D01*
X165125000Y-86403000D01*
X165125000Y-86423000D01*
X165726250Y-86423000D01*
X165885000Y-86264250D01*
X165885000Y-86123691D01*
X165838701Y-86011916D01*
X165848157Y-85997765D01*
X165897440Y-85750000D01*
X165897440Y-85150000D01*
X165848157Y-84902235D01*
X165833465Y-84880246D01*
X165877431Y-84836280D01*
X166035000Y-84455874D01*
X166035000Y-84044126D01*
X165881647Y-83673898D01*
X166000000Y-83697440D01*
X166400000Y-83697440D01*
X166647765Y-83648157D01*
X166854530Y-83510000D01*
X166925153Y-83510000D01*
X167000000Y-83524888D01*
X167074847Y-83510000D01*
X167074852Y-83510000D01*
X167296537Y-83465904D01*
X167490001Y-83336635D01*
X167490000Y-90185198D01*
X167490000Y-90185198D01*
G37*
X167490000Y-90185198D02*
X165935199Y-91740000D01*
X164744801Y-91740000D01*
X165669802Y-90815000D01*
X165835874Y-90815000D01*
X166216280Y-90657431D01*
X166507431Y-90366280D01*
X166665000Y-89985874D01*
X166665000Y-89574126D01*
X166507431Y-89193720D01*
X166216280Y-88902569D01*
X166075087Y-88844085D01*
X166209698Y-88788327D01*
X166388327Y-88609699D01*
X166485000Y-88376310D01*
X166485000Y-88283750D01*
X166326250Y-88125000D01*
X165677000Y-88125000D01*
X165677000Y-88147000D01*
X165423000Y-88147000D01*
X165423000Y-88125000D01*
X165403000Y-88125000D01*
X165403000Y-87875000D01*
X165423000Y-87875000D01*
X165423000Y-87853000D01*
X165677000Y-87853000D01*
X165677000Y-87875000D01*
X166326250Y-87875000D01*
X166485000Y-87716250D01*
X166485000Y-87623690D01*
X166388327Y-87390301D01*
X166209698Y-87211673D01*
X165976309Y-87115000D01*
X165835750Y-87115000D01*
X165821756Y-87128994D01*
X165885000Y-86976309D01*
X165885000Y-86835750D01*
X165726250Y-86677000D01*
X165125000Y-86677000D01*
X165125000Y-86697000D01*
X164875000Y-86697000D01*
X164875000Y-86677000D01*
X164853000Y-86677000D01*
X164853000Y-86423000D01*
X164875000Y-86423000D01*
X164875000Y-86403000D01*
X165125000Y-86403000D01*
X165125000Y-86423000D01*
X165726250Y-86423000D01*
X165885000Y-86264250D01*
X165885000Y-86123691D01*
X165838701Y-86011916D01*
X165848157Y-85997765D01*
X165897440Y-85750000D01*
X165897440Y-85150000D01*
X165848157Y-84902235D01*
X165833465Y-84880246D01*
X165877431Y-84836280D01*
X166035000Y-84455874D01*
X166035000Y-84044126D01*
X165881647Y-83673898D01*
X166000000Y-83697440D01*
X166400000Y-83697440D01*
X166647765Y-83648157D01*
X166854530Y-83510000D01*
X166925153Y-83510000D01*
X167000000Y-83524888D01*
X167074847Y-83510000D01*
X167074852Y-83510000D01*
X167296537Y-83465904D01*
X167490001Y-83336635D01*
X167490000Y-90185198D01*
G04 #@! TD*
M02*
