G04 #@! TF.GenerationSoftware,KiCad,Pcbnew,(5.0.0)*
G04 #@! TF.CreationDate,2018-10-31T15:25:37+01:00*
G04 #@! TF.ProjectId,Digital,4469676974616C2E6B696361645F7063,rev?*
G04 #@! TF.SameCoordinates,Original*
G04 #@! TF.FileFunction,Legend,Top*
G04 #@! TF.FilePolarity,Positive*
%FSLAX46Y46*%
G04 Gerber Fmt 4.6, Leading zero omitted, Abs format (unit mm)*
G04 Created by KiCad (PCBNEW (5.0.0)) date 10/31/18 15:25:37*
%MOMM*%
%LPD*%
G01*
G04 APERTURE LIST*
%ADD10C,0.120000*%
%ADD11C,0.127000*%
%ADD12C,0.100000*%
%ADD13C,0.254000*%
%ADD14C,0.381000*%
%ADD15C,0.150000*%
%ADD16C,0.050000*%
G04 APERTURE END LIST*
D10*
G04 #@! TO.C,Y2*
X141550000Y-89250000D02*
X141550000Y-86850000D01*
X141550000Y-86850000D02*
X139950000Y-86850000D01*
X139950000Y-86850000D02*
X139950000Y-89250000D01*
G04 #@! TO.C,O*
X162950000Y-70200000D02*
X162950000Y-73000000D01*
X161550000Y-70200000D02*
X161550000Y-73000000D01*
X162950000Y-70200000D02*
X161550000Y-70200000D01*
G04 #@! TO.C,G*
X170450000Y-70200000D02*
X169050000Y-70200000D01*
X169050000Y-70200000D02*
X169050000Y-73000000D01*
X170450000Y-70200000D02*
X170450000Y-73000000D01*
G04 #@! TO.C,R*
X167950000Y-70200000D02*
X167950000Y-73000000D01*
X166550000Y-70200000D02*
X166550000Y-73000000D01*
X167950000Y-70200000D02*
X166550000Y-70200000D01*
G04 #@! TO.C,Y*
X160200000Y-70200000D02*
X158800000Y-70200000D01*
X158800000Y-70200000D02*
X158800000Y-73000000D01*
X160200000Y-70200000D02*
X160200000Y-73000000D01*
G04 #@! TO.C,B*
X165450000Y-70200000D02*
X165450000Y-73000000D01*
X164050000Y-70200000D02*
X164050000Y-73000000D01*
X165450000Y-70200000D02*
X164050000Y-70200000D01*
G04 #@! TO.C,R7*
X165500000Y-83280000D02*
X166000000Y-83280000D01*
X166000000Y-82220000D02*
X165500000Y-82220000D01*
G04 #@! TO.C,R8*
X166000000Y-80470000D02*
X165500000Y-80470000D01*
X165500000Y-81530000D02*
X166000000Y-81530000D01*
G04 #@! TO.C,R9*
X165500000Y-79780000D02*
X166000000Y-79780000D01*
X166000000Y-78720000D02*
X165500000Y-78720000D01*
G04 #@! TO.C,R10*
X162970000Y-78000000D02*
X162970000Y-78500000D01*
X164030000Y-78500000D02*
X164030000Y-78000000D01*
G04 #@! TO.C,R11*
X161030000Y-78500000D02*
X161030000Y-78000000D01*
X159970000Y-78000000D02*
X159970000Y-78500000D01*
G04 #@! TO.C,R2*
X153570000Y-77670000D02*
X154770000Y-77670000D01*
X154770000Y-79430000D02*
X153570000Y-79430000D01*
G04 #@! TO.C,R3*
X157390000Y-77640000D02*
X158590000Y-77640000D01*
X158590000Y-79400000D02*
X157390000Y-79400000D01*
G04 #@! TO.C,DAC1*
X136870000Y-110590000D02*
X136870000Y-109260000D01*
X138200000Y-110590000D02*
X136870000Y-110590000D01*
X139470000Y-110590000D02*
X139470000Y-107930000D01*
X139470000Y-107930000D02*
X142070000Y-107930000D01*
X139470000Y-110590000D02*
X142070000Y-110590000D01*
X142070000Y-110590000D02*
X142070000Y-107930000D01*
G04 #@! TO.C,DigitalPWR1*
X169820000Y-89820000D02*
X172480000Y-89820000D01*
X169820000Y-87220000D02*
X169820000Y-89820000D01*
X172480000Y-87220000D02*
X172480000Y-89820000D01*
X169820000Y-87220000D02*
X172480000Y-87220000D01*
X169820000Y-85950000D02*
X169820000Y-84620000D01*
X169820000Y-84620000D02*
X171150000Y-84620000D01*
G04 #@! TO.C,I2C1*
X156520000Y-110610000D02*
X156520000Y-109280000D01*
X157850000Y-110610000D02*
X156520000Y-110610000D01*
X159120000Y-110610000D02*
X159120000Y-107950000D01*
X159120000Y-107950000D02*
X161720000Y-107950000D01*
X159120000Y-110610000D02*
X161720000Y-110610000D01*
X161720000Y-110610000D02*
X161720000Y-107950000D01*
G04 #@! TO.C,ADC1*
X132240000Y-110780000D02*
X134900000Y-110780000D01*
X132240000Y-103100000D02*
X132240000Y-110780000D01*
X134900000Y-103100000D02*
X134900000Y-110780000D01*
X132240000Y-103100000D02*
X134900000Y-103100000D01*
X132240000Y-101830000D02*
X132240000Y-100500000D01*
X132240000Y-100500000D02*
X133570000Y-100500000D01*
G04 #@! TO.C,ADC2*
X144320000Y-110610000D02*
X144320000Y-109280000D01*
X145650000Y-110610000D02*
X144320000Y-110610000D01*
X146920000Y-110610000D02*
X146920000Y-107950000D01*
X146920000Y-107950000D02*
X154600000Y-107950000D01*
X146920000Y-110610000D02*
X154600000Y-110610000D01*
X154600000Y-110610000D02*
X154600000Y-107950000D01*
G04 #@! TO.C,GPIO1*
X186190000Y-107840000D02*
X186190000Y-109170000D01*
X184860000Y-107840000D02*
X186190000Y-107840000D01*
X183590000Y-107840000D02*
X183590000Y-110500000D01*
X183590000Y-110500000D02*
X165750000Y-110500000D01*
X183590000Y-107840000D02*
X165750000Y-107840000D01*
X165750000Y-107840000D02*
X165750000Y-110500000D01*
G04 #@! TO.C,J1*
X139670000Y-76330000D02*
X139670000Y-75000000D01*
X141000000Y-76330000D02*
X139670000Y-76330000D01*
X139670000Y-73730000D02*
X139670000Y-71130000D01*
X142270000Y-73730000D02*
X139670000Y-73730000D01*
X142270000Y-76330000D02*
X142270000Y-73730000D01*
X139670000Y-71130000D02*
X152490000Y-71130000D01*
X142270000Y-76330000D02*
X152490000Y-76330000D01*
X152490000Y-76330000D02*
X152490000Y-71130000D01*
D11*
G04 #@! TO.C,U1*
X161000000Y-86000000D02*
X161000000Y-100000000D01*
X161000000Y-100000000D02*
X147000000Y-100000000D01*
X147000000Y-100000000D02*
X147000000Y-86000000D01*
X161000000Y-86000000D02*
X147000000Y-86000000D01*
X149000000Y-87500000D02*
G75*
G03X149000000Y-87500000I-500000J0D01*
G01*
D12*
X146054000Y-86000000D02*
G75*
G03X146054000Y-86000000I-254000J0D01*
G01*
D11*
G36*
X148000000Y-87500000D02*
X148000000Y-98513090D01*
X148001370Y-98539240D01*
X148004110Y-98565280D01*
X148008200Y-98591150D01*
X148013650Y-98616760D01*
X148020430Y-98642050D01*
X148028520Y-98666960D01*
X148037900Y-98691400D01*
X148048550Y-98715330D01*
X148060440Y-98738660D01*
X148073530Y-98761340D01*
X148087790Y-98783300D01*
X148103190Y-98804480D01*
X148119660Y-98824830D01*
X148137190Y-98844290D01*
X148155700Y-98862810D01*
X148175160Y-98880330D01*
X148195510Y-98896810D01*
X148216700Y-98912200D01*
X148238660Y-98926460D01*
X148261340Y-98939560D01*
X148284670Y-98951450D01*
X148308590Y-98962100D01*
X148333040Y-98971480D01*
X148357940Y-98979570D01*
X148383230Y-98986350D01*
X148408850Y-98991800D01*
X148434710Y-98995890D01*
X148460750Y-98998630D01*
X148486900Y-99000000D01*
X148500000Y-99000000D01*
X148513090Y-99000000D01*
X148539240Y-98998630D01*
X148565280Y-98995890D01*
X148591150Y-98991800D01*
X148616760Y-98986350D01*
X148642050Y-98979570D01*
X148666960Y-98971480D01*
X148691400Y-98962100D01*
X148715330Y-98951450D01*
X148738660Y-98939560D01*
X148761340Y-98926470D01*
X148783300Y-98912210D01*
X148804480Y-98896810D01*
X148824830Y-98880340D01*
X148844290Y-98862810D01*
X148862810Y-98844300D01*
X148880330Y-98824840D01*
X148896810Y-98804490D01*
X148912200Y-98783300D01*
X148926460Y-98761340D01*
X148939560Y-98738660D01*
X148951450Y-98715330D01*
X148962100Y-98691410D01*
X148971480Y-98666960D01*
X148979570Y-98642060D01*
X148986350Y-98616770D01*
X148991800Y-98591150D01*
X148995890Y-98565290D01*
X148998630Y-98539250D01*
X149000000Y-98513100D01*
X149000000Y-98500000D01*
X149000000Y-98486910D01*
X148998630Y-98460760D01*
X148995890Y-98434720D01*
X148991800Y-98408850D01*
X148986350Y-98383240D01*
X148979570Y-98357950D01*
X148971480Y-98333040D01*
X148962100Y-98308600D01*
X148951450Y-98284670D01*
X148939560Y-98261340D01*
X148926470Y-98238660D01*
X148912210Y-98216700D01*
X148896810Y-98195520D01*
X148880340Y-98175170D01*
X148862810Y-98155710D01*
X148844300Y-98137190D01*
X148824840Y-98119670D01*
X148804490Y-98103190D01*
X148783300Y-98087800D01*
X148761340Y-98073540D01*
X148738660Y-98060440D01*
X148715330Y-98048550D01*
X148691410Y-98037900D01*
X148666960Y-98028520D01*
X148642060Y-98020430D01*
X148616770Y-98013650D01*
X148591150Y-98008200D01*
X148565290Y-98004110D01*
X148539250Y-98001370D01*
X148513100Y-98000000D01*
X148500000Y-98000000D01*
X148486910Y-98000000D01*
X148460760Y-98001370D01*
X148434720Y-98004110D01*
X148408850Y-98008200D01*
X148383240Y-98013650D01*
X148357950Y-98020430D01*
X148333040Y-98028520D01*
X148308600Y-98037900D01*
X148284670Y-98048550D01*
X148261340Y-98060440D01*
X148238660Y-98073530D01*
X148216700Y-98087790D01*
X148195520Y-98103190D01*
X148175170Y-98119660D01*
X148155710Y-98137190D01*
X148137190Y-98155700D01*
X148119670Y-98175160D01*
X148103190Y-98195510D01*
X148087800Y-98216700D01*
X148073540Y-98238660D01*
X148060440Y-98261340D01*
X148048550Y-98284670D01*
X148037900Y-98308590D01*
X148028520Y-98333040D01*
X148020430Y-98357940D01*
X148013650Y-98383230D01*
X148008200Y-98408850D01*
X148004110Y-98434710D01*
X148001370Y-98460750D01*
X148000000Y-98486900D01*
X148000000Y-87500000D01*
G37*
X148000000Y-87500000D02*
X148000000Y-98513090D01*
X148001370Y-98539240D01*
X148004110Y-98565280D01*
X148008200Y-98591150D01*
X148013650Y-98616760D01*
X148020430Y-98642050D01*
X148028520Y-98666960D01*
X148037900Y-98691400D01*
X148048550Y-98715330D01*
X148060440Y-98738660D01*
X148073530Y-98761340D01*
X148087790Y-98783300D01*
X148103190Y-98804480D01*
X148119660Y-98824830D01*
X148137190Y-98844290D01*
X148155700Y-98862810D01*
X148175160Y-98880330D01*
X148195510Y-98896810D01*
X148216700Y-98912200D01*
X148238660Y-98926460D01*
X148261340Y-98939560D01*
X148284670Y-98951450D01*
X148308590Y-98962100D01*
X148333040Y-98971480D01*
X148357940Y-98979570D01*
X148383230Y-98986350D01*
X148408850Y-98991800D01*
X148434710Y-98995890D01*
X148460750Y-98998630D01*
X148486900Y-99000000D01*
X148500000Y-99000000D01*
X148513090Y-99000000D01*
X148539240Y-98998630D01*
X148565280Y-98995890D01*
X148591150Y-98991800D01*
X148616760Y-98986350D01*
X148642050Y-98979570D01*
X148666960Y-98971480D01*
X148691400Y-98962100D01*
X148715330Y-98951450D01*
X148738660Y-98939560D01*
X148761340Y-98926470D01*
X148783300Y-98912210D01*
X148804480Y-98896810D01*
X148824830Y-98880340D01*
X148844290Y-98862810D01*
X148862810Y-98844300D01*
X148880330Y-98824840D01*
X148896810Y-98804490D01*
X148912200Y-98783300D01*
X148926460Y-98761340D01*
X148939560Y-98738660D01*
X148951450Y-98715330D01*
X148962100Y-98691410D01*
X148971480Y-98666960D01*
X148979570Y-98642060D01*
X148986350Y-98616770D01*
X148991800Y-98591150D01*
X148995890Y-98565290D01*
X148998630Y-98539250D01*
X149000000Y-98513100D01*
X149000000Y-98500000D01*
X149000000Y-98486910D01*
X148998630Y-98460760D01*
X148995890Y-98434720D01*
X148991800Y-98408850D01*
X148986350Y-98383240D01*
X148979570Y-98357950D01*
X148971480Y-98333040D01*
X148962100Y-98308600D01*
X148951450Y-98284670D01*
X148939560Y-98261340D01*
X148926470Y-98238660D01*
X148912210Y-98216700D01*
X148896810Y-98195520D01*
X148880340Y-98175170D01*
X148862810Y-98155710D01*
X148844300Y-98137190D01*
X148824840Y-98119670D01*
X148804490Y-98103190D01*
X148783300Y-98087800D01*
X148761340Y-98073540D01*
X148738660Y-98060440D01*
X148715330Y-98048550D01*
X148691410Y-98037900D01*
X148666960Y-98028520D01*
X148642060Y-98020430D01*
X148616770Y-98013650D01*
X148591150Y-98008200D01*
X148565290Y-98004110D01*
X148539250Y-98001370D01*
X148513100Y-98000000D01*
X148500000Y-98000000D01*
X148486910Y-98000000D01*
X148460760Y-98001370D01*
X148434720Y-98004110D01*
X148408850Y-98008200D01*
X148383240Y-98013650D01*
X148357950Y-98020430D01*
X148333040Y-98028520D01*
X148308600Y-98037900D01*
X148284670Y-98048550D01*
X148261340Y-98060440D01*
X148238660Y-98073530D01*
X148216700Y-98087790D01*
X148195520Y-98103190D01*
X148175170Y-98119660D01*
X148155710Y-98137190D01*
X148137190Y-98155700D01*
X148119670Y-98175160D01*
X148103190Y-98195510D01*
X148087800Y-98216700D01*
X148073540Y-98238660D01*
X148060440Y-98261340D01*
X148048550Y-98284670D01*
X148037900Y-98308590D01*
X148028520Y-98333040D01*
X148020430Y-98357940D01*
X148013650Y-98383230D01*
X148008200Y-98408850D01*
X148004110Y-98434710D01*
X148001370Y-98460750D01*
X148000000Y-98486900D01*
X148000000Y-87500000D01*
D10*
G04 #@! TO.C,C8*
X158530000Y-103750000D02*
X158530000Y-104250000D01*
X159470000Y-104250000D02*
X159470000Y-103750000D01*
G04 #@! TO.C,C17*
X165470000Y-86250000D02*
X165470000Y-85750000D01*
X164530000Y-85750000D02*
X164530000Y-86250000D01*
G04 #@! TO.C,C16*
X143790000Y-92060000D02*
X143790000Y-91560000D01*
X142850000Y-91560000D02*
X142850000Y-92060000D01*
G04 #@! TO.C,C15*
X134565000Y-72535000D02*
X134065000Y-72535000D01*
X134065000Y-73475000D02*
X134565000Y-73475000D01*
G04 #@! TO.C,C14*
X134065000Y-76515000D02*
X134565000Y-76515000D01*
X134565000Y-75575000D02*
X134065000Y-75575000D01*
G04 #@! TO.C,C13*
X160750000Y-104470000D02*
X161250000Y-104470000D01*
X161250000Y-103530000D02*
X160750000Y-103530000D01*
G04 #@! TO.C,C12*
X134065000Y-79325000D02*
X134565000Y-79325000D01*
X134565000Y-78385000D02*
X134065000Y-78385000D01*
G04 #@! TO.C,C11*
X148270000Y-81840000D02*
X147770000Y-81840000D01*
X147770000Y-82780000D02*
X148270000Y-82780000D01*
G04 #@! TO.C,C18*
X146780000Y-103350000D02*
X146280000Y-103350000D01*
X146280000Y-104290000D02*
X146780000Y-104290000D01*
G04 #@! TO.C,C7*
X165250000Y-87530000D02*
X164750000Y-87530000D01*
X164750000Y-88470000D02*
X165250000Y-88470000D01*
G04 #@! TO.C,C6*
X134250000Y-93030000D02*
X133750000Y-93030000D01*
X133750000Y-93970000D02*
X134250000Y-93970000D01*
G04 #@! TO.C,C5*
X133750000Y-91970000D02*
X134250000Y-91970000D01*
X134250000Y-91030000D02*
X133750000Y-91030000D01*
G04 #@! TO.C,C4*
X139470000Y-96750000D02*
X139470000Y-96250000D01*
X138530000Y-96250000D02*
X138530000Y-96750000D01*
G04 #@! TO.C,C3*
X136530000Y-96250000D02*
X136530000Y-96750000D01*
X137470000Y-96750000D02*
X137470000Y-96250000D01*
G04 #@! TO.C,C2*
X137470000Y-99250000D02*
X137470000Y-98750000D01*
X136530000Y-98750000D02*
X136530000Y-99250000D01*
G04 #@! TO.C,C1*
X138530000Y-98750000D02*
X138530000Y-99250000D01*
X139470000Y-99250000D02*
X139470000Y-98750000D01*
G04 #@! TO.C,C9*
X139700000Y-85970000D02*
X140200000Y-85970000D01*
X140200000Y-85030000D02*
X139700000Y-85030000D01*
G04 #@! TO.C,C10*
X139220000Y-88200000D02*
X139220000Y-87700000D01*
X138280000Y-87700000D02*
X138280000Y-88200000D01*
G04 #@! TO.C,Y1*
X136600000Y-90850000D02*
X136600000Y-94150000D01*
X139400000Y-90850000D02*
X136600000Y-90850000D01*
G04 #@! TO.C,L1*
X131430000Y-96100000D02*
X132630000Y-96100000D01*
X132630000Y-97860000D02*
X131430000Y-97860000D01*
G04 #@! TO.C,D1*
X186520000Y-97280000D02*
X187920000Y-97280000D01*
X187920000Y-97280000D02*
X187920000Y-94480000D01*
X186520000Y-97280000D02*
X186520000Y-94480000D01*
G04 #@! TO.C,D2*
X183150000Y-97100000D02*
X183150000Y-94300000D01*
X184550000Y-97100000D02*
X184550000Y-94300000D01*
X183150000Y-97100000D02*
X184550000Y-97100000D01*
G04 #@! TO.C,R5*
X140490000Y-77980000D02*
X140490000Y-78480000D01*
X141550000Y-78480000D02*
X141550000Y-77980000D01*
G04 #@! TO.C,R6*
X173170000Y-93650000D02*
X172670000Y-93650000D01*
X172670000Y-94710000D02*
X173170000Y-94710000D01*
G04 #@! TO.C,R1*
X134750000Y-97530000D02*
X135250000Y-97530000D01*
X135250000Y-96470000D02*
X134750000Y-96470000D01*
G04 #@! TO.C,R4*
X155690000Y-75620000D02*
X155690000Y-75120000D01*
X154630000Y-75120000D02*
X154630000Y-75620000D01*
G04 #@! TO.C,Q1*
X176930000Y-96730000D02*
X175470000Y-96730000D01*
X176930000Y-93570000D02*
X174770000Y-93570000D01*
X176930000Y-93570000D02*
X176930000Y-94500000D01*
X176930000Y-96730000D02*
X176930000Y-95800000D01*
D11*
G04 #@! TO.C,U2*
X175920000Y-63510000D02*
X188920000Y-63510000D01*
X188920000Y-63510000D02*
X188920000Y-68820000D01*
X175920000Y-68820000D02*
X175920000Y-63510000D01*
D13*
X188420000Y-68660000D02*
X188420000Y-64160000D01*
X188420000Y-64160000D02*
X186545000Y-64160000D01*
X186545000Y-64160000D02*
X186545000Y-67535000D01*
X186545000Y-67535000D02*
X184670000Y-67535000D01*
X184670000Y-67535000D02*
X184670000Y-64160000D01*
X184670000Y-64160000D02*
X182795000Y-64160000D01*
X182795000Y-64160000D02*
X182795000Y-67535000D01*
X182795000Y-67535000D02*
X180920000Y-67535000D01*
X180920000Y-67535000D02*
X180920000Y-64160000D01*
X180920000Y-64160000D02*
X179045000Y-64160000D01*
X179045000Y-64160000D02*
X179045000Y-67535000D01*
X179045000Y-67535000D02*
X177170000Y-67535000D01*
X177170000Y-67535000D02*
X177170000Y-64160000D01*
X177170000Y-64160000D02*
X176426000Y-64160000D01*
D14*
X176832000Y-69455000D02*
G75*
G03X176832000Y-69455000I-127000J0D01*
G01*
D11*
X188920000Y-68820000D02*
X175920000Y-68820000D01*
D14*
G36*
X176954440Y-70026500D02*
X187881000Y-70026500D01*
X187881000Y-89202490D01*
X176954440Y-89202490D01*
X176954440Y-70026500D01*
G37*
X176954440Y-70026500D02*
X187881000Y-70026500D01*
X187881000Y-89202490D01*
X176954440Y-89202490D01*
X176954440Y-70026500D01*
D11*
X188220000Y-90410000D02*
X188920000Y-90410000D01*
X188920000Y-90410000D02*
X188920000Y-89210000D01*
X188920000Y-88010000D02*
X188920000Y-87710000D01*
X188920000Y-86510000D02*
X188920000Y-86210000D01*
X188920000Y-85010000D02*
X188920000Y-84710000D01*
X188920000Y-83510000D02*
X188920000Y-83210000D01*
X188920000Y-82010000D02*
X188920000Y-81710000D01*
X188920000Y-80510000D02*
X188920000Y-80210000D01*
X188920000Y-79010000D02*
X188920000Y-78710000D01*
X188920000Y-77510000D02*
X188920000Y-77210000D01*
X188920000Y-76010000D02*
X188920000Y-75710000D01*
X188920000Y-74510000D02*
X188920000Y-74210000D01*
X188920000Y-73010000D02*
X188920000Y-72710000D01*
X188920000Y-71510000D02*
X188920000Y-71210000D01*
X188920000Y-70010000D02*
X188920000Y-68820000D01*
X175920000Y-70010000D02*
X175920000Y-68820000D01*
X175920000Y-71510000D02*
X175920000Y-71210000D01*
X175920000Y-73010000D02*
X175920000Y-72710000D01*
X175920000Y-74510000D02*
X175920000Y-74210000D01*
X175920000Y-76010000D02*
X175920000Y-75710000D01*
X175920000Y-77510000D02*
X175920000Y-77210000D01*
X175920000Y-79010000D02*
X175920000Y-78710000D01*
X175920000Y-80510000D02*
X175920000Y-80210000D01*
X175920000Y-82010000D02*
X175920000Y-81710000D01*
X175920000Y-83510000D02*
X175920000Y-83210000D01*
X175920000Y-85010000D02*
X175920000Y-84710000D01*
X175920000Y-86510000D02*
X175920000Y-86210000D01*
X175920000Y-88010000D02*
X175920000Y-87710000D01*
X175920000Y-89210000D02*
X175920000Y-90410000D01*
X175920000Y-90410000D02*
X176620000Y-90410000D01*
X177720000Y-90410000D02*
X178120000Y-90410000D01*
X179220000Y-90410000D02*
X179620000Y-90410000D01*
X180720000Y-90410000D02*
X181120000Y-90410000D01*
X182220000Y-90410000D02*
X182620000Y-90410000D01*
X183720000Y-90410000D02*
X184120000Y-90410000D01*
X185220000Y-90410000D02*
X185620000Y-90410000D01*
X186720000Y-90410000D02*
X187120000Y-90410000D01*
G04 #@! TO.C,Y2*
D15*
X142526190Y-88526190D02*
X143002380Y-88526190D01*
X142002380Y-88859523D02*
X142526190Y-88526190D01*
X142002380Y-88192857D01*
X142097619Y-87907142D02*
X142050000Y-87859523D01*
X142002380Y-87764285D01*
X142002380Y-87526190D01*
X142050000Y-87430952D01*
X142097619Y-87383333D01*
X142192857Y-87335714D01*
X142288095Y-87335714D01*
X142430952Y-87383333D01*
X143002380Y-87954761D01*
X143002380Y-87335714D01*
G04 #@! TO.C,O*
X162154761Y-74202380D02*
X162345238Y-74202380D01*
X162440476Y-74250000D01*
X162535714Y-74345238D01*
X162583333Y-74535714D01*
X162583333Y-74869047D01*
X162535714Y-75059523D01*
X162440476Y-75154761D01*
X162345238Y-75202380D01*
X162154761Y-75202380D01*
X162059523Y-75154761D01*
X161964285Y-75059523D01*
X161916666Y-74869047D01*
X161916666Y-74535714D01*
X161964285Y-74345238D01*
X162059523Y-74250000D01*
X162154761Y-74202380D01*
G04 #@! TO.C,G*
X170011904Y-74250000D02*
X169916666Y-74202380D01*
X169773809Y-74202380D01*
X169630952Y-74250000D01*
X169535714Y-74345238D01*
X169488095Y-74440476D01*
X169440476Y-74630952D01*
X169440476Y-74773809D01*
X169488095Y-74964285D01*
X169535714Y-75059523D01*
X169630952Y-75154761D01*
X169773809Y-75202380D01*
X169869047Y-75202380D01*
X170011904Y-75154761D01*
X170059523Y-75107142D01*
X170059523Y-74773809D01*
X169869047Y-74773809D01*
G04 #@! TO.C,R*
X167559523Y-75202380D02*
X167226190Y-74726190D01*
X166988095Y-75202380D02*
X166988095Y-74202380D01*
X167369047Y-74202380D01*
X167464285Y-74250000D01*
X167511904Y-74297619D01*
X167559523Y-74392857D01*
X167559523Y-74535714D01*
X167511904Y-74630952D01*
X167464285Y-74678571D01*
X167369047Y-74726190D01*
X166988095Y-74726190D01*
G04 #@! TO.C,Y*
X159500000Y-74726190D02*
X159500000Y-75202380D01*
X159166666Y-74202380D02*
X159500000Y-74726190D01*
X159833333Y-74202380D01*
G04 #@! TO.C,B*
X164821428Y-74678571D02*
X164964285Y-74726190D01*
X165011904Y-74773809D01*
X165059523Y-74869047D01*
X165059523Y-75011904D01*
X165011904Y-75107142D01*
X164964285Y-75154761D01*
X164869047Y-75202380D01*
X164488095Y-75202380D01*
X164488095Y-74202380D01*
X164821428Y-74202380D01*
X164916666Y-74250000D01*
X164964285Y-74297619D01*
X165011904Y-74392857D01*
X165011904Y-74488095D01*
X164964285Y-74583333D01*
X164916666Y-74630952D01*
X164821428Y-74678571D01*
X164488095Y-74678571D01*
G04 #@! TO.C,R7*
X167333333Y-83202380D02*
X167000000Y-82726190D01*
X166761904Y-83202380D02*
X166761904Y-82202380D01*
X167142857Y-82202380D01*
X167238095Y-82250000D01*
X167285714Y-82297619D01*
X167333333Y-82392857D01*
X167333333Y-82535714D01*
X167285714Y-82630952D01*
X167238095Y-82678571D01*
X167142857Y-82726190D01*
X166761904Y-82726190D01*
X167666666Y-82202380D02*
X168333333Y-82202380D01*
X167904761Y-83202380D01*
G04 #@! TO.C,R8*
X167333333Y-81452380D02*
X167000000Y-80976190D01*
X166761904Y-81452380D02*
X166761904Y-80452380D01*
X167142857Y-80452380D01*
X167238095Y-80500000D01*
X167285714Y-80547619D01*
X167333333Y-80642857D01*
X167333333Y-80785714D01*
X167285714Y-80880952D01*
X167238095Y-80928571D01*
X167142857Y-80976190D01*
X166761904Y-80976190D01*
X167904761Y-80880952D02*
X167809523Y-80833333D01*
X167761904Y-80785714D01*
X167714285Y-80690476D01*
X167714285Y-80642857D01*
X167761904Y-80547619D01*
X167809523Y-80500000D01*
X167904761Y-80452380D01*
X168095238Y-80452380D01*
X168190476Y-80500000D01*
X168238095Y-80547619D01*
X168285714Y-80642857D01*
X168285714Y-80690476D01*
X168238095Y-80785714D01*
X168190476Y-80833333D01*
X168095238Y-80880952D01*
X167904761Y-80880952D01*
X167809523Y-80928571D01*
X167761904Y-80976190D01*
X167714285Y-81071428D01*
X167714285Y-81261904D01*
X167761904Y-81357142D01*
X167809523Y-81404761D01*
X167904761Y-81452380D01*
X168095238Y-81452380D01*
X168190476Y-81404761D01*
X168238095Y-81357142D01*
X168285714Y-81261904D01*
X168285714Y-81071428D01*
X168238095Y-80976190D01*
X168190476Y-80928571D01*
X168095238Y-80880952D01*
G04 #@! TO.C,R9*
X167333333Y-79952380D02*
X167000000Y-79476190D01*
X166761904Y-79952380D02*
X166761904Y-78952380D01*
X167142857Y-78952380D01*
X167238095Y-79000000D01*
X167285714Y-79047619D01*
X167333333Y-79142857D01*
X167333333Y-79285714D01*
X167285714Y-79380952D01*
X167238095Y-79428571D01*
X167142857Y-79476190D01*
X166761904Y-79476190D01*
X167809523Y-79952380D02*
X168000000Y-79952380D01*
X168095238Y-79904761D01*
X168142857Y-79857142D01*
X168238095Y-79714285D01*
X168285714Y-79523809D01*
X168285714Y-79142857D01*
X168238095Y-79047619D01*
X168190476Y-79000000D01*
X168095238Y-78952380D01*
X167904761Y-78952380D01*
X167809523Y-79000000D01*
X167761904Y-79047619D01*
X167714285Y-79142857D01*
X167714285Y-79380952D01*
X167761904Y-79476190D01*
X167809523Y-79523809D01*
X167904761Y-79571428D01*
X168095238Y-79571428D01*
X168190476Y-79523809D01*
X168238095Y-79476190D01*
X168285714Y-79380952D01*
G04 #@! TO.C,R10*
X163952380Y-81142857D02*
X163476190Y-81476190D01*
X163952380Y-81714285D02*
X162952380Y-81714285D01*
X162952380Y-81333333D01*
X163000000Y-81238095D01*
X163047619Y-81190476D01*
X163142857Y-81142857D01*
X163285714Y-81142857D01*
X163380952Y-81190476D01*
X163428571Y-81238095D01*
X163476190Y-81333333D01*
X163476190Y-81714285D01*
X163952380Y-80190476D02*
X163952380Y-80761904D01*
X163952380Y-80476190D02*
X162952380Y-80476190D01*
X163095238Y-80571428D01*
X163190476Y-80666666D01*
X163238095Y-80761904D01*
X162952380Y-79571428D02*
X162952380Y-79476190D01*
X163000000Y-79380952D01*
X163047619Y-79333333D01*
X163142857Y-79285714D01*
X163333333Y-79238095D01*
X163571428Y-79238095D01*
X163761904Y-79285714D01*
X163857142Y-79333333D01*
X163904761Y-79380952D01*
X163952380Y-79476190D01*
X163952380Y-79571428D01*
X163904761Y-79666666D01*
X163857142Y-79714285D01*
X163761904Y-79761904D01*
X163571428Y-79809523D01*
X163333333Y-79809523D01*
X163142857Y-79761904D01*
X163047619Y-79714285D01*
X163000000Y-79666666D01*
X162952380Y-79571428D01*
G04 #@! TO.C,R11*
X160952380Y-81142857D02*
X160476190Y-81476190D01*
X160952380Y-81714285D02*
X159952380Y-81714285D01*
X159952380Y-81333333D01*
X160000000Y-81238095D01*
X160047619Y-81190476D01*
X160142857Y-81142857D01*
X160285714Y-81142857D01*
X160380952Y-81190476D01*
X160428571Y-81238095D01*
X160476190Y-81333333D01*
X160476190Y-81714285D01*
X160952380Y-80190476D02*
X160952380Y-80761904D01*
X160952380Y-80476190D02*
X159952380Y-80476190D01*
X160095238Y-80571428D01*
X160190476Y-80666666D01*
X160238095Y-80761904D01*
X160952380Y-79238095D02*
X160952380Y-79809523D01*
X160952380Y-79523809D02*
X159952380Y-79523809D01*
X160095238Y-79619047D01*
X160190476Y-79714285D01*
X160238095Y-79809523D01*
G04 #@! TO.C,R2*
X154003333Y-80652380D02*
X153670000Y-80176190D01*
X153431904Y-80652380D02*
X153431904Y-79652380D01*
X153812857Y-79652380D01*
X153908095Y-79700000D01*
X153955714Y-79747619D01*
X154003333Y-79842857D01*
X154003333Y-79985714D01*
X153955714Y-80080952D01*
X153908095Y-80128571D01*
X153812857Y-80176190D01*
X153431904Y-80176190D01*
X154384285Y-79747619D02*
X154431904Y-79700000D01*
X154527142Y-79652380D01*
X154765238Y-79652380D01*
X154860476Y-79700000D01*
X154908095Y-79747619D01*
X154955714Y-79842857D01*
X154955714Y-79938095D01*
X154908095Y-80080952D01*
X154336666Y-80652380D01*
X154955714Y-80652380D01*
G04 #@! TO.C,R3*
X157763333Y-80692380D02*
X157430000Y-80216190D01*
X157191904Y-80692380D02*
X157191904Y-79692380D01*
X157572857Y-79692380D01*
X157668095Y-79740000D01*
X157715714Y-79787619D01*
X157763333Y-79882857D01*
X157763333Y-80025714D01*
X157715714Y-80120952D01*
X157668095Y-80168571D01*
X157572857Y-80216190D01*
X157191904Y-80216190D01*
X158096666Y-79692380D02*
X158715714Y-79692380D01*
X158382380Y-80073333D01*
X158525238Y-80073333D01*
X158620476Y-80120952D01*
X158668095Y-80168571D01*
X158715714Y-80263809D01*
X158715714Y-80501904D01*
X158668095Y-80597142D01*
X158620476Y-80644761D01*
X158525238Y-80692380D01*
X158239523Y-80692380D01*
X158144285Y-80644761D01*
X158096666Y-80597142D01*
G04 #@! TO.C,DAC1*
X136813333Y-107122380D02*
X136813333Y-106122380D01*
X137051428Y-106122380D01*
X137194285Y-106170000D01*
X137289523Y-106265238D01*
X137337142Y-106360476D01*
X137384761Y-106550952D01*
X137384761Y-106693809D01*
X137337142Y-106884285D01*
X137289523Y-106979523D01*
X137194285Y-107074761D01*
X137051428Y-107122380D01*
X136813333Y-107122380D01*
X137765714Y-106836666D02*
X138241904Y-106836666D01*
X137670476Y-107122380D02*
X138003809Y-106122380D01*
X138337142Y-107122380D01*
X139241904Y-107027142D02*
X139194285Y-107074761D01*
X139051428Y-107122380D01*
X138956190Y-107122380D01*
X138813333Y-107074761D01*
X138718095Y-106979523D01*
X138670476Y-106884285D01*
X138622857Y-106693809D01*
X138622857Y-106550952D01*
X138670476Y-106360476D01*
X138718095Y-106265238D01*
X138813333Y-106170000D01*
X138956190Y-106122380D01*
X139051428Y-106122380D01*
X139194285Y-106170000D01*
X139241904Y-106217619D01*
X140194285Y-107122380D02*
X139622857Y-107122380D01*
X139908571Y-107122380D02*
X139908571Y-106122380D01*
X139813333Y-106265238D01*
X139718095Y-106360476D01*
X139622857Y-106408095D01*
G04 #@! TO.C,DigitalPWR1*
X166511904Y-91702380D02*
X166511904Y-90702380D01*
X166750000Y-90702380D01*
X166892857Y-90750000D01*
X166988095Y-90845238D01*
X167035714Y-90940476D01*
X167083333Y-91130952D01*
X167083333Y-91273809D01*
X167035714Y-91464285D01*
X166988095Y-91559523D01*
X166892857Y-91654761D01*
X166750000Y-91702380D01*
X166511904Y-91702380D01*
X167511904Y-91702380D02*
X167511904Y-91035714D01*
X167511904Y-90702380D02*
X167464285Y-90750000D01*
X167511904Y-90797619D01*
X167559523Y-90750000D01*
X167511904Y-90702380D01*
X167511904Y-90797619D01*
X168416666Y-91035714D02*
X168416666Y-91845238D01*
X168369047Y-91940476D01*
X168321428Y-91988095D01*
X168226190Y-92035714D01*
X168083333Y-92035714D01*
X167988095Y-91988095D01*
X168416666Y-91654761D02*
X168321428Y-91702380D01*
X168130952Y-91702380D01*
X168035714Y-91654761D01*
X167988095Y-91607142D01*
X167940476Y-91511904D01*
X167940476Y-91226190D01*
X167988095Y-91130952D01*
X168035714Y-91083333D01*
X168130952Y-91035714D01*
X168321428Y-91035714D01*
X168416666Y-91083333D01*
X168892857Y-91702380D02*
X168892857Y-91035714D01*
X168892857Y-90702380D02*
X168845238Y-90750000D01*
X168892857Y-90797619D01*
X168940476Y-90750000D01*
X168892857Y-90702380D01*
X168892857Y-90797619D01*
X169226190Y-91035714D02*
X169607142Y-91035714D01*
X169369047Y-90702380D02*
X169369047Y-91559523D01*
X169416666Y-91654761D01*
X169511904Y-91702380D01*
X169607142Y-91702380D01*
X170369047Y-91702380D02*
X170369047Y-91178571D01*
X170321428Y-91083333D01*
X170226190Y-91035714D01*
X170035714Y-91035714D01*
X169940476Y-91083333D01*
X170369047Y-91654761D02*
X170273809Y-91702380D01*
X170035714Y-91702380D01*
X169940476Y-91654761D01*
X169892857Y-91559523D01*
X169892857Y-91464285D01*
X169940476Y-91369047D01*
X170035714Y-91321428D01*
X170273809Y-91321428D01*
X170369047Y-91273809D01*
X170988095Y-91702380D02*
X170892857Y-91654761D01*
X170845238Y-91559523D01*
X170845238Y-90702380D01*
X171369047Y-91702380D02*
X171369047Y-90702380D01*
X171750000Y-90702380D01*
X171845238Y-90750000D01*
X171892857Y-90797619D01*
X171940476Y-90892857D01*
X171940476Y-91035714D01*
X171892857Y-91130952D01*
X171845238Y-91178571D01*
X171750000Y-91226190D01*
X171369047Y-91226190D01*
X172273809Y-90702380D02*
X172511904Y-91702380D01*
X172702380Y-90988095D01*
X172892857Y-91702380D01*
X173130952Y-90702380D01*
X174083333Y-91702380D02*
X173750000Y-91226190D01*
X173511904Y-91702380D02*
X173511904Y-90702380D01*
X173892857Y-90702380D01*
X173988095Y-90750000D01*
X174035714Y-90797619D01*
X174083333Y-90892857D01*
X174083333Y-91035714D01*
X174035714Y-91130952D01*
X173988095Y-91178571D01*
X173892857Y-91226190D01*
X173511904Y-91226190D01*
X175035714Y-91702380D02*
X174464285Y-91702380D01*
X174750000Y-91702380D02*
X174750000Y-90702380D01*
X174654761Y-90845238D01*
X174559523Y-90940476D01*
X174464285Y-90988095D01*
G04 #@! TO.C,I2C1*
X156247619Y-107252380D02*
X156247619Y-106252380D01*
X156676190Y-106347619D02*
X156723809Y-106300000D01*
X156819047Y-106252380D01*
X157057142Y-106252380D01*
X157152380Y-106300000D01*
X157200000Y-106347619D01*
X157247619Y-106442857D01*
X157247619Y-106538095D01*
X157200000Y-106680952D01*
X156628571Y-107252380D01*
X157247619Y-107252380D01*
X158247619Y-107157142D02*
X158200000Y-107204761D01*
X158057142Y-107252380D01*
X157961904Y-107252380D01*
X157819047Y-107204761D01*
X157723809Y-107109523D01*
X157676190Y-107014285D01*
X157628571Y-106823809D01*
X157628571Y-106680952D01*
X157676190Y-106490476D01*
X157723809Y-106395238D01*
X157819047Y-106300000D01*
X157961904Y-106252380D01*
X158057142Y-106252380D01*
X158200000Y-106300000D01*
X158247619Y-106347619D01*
X159200000Y-107252380D02*
X158628571Y-107252380D01*
X158914285Y-107252380D02*
X158914285Y-106252380D01*
X158819047Y-106395238D01*
X158723809Y-106490476D01*
X158628571Y-106538095D01*
G04 #@! TO.C,ADC1*
X131855714Y-99666666D02*
X132331904Y-99666666D01*
X131760476Y-99952380D02*
X132093809Y-98952380D01*
X132427142Y-99952380D01*
X132760476Y-99952380D02*
X132760476Y-98952380D01*
X132998571Y-98952380D01*
X133141428Y-99000000D01*
X133236666Y-99095238D01*
X133284285Y-99190476D01*
X133331904Y-99380952D01*
X133331904Y-99523809D01*
X133284285Y-99714285D01*
X133236666Y-99809523D01*
X133141428Y-99904761D01*
X132998571Y-99952380D01*
X132760476Y-99952380D01*
X134331904Y-99857142D02*
X134284285Y-99904761D01*
X134141428Y-99952380D01*
X134046190Y-99952380D01*
X133903333Y-99904761D01*
X133808095Y-99809523D01*
X133760476Y-99714285D01*
X133712857Y-99523809D01*
X133712857Y-99380952D01*
X133760476Y-99190476D01*
X133808095Y-99095238D01*
X133903333Y-99000000D01*
X134046190Y-98952380D01*
X134141428Y-98952380D01*
X134284285Y-99000000D01*
X134331904Y-99047619D01*
X135284285Y-99952380D02*
X134712857Y-99952380D01*
X134998571Y-99952380D02*
X134998571Y-98952380D01*
X134903333Y-99095238D01*
X134808095Y-99190476D01*
X134712857Y-99238095D01*
G04 #@! TO.C,ADC2*
X143955714Y-106926666D02*
X144431904Y-106926666D01*
X143860476Y-107212380D02*
X144193809Y-106212380D01*
X144527142Y-107212380D01*
X144860476Y-107212380D02*
X144860476Y-106212380D01*
X145098571Y-106212380D01*
X145241428Y-106260000D01*
X145336666Y-106355238D01*
X145384285Y-106450476D01*
X145431904Y-106640952D01*
X145431904Y-106783809D01*
X145384285Y-106974285D01*
X145336666Y-107069523D01*
X145241428Y-107164761D01*
X145098571Y-107212380D01*
X144860476Y-107212380D01*
X146431904Y-107117142D02*
X146384285Y-107164761D01*
X146241428Y-107212380D01*
X146146190Y-107212380D01*
X146003333Y-107164761D01*
X145908095Y-107069523D01*
X145860476Y-106974285D01*
X145812857Y-106783809D01*
X145812857Y-106640952D01*
X145860476Y-106450476D01*
X145908095Y-106355238D01*
X146003333Y-106260000D01*
X146146190Y-106212380D01*
X146241428Y-106212380D01*
X146384285Y-106260000D01*
X146431904Y-106307619D01*
X146812857Y-106307619D02*
X146860476Y-106260000D01*
X146955714Y-106212380D01*
X147193809Y-106212380D01*
X147289047Y-106260000D01*
X147336666Y-106307619D01*
X147384285Y-106402857D01*
X147384285Y-106498095D01*
X147336666Y-106640952D01*
X146765238Y-107212380D01*
X147384285Y-107212380D01*
G04 #@! TO.C,GPIO1*
X166103809Y-105990000D02*
X166008571Y-105942380D01*
X165865714Y-105942380D01*
X165722857Y-105990000D01*
X165627619Y-106085238D01*
X165580000Y-106180476D01*
X165532380Y-106370952D01*
X165532380Y-106513809D01*
X165580000Y-106704285D01*
X165627619Y-106799523D01*
X165722857Y-106894761D01*
X165865714Y-106942380D01*
X165960952Y-106942380D01*
X166103809Y-106894761D01*
X166151428Y-106847142D01*
X166151428Y-106513809D01*
X165960952Y-106513809D01*
X166580000Y-106942380D02*
X166580000Y-105942380D01*
X166960952Y-105942380D01*
X167056190Y-105990000D01*
X167103809Y-106037619D01*
X167151428Y-106132857D01*
X167151428Y-106275714D01*
X167103809Y-106370952D01*
X167056190Y-106418571D01*
X166960952Y-106466190D01*
X166580000Y-106466190D01*
X167580000Y-106942380D02*
X167580000Y-105942380D01*
X168246666Y-105942380D02*
X168437142Y-105942380D01*
X168532380Y-105990000D01*
X168627619Y-106085238D01*
X168675238Y-106275714D01*
X168675238Y-106609047D01*
X168627619Y-106799523D01*
X168532380Y-106894761D01*
X168437142Y-106942380D01*
X168246666Y-106942380D01*
X168151428Y-106894761D01*
X168056190Y-106799523D01*
X168008571Y-106609047D01*
X168008571Y-106275714D01*
X168056190Y-106085238D01*
X168151428Y-105990000D01*
X168246666Y-105942380D01*
X169627619Y-106942380D02*
X169056190Y-106942380D01*
X169341904Y-106942380D02*
X169341904Y-105942380D01*
X169246666Y-106085238D01*
X169151428Y-106180476D01*
X169056190Y-106228095D01*
G04 #@! TO.C,J1*
X138122380Y-74063333D02*
X138836666Y-74063333D01*
X138979523Y-74110952D01*
X139074761Y-74206190D01*
X139122380Y-74349047D01*
X139122380Y-74444285D01*
X139122380Y-73063333D02*
X139122380Y-73634761D01*
X139122380Y-73349047D02*
X138122380Y-73349047D01*
X138265238Y-73444285D01*
X138360476Y-73539523D01*
X138408095Y-73634761D01*
G04 #@! TO.C,U1*
D16*
X151129088Y-82438095D02*
X151129088Y-83076563D01*
X151166645Y-83151677D01*
X151204202Y-83189234D01*
X151279316Y-83226791D01*
X151429544Y-83226791D01*
X151504658Y-83189234D01*
X151542215Y-83151677D01*
X151579772Y-83076563D01*
X151579772Y-82438095D01*
X152368468Y-83226791D02*
X151917784Y-83226791D01*
X152143126Y-83226791D02*
X152143126Y-82438095D01*
X152068012Y-82550765D01*
X151992898Y-82625879D01*
X151917784Y-82663436D01*
X150462517Y-99318748D02*
X150575016Y-99356248D01*
X150762516Y-99356248D01*
X150837515Y-99318748D01*
X150875015Y-99281248D01*
X150912515Y-99206249D01*
X150912515Y-99131249D01*
X150875015Y-99056249D01*
X150837515Y-99018749D01*
X150762516Y-98981250D01*
X150612516Y-98943750D01*
X150537517Y-98906250D01*
X150500017Y-98868750D01*
X150462517Y-98793750D01*
X150462517Y-98718751D01*
X150500017Y-98643751D01*
X150537517Y-98606251D01*
X150612516Y-98568751D01*
X150800016Y-98568751D01*
X150912515Y-98606251D01*
X151137514Y-98568751D02*
X151587513Y-98568751D01*
X151362513Y-99356248D02*
X151362513Y-98568751D01*
X151850012Y-99356248D02*
X151850012Y-98568751D01*
X152112511Y-99131249D01*
X152375010Y-98568751D01*
X152375010Y-99356248D01*
X152675008Y-98568751D02*
X153162507Y-98568751D01*
X152900008Y-98868750D01*
X153012507Y-98868750D01*
X153087507Y-98906250D01*
X153125007Y-98943750D01*
X153162507Y-99018749D01*
X153162507Y-99206249D01*
X153125007Y-99281248D01*
X153087507Y-99318748D01*
X153012507Y-99356248D01*
X152787508Y-99356248D01*
X152712508Y-99318748D01*
X152675008Y-99281248D01*
X153462505Y-98643751D02*
X153500005Y-98606251D01*
X153575005Y-98568751D01*
X153762504Y-98568751D01*
X153837504Y-98606251D01*
X153875004Y-98643751D01*
X153912504Y-98718751D01*
X153912504Y-98793750D01*
X153875004Y-98906250D01*
X153425006Y-99356248D01*
X153912504Y-99356248D01*
X154512501Y-98943750D02*
X154250002Y-98943750D01*
X154250002Y-99356248D02*
X154250002Y-98568751D01*
X154625001Y-98568751D01*
X154850000Y-98568751D02*
X155374998Y-98568751D01*
X155037499Y-99356248D01*
X156012496Y-98831250D02*
X156012496Y-99356248D01*
X155824996Y-98531251D02*
X155637497Y-99093749D01*
X156124995Y-99093749D01*
X156762493Y-98568751D02*
X156612493Y-98568751D01*
X156537494Y-98606251D01*
X156499994Y-98643751D01*
X156424994Y-98756250D01*
X156387494Y-98906250D01*
X156387494Y-99206249D01*
X156424994Y-99281248D01*
X156462494Y-99318748D01*
X156537494Y-99356248D01*
X156687493Y-99356248D01*
X156762493Y-99318748D01*
X156799993Y-99281248D01*
X156837493Y-99206249D01*
X156837493Y-99018749D01*
X156799993Y-98943750D01*
X156762493Y-98906250D01*
X156687493Y-98868750D01*
X156537494Y-98868750D01*
X156462494Y-98906250D01*
X156424994Y-98943750D01*
X156387494Y-99018749D01*
X157062492Y-98568751D02*
X157324991Y-99356248D01*
X157587490Y-98568751D01*
X158262487Y-98606251D02*
X158187487Y-98568751D01*
X158074988Y-98568751D01*
X157962488Y-98606251D01*
X157887489Y-98681251D01*
X157849989Y-98756250D01*
X157812489Y-98906250D01*
X157812489Y-99018749D01*
X157849989Y-99168749D01*
X157887489Y-99243749D01*
X157962488Y-99318748D01*
X158074988Y-99356248D01*
X158149988Y-99356248D01*
X158262487Y-99318748D01*
X158299987Y-99281248D01*
X158299987Y-99018749D01*
X158149988Y-99018749D01*
X158524986Y-98568751D02*
X158974984Y-98568751D01*
X158749985Y-99356248D02*
X158749985Y-98568751D01*
X159162484Y-99356248D02*
X159574982Y-98831250D01*
X159162484Y-98831250D02*
X159574982Y-99356248D01*
G04 #@! TO.C,C8*
D15*
X157093333Y-104457142D02*
X157045714Y-104504761D01*
X156902857Y-104552380D01*
X156807619Y-104552380D01*
X156664761Y-104504761D01*
X156569523Y-104409523D01*
X156521904Y-104314285D01*
X156474285Y-104123809D01*
X156474285Y-103980952D01*
X156521904Y-103790476D01*
X156569523Y-103695238D01*
X156664761Y-103600000D01*
X156807619Y-103552380D01*
X156902857Y-103552380D01*
X157045714Y-103600000D01*
X157093333Y-103647619D01*
X157664761Y-103980952D02*
X157569523Y-103933333D01*
X157521904Y-103885714D01*
X157474285Y-103790476D01*
X157474285Y-103742857D01*
X157521904Y-103647619D01*
X157569523Y-103600000D01*
X157664761Y-103552380D01*
X157855238Y-103552380D01*
X157950476Y-103600000D01*
X157998095Y-103647619D01*
X158045714Y-103742857D01*
X158045714Y-103790476D01*
X157998095Y-103885714D01*
X157950476Y-103933333D01*
X157855238Y-103980952D01*
X157664761Y-103980952D01*
X157569523Y-104028571D01*
X157521904Y-104076190D01*
X157474285Y-104171428D01*
X157474285Y-104361904D01*
X157521904Y-104457142D01*
X157569523Y-104504761D01*
X157664761Y-104552380D01*
X157855238Y-104552380D01*
X157950476Y-104504761D01*
X157998095Y-104457142D01*
X158045714Y-104361904D01*
X158045714Y-104171428D01*
X157998095Y-104076190D01*
X157950476Y-104028571D01*
X157855238Y-103980952D01*
G04 #@! TO.C,C17*
X166357142Y-86357142D02*
X166309523Y-86404761D01*
X166166666Y-86452380D01*
X166071428Y-86452380D01*
X165928571Y-86404761D01*
X165833333Y-86309523D01*
X165785714Y-86214285D01*
X165738095Y-86023809D01*
X165738095Y-85880952D01*
X165785714Y-85690476D01*
X165833333Y-85595238D01*
X165928571Y-85500000D01*
X166071428Y-85452380D01*
X166166666Y-85452380D01*
X166309523Y-85500000D01*
X166357142Y-85547619D01*
X167309523Y-86452380D02*
X166738095Y-86452380D01*
X167023809Y-86452380D02*
X167023809Y-85452380D01*
X166928571Y-85595238D01*
X166833333Y-85690476D01*
X166738095Y-85738095D01*
X167642857Y-85452380D02*
X168309523Y-85452380D01*
X167880952Y-86452380D01*
G04 #@! TO.C,C16*
X142007142Y-93927142D02*
X141959523Y-93974761D01*
X141816666Y-94022380D01*
X141721428Y-94022380D01*
X141578571Y-93974761D01*
X141483333Y-93879523D01*
X141435714Y-93784285D01*
X141388095Y-93593809D01*
X141388095Y-93450952D01*
X141435714Y-93260476D01*
X141483333Y-93165238D01*
X141578571Y-93070000D01*
X141721428Y-93022380D01*
X141816666Y-93022380D01*
X141959523Y-93070000D01*
X142007142Y-93117619D01*
X142959523Y-94022380D02*
X142388095Y-94022380D01*
X142673809Y-94022380D02*
X142673809Y-93022380D01*
X142578571Y-93165238D01*
X142483333Y-93260476D01*
X142388095Y-93308095D01*
X143816666Y-93022380D02*
X143626190Y-93022380D01*
X143530952Y-93070000D01*
X143483333Y-93117619D01*
X143388095Y-93260476D01*
X143340476Y-93450952D01*
X143340476Y-93831904D01*
X143388095Y-93927142D01*
X143435714Y-93974761D01*
X143530952Y-94022380D01*
X143721428Y-94022380D01*
X143816666Y-93974761D01*
X143864285Y-93927142D01*
X143911904Y-93831904D01*
X143911904Y-93593809D01*
X143864285Y-93498571D01*
X143816666Y-93450952D01*
X143721428Y-93403333D01*
X143530952Y-93403333D01*
X143435714Y-93450952D01*
X143388095Y-93498571D01*
X143340476Y-93593809D01*
G04 #@! TO.C,C15*
X132922142Y-73747857D02*
X132969761Y-73795476D01*
X133017380Y-73938333D01*
X133017380Y-74033571D01*
X132969761Y-74176428D01*
X132874523Y-74271666D01*
X132779285Y-74319285D01*
X132588809Y-74366904D01*
X132445952Y-74366904D01*
X132255476Y-74319285D01*
X132160238Y-74271666D01*
X132065000Y-74176428D01*
X132017380Y-74033571D01*
X132017380Y-73938333D01*
X132065000Y-73795476D01*
X132112619Y-73747857D01*
X133017380Y-72795476D02*
X133017380Y-73366904D01*
X133017380Y-73081190D02*
X132017380Y-73081190D01*
X132160238Y-73176428D01*
X132255476Y-73271666D01*
X132303095Y-73366904D01*
X132017380Y-71890714D02*
X132017380Y-72366904D01*
X132493571Y-72414523D01*
X132445952Y-72366904D01*
X132398333Y-72271666D01*
X132398333Y-72033571D01*
X132445952Y-71938333D01*
X132493571Y-71890714D01*
X132588809Y-71843095D01*
X132826904Y-71843095D01*
X132922142Y-71890714D01*
X132969761Y-71938333D01*
X133017380Y-72033571D01*
X133017380Y-72271666D01*
X132969761Y-72366904D01*
X132922142Y-72414523D01*
G04 #@! TO.C,C14*
X132822142Y-76687857D02*
X132869761Y-76735476D01*
X132917380Y-76878333D01*
X132917380Y-76973571D01*
X132869761Y-77116428D01*
X132774523Y-77211666D01*
X132679285Y-77259285D01*
X132488809Y-77306904D01*
X132345952Y-77306904D01*
X132155476Y-77259285D01*
X132060238Y-77211666D01*
X131965000Y-77116428D01*
X131917380Y-76973571D01*
X131917380Y-76878333D01*
X131965000Y-76735476D01*
X132012619Y-76687857D01*
X132917380Y-75735476D02*
X132917380Y-76306904D01*
X132917380Y-76021190D02*
X131917380Y-76021190D01*
X132060238Y-76116428D01*
X132155476Y-76211666D01*
X132203095Y-76306904D01*
X132250714Y-74878333D02*
X132917380Y-74878333D01*
X131869761Y-75116428D02*
X132584047Y-75354523D01*
X132584047Y-74735476D01*
G04 #@! TO.C,C13*
X162857142Y-104357142D02*
X162809523Y-104404761D01*
X162666666Y-104452380D01*
X162571428Y-104452380D01*
X162428571Y-104404761D01*
X162333333Y-104309523D01*
X162285714Y-104214285D01*
X162238095Y-104023809D01*
X162238095Y-103880952D01*
X162285714Y-103690476D01*
X162333333Y-103595238D01*
X162428571Y-103500000D01*
X162571428Y-103452380D01*
X162666666Y-103452380D01*
X162809523Y-103500000D01*
X162857142Y-103547619D01*
X163809523Y-104452380D02*
X163238095Y-104452380D01*
X163523809Y-104452380D02*
X163523809Y-103452380D01*
X163428571Y-103595238D01*
X163333333Y-103690476D01*
X163238095Y-103738095D01*
X164142857Y-103452380D02*
X164761904Y-103452380D01*
X164428571Y-103833333D01*
X164571428Y-103833333D01*
X164666666Y-103880952D01*
X164714285Y-103928571D01*
X164761904Y-104023809D01*
X164761904Y-104261904D01*
X164714285Y-104357142D01*
X164666666Y-104404761D01*
X164571428Y-104452380D01*
X164285714Y-104452380D01*
X164190476Y-104404761D01*
X164142857Y-104357142D01*
G04 #@! TO.C,C12*
X132782142Y-79557857D02*
X132829761Y-79605476D01*
X132877380Y-79748333D01*
X132877380Y-79843571D01*
X132829761Y-79986428D01*
X132734523Y-80081666D01*
X132639285Y-80129285D01*
X132448809Y-80176904D01*
X132305952Y-80176904D01*
X132115476Y-80129285D01*
X132020238Y-80081666D01*
X131925000Y-79986428D01*
X131877380Y-79843571D01*
X131877380Y-79748333D01*
X131925000Y-79605476D01*
X131972619Y-79557857D01*
X132877380Y-78605476D02*
X132877380Y-79176904D01*
X132877380Y-78891190D02*
X131877380Y-78891190D01*
X132020238Y-78986428D01*
X132115476Y-79081666D01*
X132163095Y-79176904D01*
X131972619Y-78224523D02*
X131925000Y-78176904D01*
X131877380Y-78081666D01*
X131877380Y-77843571D01*
X131925000Y-77748333D01*
X131972619Y-77700714D01*
X132067857Y-77653095D01*
X132163095Y-77653095D01*
X132305952Y-77700714D01*
X132877380Y-78272142D01*
X132877380Y-77653095D01*
G04 #@! TO.C,C11*
X147407142Y-81397142D02*
X147359523Y-81444761D01*
X147216666Y-81492380D01*
X147121428Y-81492380D01*
X146978571Y-81444761D01*
X146883333Y-81349523D01*
X146835714Y-81254285D01*
X146788095Y-81063809D01*
X146788095Y-80920952D01*
X146835714Y-80730476D01*
X146883333Y-80635238D01*
X146978571Y-80540000D01*
X147121428Y-80492380D01*
X147216666Y-80492380D01*
X147359523Y-80540000D01*
X147407142Y-80587619D01*
X148359523Y-81492380D02*
X147788095Y-81492380D01*
X148073809Y-81492380D02*
X148073809Y-80492380D01*
X147978571Y-80635238D01*
X147883333Y-80730476D01*
X147788095Y-80778095D01*
X149311904Y-81492380D02*
X148740476Y-81492380D01*
X149026190Y-81492380D02*
X149026190Y-80492380D01*
X148930952Y-80635238D01*
X148835714Y-80730476D01*
X148740476Y-80778095D01*
G04 #@! TO.C,C18*
X143257142Y-104187142D02*
X143209523Y-104234761D01*
X143066666Y-104282380D01*
X142971428Y-104282380D01*
X142828571Y-104234761D01*
X142733333Y-104139523D01*
X142685714Y-104044285D01*
X142638095Y-103853809D01*
X142638095Y-103710952D01*
X142685714Y-103520476D01*
X142733333Y-103425238D01*
X142828571Y-103330000D01*
X142971428Y-103282380D01*
X143066666Y-103282380D01*
X143209523Y-103330000D01*
X143257142Y-103377619D01*
X144209523Y-104282380D02*
X143638095Y-104282380D01*
X143923809Y-104282380D02*
X143923809Y-103282380D01*
X143828571Y-103425238D01*
X143733333Y-103520476D01*
X143638095Y-103568095D01*
X144780952Y-103710952D02*
X144685714Y-103663333D01*
X144638095Y-103615714D01*
X144590476Y-103520476D01*
X144590476Y-103472857D01*
X144638095Y-103377619D01*
X144685714Y-103330000D01*
X144780952Y-103282380D01*
X144971428Y-103282380D01*
X145066666Y-103330000D01*
X145114285Y-103377619D01*
X145161904Y-103472857D01*
X145161904Y-103520476D01*
X145114285Y-103615714D01*
X145066666Y-103663333D01*
X144971428Y-103710952D01*
X144780952Y-103710952D01*
X144685714Y-103758571D01*
X144638095Y-103806190D01*
X144590476Y-103901428D01*
X144590476Y-104091904D01*
X144638095Y-104187142D01*
X144685714Y-104234761D01*
X144780952Y-104282380D01*
X144971428Y-104282380D01*
X145066666Y-104234761D01*
X145114285Y-104187142D01*
X145161904Y-104091904D01*
X145161904Y-103901428D01*
X145114285Y-103806190D01*
X145066666Y-103758571D01*
X144971428Y-103710952D01*
G04 #@! TO.C,C7*
X166833333Y-88357142D02*
X166785714Y-88404761D01*
X166642857Y-88452380D01*
X166547619Y-88452380D01*
X166404761Y-88404761D01*
X166309523Y-88309523D01*
X166261904Y-88214285D01*
X166214285Y-88023809D01*
X166214285Y-87880952D01*
X166261904Y-87690476D01*
X166309523Y-87595238D01*
X166404761Y-87500000D01*
X166547619Y-87452380D01*
X166642857Y-87452380D01*
X166785714Y-87500000D01*
X166833333Y-87547619D01*
X167166666Y-87452380D02*
X167833333Y-87452380D01*
X167404761Y-88452380D01*
G04 #@! TO.C,C6*
X131583333Y-93857142D02*
X131535714Y-93904761D01*
X131392857Y-93952380D01*
X131297619Y-93952380D01*
X131154761Y-93904761D01*
X131059523Y-93809523D01*
X131011904Y-93714285D01*
X130964285Y-93523809D01*
X130964285Y-93380952D01*
X131011904Y-93190476D01*
X131059523Y-93095238D01*
X131154761Y-93000000D01*
X131297619Y-92952380D01*
X131392857Y-92952380D01*
X131535714Y-93000000D01*
X131583333Y-93047619D01*
X132440476Y-92952380D02*
X132250000Y-92952380D01*
X132154761Y-93000000D01*
X132107142Y-93047619D01*
X132011904Y-93190476D01*
X131964285Y-93380952D01*
X131964285Y-93761904D01*
X132011904Y-93857142D01*
X132059523Y-93904761D01*
X132154761Y-93952380D01*
X132345238Y-93952380D01*
X132440476Y-93904761D01*
X132488095Y-93857142D01*
X132535714Y-93761904D01*
X132535714Y-93523809D01*
X132488095Y-93428571D01*
X132440476Y-93380952D01*
X132345238Y-93333333D01*
X132154761Y-93333333D01*
X132059523Y-93380952D01*
X132011904Y-93428571D01*
X131964285Y-93523809D01*
G04 #@! TO.C,C5*
X131583333Y-91857142D02*
X131535714Y-91904761D01*
X131392857Y-91952380D01*
X131297619Y-91952380D01*
X131154761Y-91904761D01*
X131059523Y-91809523D01*
X131011904Y-91714285D01*
X130964285Y-91523809D01*
X130964285Y-91380952D01*
X131011904Y-91190476D01*
X131059523Y-91095238D01*
X131154761Y-91000000D01*
X131297619Y-90952380D01*
X131392857Y-90952380D01*
X131535714Y-91000000D01*
X131583333Y-91047619D01*
X132488095Y-90952380D02*
X132011904Y-90952380D01*
X131964285Y-91428571D01*
X132011904Y-91380952D01*
X132107142Y-91333333D01*
X132345238Y-91333333D01*
X132440476Y-91380952D01*
X132488095Y-91428571D01*
X132535714Y-91523809D01*
X132535714Y-91761904D01*
X132488095Y-91857142D01*
X132440476Y-91904761D01*
X132345238Y-91952380D01*
X132107142Y-91952380D01*
X132011904Y-91904761D01*
X131964285Y-91857142D01*
G04 #@! TO.C,C4*
X140333333Y-96857142D02*
X140285714Y-96904761D01*
X140142857Y-96952380D01*
X140047619Y-96952380D01*
X139904761Y-96904761D01*
X139809523Y-96809523D01*
X139761904Y-96714285D01*
X139714285Y-96523809D01*
X139714285Y-96380952D01*
X139761904Y-96190476D01*
X139809523Y-96095238D01*
X139904761Y-96000000D01*
X140047619Y-95952380D01*
X140142857Y-95952380D01*
X140285714Y-96000000D01*
X140333333Y-96047619D01*
X141190476Y-96285714D02*
X141190476Y-96952380D01*
X140952380Y-95904761D02*
X140714285Y-96619047D01*
X141333333Y-96619047D01*
G04 #@! TO.C,C3*
X136833333Y-95357142D02*
X136785714Y-95404761D01*
X136642857Y-95452380D01*
X136547619Y-95452380D01*
X136404761Y-95404761D01*
X136309523Y-95309523D01*
X136261904Y-95214285D01*
X136214285Y-95023809D01*
X136214285Y-94880952D01*
X136261904Y-94690476D01*
X136309523Y-94595238D01*
X136404761Y-94500000D01*
X136547619Y-94452380D01*
X136642857Y-94452380D01*
X136785714Y-94500000D01*
X136833333Y-94547619D01*
X137166666Y-94452380D02*
X137785714Y-94452380D01*
X137452380Y-94833333D01*
X137595238Y-94833333D01*
X137690476Y-94880952D01*
X137738095Y-94928571D01*
X137785714Y-95023809D01*
X137785714Y-95261904D01*
X137738095Y-95357142D01*
X137690476Y-95404761D01*
X137595238Y-95452380D01*
X137309523Y-95452380D01*
X137214285Y-95404761D01*
X137166666Y-95357142D01*
G04 #@! TO.C,C2*
X137083333Y-101357142D02*
X137035714Y-101404761D01*
X136892857Y-101452380D01*
X136797619Y-101452380D01*
X136654761Y-101404761D01*
X136559523Y-101309523D01*
X136511904Y-101214285D01*
X136464285Y-101023809D01*
X136464285Y-100880952D01*
X136511904Y-100690476D01*
X136559523Y-100595238D01*
X136654761Y-100500000D01*
X136797619Y-100452380D01*
X136892857Y-100452380D01*
X137035714Y-100500000D01*
X137083333Y-100547619D01*
X137464285Y-100547619D02*
X137511904Y-100500000D01*
X137607142Y-100452380D01*
X137845238Y-100452380D01*
X137940476Y-100500000D01*
X137988095Y-100547619D01*
X138035714Y-100642857D01*
X138035714Y-100738095D01*
X137988095Y-100880952D01*
X137416666Y-101452380D01*
X138035714Y-101452380D01*
G04 #@! TO.C,C1*
X140583333Y-99357142D02*
X140535714Y-99404761D01*
X140392857Y-99452380D01*
X140297619Y-99452380D01*
X140154761Y-99404761D01*
X140059523Y-99309523D01*
X140011904Y-99214285D01*
X139964285Y-99023809D01*
X139964285Y-98880952D01*
X140011904Y-98690476D01*
X140059523Y-98595238D01*
X140154761Y-98500000D01*
X140297619Y-98452380D01*
X140392857Y-98452380D01*
X140535714Y-98500000D01*
X140583333Y-98547619D01*
X141535714Y-99452380D02*
X140964285Y-99452380D01*
X141250000Y-99452380D02*
X141250000Y-98452380D01*
X141154761Y-98595238D01*
X141059523Y-98690476D01*
X140964285Y-98738095D01*
G04 #@! TO.C,C9*
X139342857Y-83333333D02*
X139295238Y-83285714D01*
X139247619Y-83142857D01*
X139247619Y-83047619D01*
X139295238Y-82904761D01*
X139390476Y-82809523D01*
X139485714Y-82761904D01*
X139676190Y-82714285D01*
X139819047Y-82714285D01*
X140009523Y-82761904D01*
X140104761Y-82809523D01*
X140200000Y-82904761D01*
X140247619Y-83047619D01*
X140247619Y-83142857D01*
X140200000Y-83285714D01*
X140152380Y-83333333D01*
X139247619Y-83809523D02*
X139247619Y-84000000D01*
X139295238Y-84095238D01*
X139342857Y-84142857D01*
X139485714Y-84238095D01*
X139676190Y-84285714D01*
X140057142Y-84285714D01*
X140152380Y-84238095D01*
X140200000Y-84190476D01*
X140247619Y-84095238D01*
X140247619Y-83904761D01*
X140200000Y-83809523D01*
X140152380Y-83761904D01*
X140057142Y-83714285D01*
X139819047Y-83714285D01*
X139723809Y-83761904D01*
X139676190Y-83809523D01*
X139628571Y-83904761D01*
X139628571Y-84095238D01*
X139676190Y-84190476D01*
X139723809Y-84238095D01*
X139819047Y-84285714D01*
G04 #@! TO.C,C10*
X136107142Y-88307142D02*
X136059523Y-88354761D01*
X135916666Y-88402380D01*
X135821428Y-88402380D01*
X135678571Y-88354761D01*
X135583333Y-88259523D01*
X135535714Y-88164285D01*
X135488095Y-87973809D01*
X135488095Y-87830952D01*
X135535714Y-87640476D01*
X135583333Y-87545238D01*
X135678571Y-87450000D01*
X135821428Y-87402380D01*
X135916666Y-87402380D01*
X136059523Y-87450000D01*
X136107142Y-87497619D01*
X137059523Y-88402380D02*
X136488095Y-88402380D01*
X136773809Y-88402380D02*
X136773809Y-87402380D01*
X136678571Y-87545238D01*
X136583333Y-87640476D01*
X136488095Y-87688095D01*
X137678571Y-87402380D02*
X137773809Y-87402380D01*
X137869047Y-87450000D01*
X137916666Y-87497619D01*
X137964285Y-87592857D01*
X138011904Y-87783333D01*
X138011904Y-88021428D01*
X137964285Y-88211904D01*
X137916666Y-88307142D01*
X137869047Y-88354761D01*
X137773809Y-88402380D01*
X137678571Y-88402380D01*
X137583333Y-88354761D01*
X137535714Y-88307142D01*
X137488095Y-88211904D01*
X137440476Y-88021428D01*
X137440476Y-87783333D01*
X137488095Y-87592857D01*
X137535714Y-87497619D01*
X137583333Y-87450000D01*
X137678571Y-87402380D01*
G04 #@! TO.C,Y1*
X140523809Y-91476190D02*
X140523809Y-91952380D01*
X140190476Y-90952380D02*
X140523809Y-91476190D01*
X140857142Y-90952380D01*
X141714285Y-91952380D02*
X141142857Y-91952380D01*
X141428571Y-91952380D02*
X141428571Y-90952380D01*
X141333333Y-91095238D01*
X141238095Y-91190476D01*
X141142857Y-91238095D01*
G04 #@! TO.C,L1*
X131083333Y-95702380D02*
X130607142Y-95702380D01*
X130607142Y-94702380D01*
X131940476Y-95702380D02*
X131369047Y-95702380D01*
X131654761Y-95702380D02*
X131654761Y-94702380D01*
X131559523Y-94845238D01*
X131464285Y-94940476D01*
X131369047Y-94988095D01*
G04 #@! TO.C,D1*
X186222380Y-96218095D02*
X185222380Y-96218095D01*
X185222380Y-95980000D01*
X185270000Y-95837142D01*
X185365238Y-95741904D01*
X185460476Y-95694285D01*
X185650952Y-95646666D01*
X185793809Y-95646666D01*
X185984285Y-95694285D01*
X186079523Y-95741904D01*
X186174761Y-95837142D01*
X186222380Y-95980000D01*
X186222380Y-96218095D01*
X186222380Y-94694285D02*
X186222380Y-95265714D01*
X186222380Y-94980000D02*
X185222380Y-94980000D01*
X185365238Y-95075238D01*
X185460476Y-95170476D01*
X185508095Y-95265714D01*
G04 #@! TO.C,D2*
X182802380Y-96038095D02*
X181802380Y-96038095D01*
X181802380Y-95800000D01*
X181850000Y-95657142D01*
X181945238Y-95561904D01*
X182040476Y-95514285D01*
X182230952Y-95466666D01*
X182373809Y-95466666D01*
X182564285Y-95514285D01*
X182659523Y-95561904D01*
X182754761Y-95657142D01*
X182802380Y-95800000D01*
X182802380Y-96038095D01*
X181897619Y-95085714D02*
X181850000Y-95038095D01*
X181802380Y-94942857D01*
X181802380Y-94704761D01*
X181850000Y-94609523D01*
X181897619Y-94561904D01*
X181992857Y-94514285D01*
X182088095Y-94514285D01*
X182230952Y-94561904D01*
X182802380Y-95133333D01*
X182802380Y-94514285D01*
G04 #@! TO.C,R5*
X140122380Y-78396666D02*
X139646190Y-78730000D01*
X140122380Y-78968095D02*
X139122380Y-78968095D01*
X139122380Y-78587142D01*
X139170000Y-78491904D01*
X139217619Y-78444285D01*
X139312857Y-78396666D01*
X139455714Y-78396666D01*
X139550952Y-78444285D01*
X139598571Y-78491904D01*
X139646190Y-78587142D01*
X139646190Y-78968095D01*
X139122380Y-77491904D02*
X139122380Y-77968095D01*
X139598571Y-78015714D01*
X139550952Y-77968095D01*
X139503333Y-77872857D01*
X139503333Y-77634761D01*
X139550952Y-77539523D01*
X139598571Y-77491904D01*
X139693809Y-77444285D01*
X139931904Y-77444285D01*
X140027142Y-77491904D01*
X140074761Y-77539523D01*
X140122380Y-77634761D01*
X140122380Y-77872857D01*
X140074761Y-77968095D01*
X140027142Y-78015714D01*
G04 #@! TO.C,R6*
X172753333Y-95982380D02*
X172420000Y-95506190D01*
X172181904Y-95982380D02*
X172181904Y-94982380D01*
X172562857Y-94982380D01*
X172658095Y-95030000D01*
X172705714Y-95077619D01*
X172753333Y-95172857D01*
X172753333Y-95315714D01*
X172705714Y-95410952D01*
X172658095Y-95458571D01*
X172562857Y-95506190D01*
X172181904Y-95506190D01*
X173610476Y-94982380D02*
X173420000Y-94982380D01*
X173324761Y-95030000D01*
X173277142Y-95077619D01*
X173181904Y-95220476D01*
X173134285Y-95410952D01*
X173134285Y-95791904D01*
X173181904Y-95887142D01*
X173229523Y-95934761D01*
X173324761Y-95982380D01*
X173515238Y-95982380D01*
X173610476Y-95934761D01*
X173658095Y-95887142D01*
X173705714Y-95791904D01*
X173705714Y-95553809D01*
X173658095Y-95458571D01*
X173610476Y-95410952D01*
X173515238Y-95363333D01*
X173324761Y-95363333D01*
X173229523Y-95410952D01*
X173181904Y-95458571D01*
X173134285Y-95553809D01*
G04 #@! TO.C,R1*
X134693333Y-96232380D02*
X134360000Y-95756190D01*
X134121904Y-96232380D02*
X134121904Y-95232380D01*
X134502857Y-95232380D01*
X134598095Y-95280000D01*
X134645714Y-95327619D01*
X134693333Y-95422857D01*
X134693333Y-95565714D01*
X134645714Y-95660952D01*
X134598095Y-95708571D01*
X134502857Y-95756190D01*
X134121904Y-95756190D01*
X135645714Y-96232380D02*
X135074285Y-96232380D01*
X135360000Y-96232380D02*
X135360000Y-95232380D01*
X135264761Y-95375238D01*
X135169523Y-95470476D01*
X135074285Y-95518095D01*
G04 #@! TO.C,R4*
X154923333Y-74402380D02*
X154590000Y-73926190D01*
X154351904Y-74402380D02*
X154351904Y-73402380D01*
X154732857Y-73402380D01*
X154828095Y-73450000D01*
X154875714Y-73497619D01*
X154923333Y-73592857D01*
X154923333Y-73735714D01*
X154875714Y-73830952D01*
X154828095Y-73878571D01*
X154732857Y-73926190D01*
X154351904Y-73926190D01*
X155780476Y-73735714D02*
X155780476Y-74402380D01*
X155542380Y-73354761D02*
X155304285Y-74069047D01*
X155923333Y-74069047D01*
G04 #@! TO.C,Q1*
X176074761Y-93197619D02*
X175979523Y-93150000D01*
X175884285Y-93054761D01*
X175741428Y-92911904D01*
X175646190Y-92864285D01*
X175550952Y-92864285D01*
X175598571Y-93102380D02*
X175503333Y-93054761D01*
X175408095Y-92959523D01*
X175360476Y-92769047D01*
X175360476Y-92435714D01*
X175408095Y-92245238D01*
X175503333Y-92150000D01*
X175598571Y-92102380D01*
X175789047Y-92102380D01*
X175884285Y-92150000D01*
X175979523Y-92245238D01*
X176027142Y-92435714D01*
X176027142Y-92769047D01*
X175979523Y-92959523D01*
X175884285Y-93054761D01*
X175789047Y-93102380D01*
X175598571Y-93102380D01*
X176979523Y-93102380D02*
X176408095Y-93102380D01*
X176693809Y-93102380D02*
X176693809Y-92102380D01*
X176598571Y-92245238D01*
X176503333Y-92340476D01*
X176408095Y-92388095D01*
G04 #@! TO.C,U2*
D16*
X181758370Y-62221913D02*
X181758370Y-62789693D01*
X181791768Y-62856491D01*
X181825167Y-62889889D01*
X181891965Y-62923288D01*
X182025560Y-62923288D01*
X182092358Y-62889889D01*
X182125756Y-62856491D01*
X182159155Y-62789693D01*
X182159155Y-62221913D01*
X182459745Y-62288711D02*
X182493143Y-62255312D01*
X182559941Y-62221913D01*
X182726935Y-62221913D01*
X182793733Y-62255312D01*
X182827131Y-62288711D01*
X182860530Y-62355508D01*
X182860530Y-62422306D01*
X182827131Y-62522502D01*
X182426346Y-62923288D01*
X182860530Y-62923288D01*
X179067190Y-89203057D02*
X178366033Y-89203057D01*
X178866859Y-88969338D01*
X178366033Y-88735619D01*
X179067190Y-88735619D01*
X178366033Y-88268181D02*
X178366033Y-88134627D01*
X178399421Y-88067850D01*
X178466198Y-88001074D01*
X178599752Y-87967685D01*
X178833471Y-87967685D01*
X178967024Y-88001074D01*
X179033801Y-88067850D01*
X179067190Y-88134627D01*
X179067190Y-88268181D01*
X179033801Y-88334958D01*
X178967024Y-88401735D01*
X178833471Y-88435123D01*
X178599752Y-88435123D01*
X178466198Y-88401735D01*
X178399421Y-88334958D01*
X178366033Y-88268181D01*
X178366033Y-87667189D02*
X178933636Y-87667189D01*
X179000413Y-87633801D01*
X179033801Y-87600412D01*
X179067190Y-87533636D01*
X179067190Y-87400082D01*
X179033801Y-87333305D01*
X179000413Y-87299917D01*
X178933636Y-87266528D01*
X178366033Y-87266528D01*
X179067190Y-86932644D02*
X178366033Y-86932644D01*
X178366033Y-86765702D01*
X178399421Y-86665536D01*
X178466198Y-86598760D01*
X178532975Y-86565371D01*
X178666528Y-86531983D01*
X178766694Y-86531983D01*
X178900247Y-86565371D01*
X178967024Y-86598760D01*
X179033801Y-86665536D01*
X179067190Y-86765702D01*
X179067190Y-86932644D01*
X179067190Y-85897603D02*
X179067190Y-86231487D01*
X178366033Y-86231487D01*
X178699917Y-85663884D02*
X178699917Y-85430165D01*
X179067190Y-85329999D02*
X179067190Y-85663884D01*
X178366033Y-85663884D01*
X178366033Y-85329999D01*
X178800082Y-85029503D02*
X178800082Y-84495289D01*
X178699917Y-83927685D02*
X178733305Y-83827520D01*
X178766694Y-83794132D01*
X178833471Y-83760743D01*
X178933636Y-83760743D01*
X179000413Y-83794132D01*
X179033801Y-83827520D01*
X179067190Y-83894297D01*
X179067190Y-84161404D01*
X178366033Y-84161404D01*
X178366033Y-83927685D01*
X178399421Y-83860908D01*
X178432809Y-83827520D01*
X178499586Y-83794132D01*
X178566363Y-83794132D01*
X178633140Y-83827520D01*
X178666528Y-83860908D01*
X178699917Y-83927685D01*
X178699917Y-84161404D01*
X179067190Y-83126363D02*
X179067190Y-83460247D01*
X178366033Y-83460247D01*
X178366033Y-82892644D02*
X178933636Y-82892644D01*
X179000413Y-82859256D01*
X179033801Y-82825867D01*
X179067190Y-82759090D01*
X179067190Y-82625537D01*
X179033801Y-82558760D01*
X179000413Y-82525371D01*
X178933636Y-82491983D01*
X178366033Y-82491983D01*
X178699917Y-82158099D02*
X178699917Y-81924380D01*
X179067190Y-81824214D02*
X179067190Y-82158099D01*
X178366033Y-82158099D01*
X178366033Y-81824214D01*
X178366033Y-81623884D02*
X178366033Y-81223223D01*
X179067190Y-81423553D02*
X178366033Y-81423553D01*
X178366033Y-80855950D02*
X178366033Y-80722396D01*
X178399421Y-80655619D01*
X178466198Y-80588842D01*
X178599752Y-80555454D01*
X178833471Y-80555454D01*
X178967024Y-80588842D01*
X179033801Y-80655619D01*
X179067190Y-80722396D01*
X179067190Y-80855950D01*
X179033801Y-80922727D01*
X178967024Y-80989504D01*
X178833471Y-81022892D01*
X178599752Y-81022892D01*
X178466198Y-80989504D01*
X178399421Y-80922727D01*
X178366033Y-80855950D01*
X178366033Y-80121404D02*
X178366033Y-79987851D01*
X178399421Y-79921074D01*
X178466198Y-79854297D01*
X178599752Y-79820909D01*
X178833471Y-79820909D01*
X178967024Y-79854297D01*
X179033801Y-79921074D01*
X179067190Y-79987851D01*
X179067190Y-80121404D01*
X179033801Y-80188181D01*
X178967024Y-80254958D01*
X178833471Y-80288347D01*
X178599752Y-80288347D01*
X178466198Y-80254958D01*
X178399421Y-80188181D01*
X178366033Y-80121404D01*
X178366033Y-79620578D02*
X178366033Y-79219917D01*
X179067190Y-79420247D02*
X178366033Y-79420247D01*
X179067190Y-78986198D02*
X178366033Y-78986198D01*
X178699917Y-78986198D02*
X178699917Y-78585537D01*
X179067190Y-78585537D02*
X178366033Y-78585537D01*
X178800082Y-78251652D02*
X178800082Y-77717438D01*
X179067190Y-77383553D02*
X178366033Y-77383553D01*
X178699917Y-77383553D02*
X178699917Y-76982892D01*
X179067190Y-76982892D02*
X178366033Y-76982892D01*
X179000413Y-76248347D02*
X179033801Y-76281735D01*
X179067190Y-76381900D01*
X179067190Y-76448677D01*
X179033801Y-76548843D01*
X178967024Y-76615619D01*
X178900247Y-76649008D01*
X178766694Y-76682396D01*
X178666528Y-76682396D01*
X178532975Y-76649008D01*
X178466198Y-76615619D01*
X178399421Y-76548843D01*
X178366033Y-76448677D01*
X178366033Y-76381900D01*
X178399421Y-76281735D01*
X178432809Y-76248347D01*
X178800082Y-75947851D02*
X178800082Y-75413636D01*
X178366033Y-74946198D02*
X178366033Y-74879421D01*
X178399421Y-74812644D01*
X178432809Y-74779256D01*
X178499586Y-74745867D01*
X178633140Y-74712479D01*
X178800082Y-74712479D01*
X178933636Y-74745867D01*
X179000413Y-74779256D01*
X179033801Y-74812644D01*
X179067190Y-74879421D01*
X179067190Y-74946198D01*
X179033801Y-75012975D01*
X179000413Y-75046363D01*
X178933636Y-75079752D01*
X178800082Y-75113140D01*
X178633140Y-75113140D01*
X178499586Y-75079752D01*
X178432809Y-75046363D01*
X178399421Y-75012975D01*
X178366033Y-74946198D01*
X178366033Y-74078099D02*
X178366033Y-74411983D01*
X178699917Y-74445372D01*
X178666528Y-74411983D01*
X178633140Y-74345206D01*
X178633140Y-74178264D01*
X178666528Y-74111487D01*
X178699917Y-74078099D01*
X178766694Y-74044710D01*
X178933636Y-74044710D01*
X179000413Y-74078099D01*
X179033801Y-74111487D01*
X179067190Y-74178264D01*
X179067190Y-74345206D01*
X179033801Y-74411983D01*
X179000413Y-74445372D01*
X179334297Y-73543884D02*
X179300909Y-73577272D01*
X179200743Y-73644049D01*
X179133966Y-73677438D01*
X179033801Y-73710826D01*
X178866859Y-73744215D01*
X178733305Y-73744215D01*
X178566363Y-73710826D01*
X178466198Y-73677438D01*
X178399421Y-73644049D01*
X178299256Y-73577272D01*
X178265867Y-73543884D01*
X178366033Y-73343553D02*
X178366033Y-72909504D01*
X178633140Y-73143223D01*
X178633140Y-73043058D01*
X178666528Y-72976281D01*
X178699917Y-72942892D01*
X178766694Y-72909504D01*
X178933636Y-72909504D01*
X179000413Y-72942892D01*
X179033801Y-72976281D01*
X179067190Y-73043058D01*
X179067190Y-73243388D01*
X179033801Y-73310165D01*
X179000413Y-73343553D01*
X178599752Y-72308512D02*
X179067190Y-72308512D01*
X178332644Y-72475454D02*
X178833471Y-72642396D01*
X178833471Y-72208347D01*
X179067190Y-71941239D02*
X178366033Y-71941239D01*
X178366033Y-71674132D01*
X178399421Y-71607355D01*
X178432809Y-71573967D01*
X178499586Y-71540578D01*
X178599752Y-71540578D01*
X178666528Y-71573967D01*
X178699917Y-71607355D01*
X178733305Y-71674132D01*
X178733305Y-71941239D01*
X178800082Y-71240082D02*
X178800082Y-70705868D01*
X178432809Y-70405372D02*
X178399421Y-70371983D01*
X178366033Y-70305206D01*
X178366033Y-70138264D01*
X178399421Y-70071487D01*
X178432809Y-70038099D01*
X178499586Y-70004711D01*
X178566363Y-70004711D01*
X178666528Y-70038099D01*
X179067190Y-70438760D01*
X179067190Y-70004711D01*
X178366033Y-69770992D02*
X178366033Y-69303554D01*
X179067190Y-69604049D01*
X178366033Y-69103223D02*
X179067190Y-68635785D01*
X178366033Y-68635785D02*
X179067190Y-69103223D01*
X179067190Y-68001405D02*
X179067190Y-68402066D01*
X179067190Y-68201735D02*
X178366033Y-68201735D01*
X178466198Y-68268512D01*
X178532975Y-68335289D01*
X178566363Y-68402066D01*
X178366033Y-67767686D02*
X178366033Y-67333636D01*
X178633140Y-67567355D01*
X178633140Y-67467190D01*
X178666528Y-67400413D01*
X178699917Y-67367025D01*
X178766694Y-67333636D01*
X178933636Y-67333636D01*
X179000413Y-67367025D01*
X179033801Y-67400413D01*
X179067190Y-67467190D01*
X179067190Y-67667521D01*
X179033801Y-67734297D01*
X179000413Y-67767686D01*
X179067190Y-67033140D02*
X178366033Y-67033140D01*
X178866859Y-66799421D01*
X178366033Y-66565702D01*
X179067190Y-66565702D01*
X179067190Y-66231818D02*
X178366033Y-66231818D01*
X178866859Y-65998099D01*
X178366033Y-65764380D01*
X179067190Y-65764380D01*
X179334297Y-65497273D02*
X179300909Y-65463884D01*
X179200743Y-65397107D01*
X179133966Y-65363719D01*
X179033801Y-65330331D01*
X178866859Y-65296942D01*
X178733305Y-65296942D01*
X178566363Y-65330331D01*
X178466198Y-65363719D01*
X178399421Y-65397107D01*
X178299256Y-65463884D01*
X178265867Y-65497273D01*
G04 #@! TD*
M02*
