G04 #@! TF.GenerationSoftware,KiCad,Pcbnew,(5.0.0)*
G04 #@! TF.CreationDate,2018-10-31T15:25:37+01:00*
G04 #@! TF.ProjectId,Digital,4469676974616C2E6B696361645F7063,rev?*
G04 #@! TF.SameCoordinates,Original*
G04 #@! TF.FileFunction,Soldermask,Top*
G04 #@! TF.FilePolarity,Negative*
%FSLAX46Y46*%
G04 Gerber Fmt 4.6, Leading zero omitted, Abs format (unit mm)*
G04 Created by KiCad (PCBNEW (5.0.0)) date 10/31/18 15:25:37*
%MOMM*%
%LPD*%
G01*
G04 APERTURE LIST*
%ADD10R,1.500000X1.000000*%
%ADD11R,1.600000X1.600000*%
%ADD12R,0.800000X1.000000*%
%ADD13R,1.000000X0.800000*%
%ADD14R,1.100000X1.700000*%
%ADD15O,2.100000X2.100000*%
%ADD16R,2.100000X2.100000*%
%ADD17R,1.900000X0.800000*%
%ADD18R,1.900000X0.680000*%
%ADD19R,0.800000X1.900000*%
%ADD20R,0.680000X1.900000*%
%ADD21R,0.900000X1.000000*%
%ADD22R,1.000000X0.900000*%
%ADD23R,1.400000X1.550000*%
%ADD24R,1.300000X1.200000*%
%ADD25R,1.400000X1.700000*%
%ADD26R,1.700000X1.400000*%
G04 APERTURE END LIST*
D10*
G04 #@! TO.C,Y2*
X140750000Y-87350000D03*
X140750000Y-88750000D03*
G04 #@! TD*
D11*
G04 #@! TO.C,O*
X162250000Y-70900000D03*
X162250000Y-73100000D03*
G04 #@! TD*
G04 #@! TO.C,G*
X169750000Y-73100000D03*
X169750000Y-70900000D03*
G04 #@! TD*
G04 #@! TO.C,R*
X167250000Y-70900000D03*
X167250000Y-73100000D03*
G04 #@! TD*
G04 #@! TO.C,Y*
X159500000Y-73100000D03*
X159500000Y-70900000D03*
G04 #@! TD*
G04 #@! TO.C,B*
X164750000Y-70900000D03*
X164750000Y-73100000D03*
G04 #@! TD*
D12*
G04 #@! TO.C,R7*
X166200000Y-82750000D03*
X165300000Y-82750000D03*
G04 #@! TD*
G04 #@! TO.C,R8*
X165300000Y-81000000D03*
X166200000Y-81000000D03*
G04 #@! TD*
G04 #@! TO.C,R9*
X166200000Y-79250000D03*
X165300000Y-79250000D03*
G04 #@! TD*
D13*
G04 #@! TO.C,R10*
X163500000Y-78700000D03*
X163500000Y-77800000D03*
G04 #@! TD*
G04 #@! TO.C,R11*
X160500000Y-77800000D03*
X160500000Y-78700000D03*
G04 #@! TD*
D14*
G04 #@! TO.C,R2*
X155120000Y-78550000D03*
X153220000Y-78550000D03*
G04 #@! TD*
G04 #@! TO.C,R3*
X158940000Y-78520000D03*
X157040000Y-78520000D03*
G04 #@! TD*
D15*
G04 #@! TO.C,DAC1*
X140740000Y-109260000D03*
D16*
X138200000Y-109260000D03*
G04 #@! TD*
G04 #@! TO.C,DigitalPWR1*
X171150000Y-85950000D03*
D15*
X171150000Y-88490000D03*
G04 #@! TD*
G04 #@! TO.C,I2C1*
X160390000Y-109280000D03*
D16*
X157850000Y-109280000D03*
G04 #@! TD*
G04 #@! TO.C,ADC1*
X133570000Y-101830000D03*
D15*
X133570000Y-104370000D03*
X133570000Y-106910000D03*
X133570000Y-109450000D03*
G04 #@! TD*
G04 #@! TO.C,ADC2*
X153270000Y-109280000D03*
X150730000Y-109280000D03*
X148190000Y-109280000D03*
D16*
X145650000Y-109280000D03*
G04 #@! TD*
D15*
G04 #@! TO.C,GPIO1*
X167080000Y-109170000D03*
X169620000Y-109170000D03*
X172160000Y-109170000D03*
X174700000Y-109170000D03*
X177240000Y-109170000D03*
X179780000Y-109170000D03*
X182320000Y-109170000D03*
D16*
X184860000Y-109170000D03*
G04 #@! TD*
D15*
G04 #@! TO.C,J1*
X151160000Y-72460000D03*
X151160000Y-75000000D03*
X148620000Y-72460000D03*
X148620000Y-75000000D03*
X146080000Y-72460000D03*
X146080000Y-75000000D03*
X143540000Y-72460000D03*
X143540000Y-75000000D03*
X141000000Y-72460000D03*
D16*
X141000000Y-75000000D03*
G04 #@! TD*
D17*
G04 #@! TO.C,U1*
X161900000Y-86940000D03*
D18*
X161900000Y-87500000D03*
X161900000Y-88000000D03*
X161900000Y-88500000D03*
X161900000Y-89000000D03*
X161900000Y-89500000D03*
X161900000Y-90000000D03*
X161900000Y-90500000D03*
X161900000Y-91000000D03*
X161900000Y-91500000D03*
X161900000Y-92000000D03*
X161900000Y-92500000D03*
X161900000Y-93000000D03*
X161900000Y-93500000D03*
X161900000Y-94000000D03*
X161900000Y-94500000D03*
X161900000Y-95000000D03*
X161900000Y-95500000D03*
X161900000Y-96000000D03*
X161900000Y-96500000D03*
X161900000Y-97000000D03*
X161900000Y-97500000D03*
X161900000Y-98000000D03*
X161900000Y-98500000D03*
D17*
X161900000Y-99060000D03*
X146100000Y-86940000D03*
D18*
X146100000Y-87500000D03*
X146100000Y-88000000D03*
X146100000Y-88500000D03*
X146100000Y-89000000D03*
X146100000Y-89500000D03*
X146100000Y-90000000D03*
X146100000Y-90500000D03*
X146100000Y-91000000D03*
X146100000Y-91500000D03*
X146100000Y-92000000D03*
X146100000Y-92500000D03*
X146100000Y-93000000D03*
X146100000Y-93500000D03*
X146100000Y-94000000D03*
X146100000Y-94500000D03*
X146100000Y-95000000D03*
X146100000Y-95500000D03*
X146100000Y-96000000D03*
X146100000Y-96500000D03*
X146100000Y-97000000D03*
X146100000Y-97500000D03*
X146100000Y-98000000D03*
X146100000Y-98500000D03*
D17*
X146100000Y-99060000D03*
D19*
X147940000Y-100900000D03*
D20*
X148500000Y-100900000D03*
X149000000Y-100900000D03*
X149500000Y-100900000D03*
X150000000Y-100900000D03*
X150500000Y-100900000D03*
X151000000Y-100900000D03*
X151500000Y-100900000D03*
X152000000Y-100900000D03*
X152500000Y-100900000D03*
X153000000Y-100900000D03*
X153500000Y-100900000D03*
X154000000Y-100900000D03*
X154500000Y-100900000D03*
X155000000Y-100900000D03*
X155500000Y-100900000D03*
X156000000Y-100900000D03*
X156500000Y-100900000D03*
X157000000Y-100900000D03*
X157500000Y-100900000D03*
X158000000Y-100900000D03*
X158500000Y-100900000D03*
X159000000Y-100900000D03*
X159500000Y-100900000D03*
D19*
X160060000Y-100900000D03*
X160060000Y-85100000D03*
D20*
X159500000Y-85100000D03*
X159000000Y-85100000D03*
X158500000Y-85100000D03*
X158000000Y-85100000D03*
X157500000Y-85100000D03*
X157000000Y-85100000D03*
X156500000Y-85100000D03*
X156000000Y-85100000D03*
X155500000Y-85100000D03*
X155000000Y-85100000D03*
X154500000Y-85100000D03*
X154000000Y-85100000D03*
X153500000Y-85100000D03*
X153000000Y-85100000D03*
X152500000Y-85100000D03*
X152000000Y-85100000D03*
X151500000Y-85100000D03*
X151000000Y-85100000D03*
X150500000Y-85100000D03*
X150000000Y-85100000D03*
X149500000Y-85100000D03*
X149000000Y-85100000D03*
X148500000Y-85100000D03*
D19*
X147940000Y-85100000D03*
G04 #@! TD*
D21*
G04 #@! TO.C,C8*
X159000000Y-104550000D03*
X159000000Y-103450000D03*
G04 #@! TD*
G04 #@! TO.C,C17*
X165000000Y-85450000D03*
X165000000Y-86550000D03*
G04 #@! TD*
G04 #@! TO.C,C16*
X143320000Y-91260000D03*
X143320000Y-92360000D03*
G04 #@! TD*
D22*
G04 #@! TO.C,C15*
X133765000Y-73005000D03*
X134865000Y-73005000D03*
G04 #@! TD*
G04 #@! TO.C,C14*
X134865000Y-76045000D03*
X133765000Y-76045000D03*
G04 #@! TD*
G04 #@! TO.C,C13*
X161550000Y-104000000D03*
X160450000Y-104000000D03*
G04 #@! TD*
G04 #@! TO.C,C12*
X134865000Y-78855000D03*
X133765000Y-78855000D03*
G04 #@! TD*
G04 #@! TO.C,C11*
X147470000Y-82310000D03*
X148570000Y-82310000D03*
G04 #@! TD*
G04 #@! TO.C,C18*
X145980000Y-103820000D03*
X147080000Y-103820000D03*
G04 #@! TD*
G04 #@! TO.C,C7*
X164450000Y-88000000D03*
X165550000Y-88000000D03*
G04 #@! TD*
G04 #@! TO.C,C6*
X133450000Y-93500000D03*
X134550000Y-93500000D03*
G04 #@! TD*
G04 #@! TO.C,C5*
X134550000Y-91500000D03*
X133450000Y-91500000D03*
G04 #@! TD*
D21*
G04 #@! TO.C,C4*
X139000000Y-95950000D03*
X139000000Y-97050000D03*
G04 #@! TD*
G04 #@! TO.C,C3*
X137000000Y-97050000D03*
X137000000Y-95950000D03*
G04 #@! TD*
G04 #@! TO.C,C2*
X137000000Y-98450000D03*
X137000000Y-99550000D03*
G04 #@! TD*
G04 #@! TO.C,C1*
X139000000Y-99550000D03*
X139000000Y-98450000D03*
G04 #@! TD*
D22*
G04 #@! TO.C,C9*
X140500000Y-85500000D03*
X139400000Y-85500000D03*
G04 #@! TD*
D21*
G04 #@! TO.C,C10*
X138750000Y-87400000D03*
X138750000Y-88500000D03*
G04 #@! TD*
D23*
G04 #@! TO.C,Y1*
X138700000Y-91625000D03*
X138700000Y-93375000D03*
X137300000Y-93375000D03*
X137300000Y-91625000D03*
G04 #@! TD*
D14*
G04 #@! TO.C,L1*
X132980000Y-96980000D03*
X131080000Y-96980000D03*
G04 #@! TD*
D11*
G04 #@! TO.C,D1*
X187220000Y-94380000D03*
X187220000Y-96580000D03*
G04 #@! TD*
G04 #@! TO.C,D2*
X183850000Y-96400000D03*
X183850000Y-94200000D03*
G04 #@! TD*
D13*
G04 #@! TO.C,R5*
X141020000Y-78680000D03*
X141020000Y-77780000D03*
G04 #@! TD*
D12*
G04 #@! TO.C,R6*
X172470000Y-94180000D03*
X173370000Y-94180000D03*
G04 #@! TD*
G04 #@! TO.C,R1*
X135450000Y-97000000D03*
X134550000Y-97000000D03*
G04 #@! TD*
D13*
G04 #@! TO.C,R4*
X155160000Y-74920000D03*
X155160000Y-75820000D03*
G04 #@! TD*
D24*
G04 #@! TO.C,Q1*
X177170000Y-95150000D03*
X175170000Y-96100000D03*
X175170000Y-94200000D03*
G04 #@! TD*
D25*
G04 #@! TO.C,U2*
X181670000Y-90410000D03*
X177170000Y-90410000D03*
X178670000Y-90410000D03*
X180170000Y-90410000D03*
X183170000Y-90410000D03*
X184670000Y-90410000D03*
X186170000Y-90410000D03*
X187670000Y-90410000D03*
D26*
X188920000Y-88610000D03*
X188920000Y-87110000D03*
X188920000Y-85610000D03*
X188920000Y-84110000D03*
X188920000Y-82610000D03*
X188920000Y-81110000D03*
X188920000Y-79610000D03*
X188920000Y-78110000D03*
X188920000Y-76610000D03*
X188920000Y-75110000D03*
X188920000Y-73610000D03*
X188920000Y-72110000D03*
X188920000Y-70610000D03*
X175920000Y-70610000D03*
X175920000Y-72110000D03*
X175920000Y-73610000D03*
X175920000Y-75110000D03*
X175920000Y-76610000D03*
X175920000Y-78110000D03*
X175920000Y-79610000D03*
X175920000Y-81110000D03*
X175920000Y-82610000D03*
X175920000Y-84110000D03*
X175920000Y-85610000D03*
X175920000Y-87110000D03*
X175920000Y-88610000D03*
G04 #@! TD*
M02*
